<?xml version="1.0" standalone="no"?>
<!DOCTYPE svg PUBLIC "-//W3C//DTD SVG 1.1//EN" "http://www.w3.org/Graphics/SVG/1.1/DTD/svg11.dtd" >
<svg xmlns="http://www.w3.org/2000/svg">
<metadata></metadata>
<defs>
<font id="gt_walsheimregular" horiz-adv-x="1157" >
<font-face units-per-em="2048" ascent="1602" descent="-446" />
<missing-glyph horiz-adv-x="528" />
<glyph unicode=" "  horiz-adv-x="528" />
<glyph unicode="&#x09;" horiz-adv-x="528" />
<glyph unicode="&#xa0;" horiz-adv-x="528" />
<glyph unicode="!" horiz-adv-x="552" d="M182 78q0 47 34 79.5t81 32.5q41 0 66.5 -26.5t25.5 -65.5q0 -47 -33.5 -79.5t-81.5 -32.5q-41 0 -66.5 26.5t-25.5 65.5zM270 395l113 1065h92l-113 -1065h-92z" />
<glyph unicode="&#x22;" horiz-adv-x="581" d="M238 954l20 334l18 180h84l-18 -180l-49 -334h-55zM489 954l21 334l18 180h84l-18 -180l-47 -334h-58z" />
<glyph unicode="#" horiz-adv-x="1128" d="M109 449l8 73h231l94 389h-223l8 74h234l108 449h78l-110 -449h358l109 449h77l-110 -449h203l-9 -74h-213l-94 -389h205l-8 -73h-215l-111 -449h-76l111 449h-358l-111 -449h-76l111 449h-221zM424 522h358l95 389h-359z" />
<glyph unicode="$" horiz-adv-x="1212" d="M166 432h90q-8 -82 12.5 -151.5t69.5 -119.5t125 -78t176 -28q92 0 167 23.5t129 67.5t84 105.5t30 139.5q0 74 -27 123t-73 81t-106.5 51.5t-127.5 35.5q-84 20 -161 44t-136.5 63.5t-94 102t-34.5 159.5q0 84 28.5 154.5t84 124.5t138.5 88t193 42l21 205h84l-21 -205 q92 -6 163 -36.5t117 -85t67.5 -129t13.5 -167.5h-91q10 160 -69.5 248t-251.5 88q-86 0 -157.5 -22.5t-122 -63.5t-78 -99t-27.5 -128q0 -82 35 -132t86 -81t111.5 -47.5t113.5 -28.5q80 -18 154.5 -42.5t131 -65.5t91.5 -104.5t35 -162.5q0 -98 -37 -176t-100.5 -132 t-151.5 -83.5t-188 -36.5l-23 -204h-84l23 204q-106 6 -188.5 43t-134.5 97.5t-75.5 141.5t-13.5 177z" />
<glyph unicode="%" horiz-adv-x="1740" d="M164 891l35 313q6 51 29.5 95t61.5 78t88 53.5t109 19.5q61 0 108.5 -20.5t78.5 -55.5t45 -82t8 -100l-33 -313q-6 -49 -30.5 -94.5t-63.5 -79t-90 -53t-109 -19.5q-61 0 -107 20.5t-77 56t-45 82t-8 99.5zM242 891q-8 -78 37 -134.5t131 -56.5t142 56.5t64 134.5l33 301 q8 78 -38 135t-132 57t-141 -57t-64 -135zM371 -4l1056 1542l68 -41l-1059 -1542zM1167 244l35 313q6 51 29.5 95t61.5 78t88.5 53.5t109.5 19.5q61 0 107.5 -20.5t77 -55.5t45 -82t8.5 -100l-33 -314q-6 -49 -30 -94t-62.5 -78.5t-90 -53t-108.5 -19.5q-61 0 -107.5 20.5 t-77 56t-45 81.5t-8.5 100zM1245 244q-8 -78 36 -134.5t130 -56.5q43 0 80 15.5t64.5 41t44 60.5t20.5 74l31 301q8 78 -37 135t-131 57t-142.5 -57t-64.5 -135z" />
<glyph unicode="&#x26;" horiz-adv-x="1224" d="M147 350q0 150 91.5 253.5t248.5 137.5q-117 25 -180 103t-63 198q0 90 35.5 166t99 130.5t151.5 85t191 30.5q98 0 176 -28.5t129 -80t74.5 -124t15.5 -158.5h-90q14 137 -67.5 222t-247.5 85q-84 0 -154 -23.5t-119 -66.5t-75.5 -102.5t-26.5 -128.5q0 -121 79 -194 t232 -73h90l-10 -82h-92q-92 0 -166 -26.5t-125 -73.5t-78.5 -109.5t-27.5 -134.5q0 -131 90 -212t254 -81q102 0 177 33t124 89.5t75.5 133t36.5 162.5h-211l9 82h450l-8 -82h-150q-10 -100 -44.5 -191t-97 -160t-154 -109.5t-214.5 -40.5q-96 0 -174.5 26.5t-135 74.5 t-87.5 116.5t-31 152.5z" />
<glyph unicode="'" horiz-adv-x="329" d="M238 954l20 334l18 180h84l-18 -180l-49 -334h-55z" />
<glyph unicode="(" horiz-adv-x="661" d="M195 -25l124 1190q10 94 52.5 178t109 147.5t155.5 100.5t193 37l-10 -84q-84 0 -155.5 -29.5t-125 -82t-87 -121t-41.5 -146.5l-125 -1190q-8 -78 10 -145.5t61 -119.5t108.5 -81.5t149.5 -29.5l-8 -84q-104 0 -185 36.5t-135.5 99t-78 146.5t-12.5 178z" />
<glyph unicode=")" horiz-adv-x="661" d="M-45 -485l8 84q84 0 155.5 29.5t126 81.5t88.5 120t42 145l125 1190q8 78 -11.5 146.5t-62.5 121t-108.5 82t-149.5 29.5l8 84q104 0 185 -37t135.5 -100.5t78 -147t13.5 -178.5l-125 -1190q-10 -94 -51 -178t-107.5 -146.5t-156 -99t-193.5 -36.5z" />
<glyph unicode="*" horiz-adv-x="921" d="M205 1167l26 66l318 -109l35 344h65l-35 -344l334 109l15 -66l-336 -106l170 -275l-58 -38l-168 276l-233 -276l-49 38l233 275z" />
<glyph unicode="+" d="M238 543l8 80h354l39 360h88l-39 -360h354l-8 -80h-354l-37 -357h-88l37 357h-354z" />
<glyph unicode="," horiz-adv-x="468" d="M100 -238l6 58q68 0 116 40t48 109q0 16 -2 25.5t-6 15.5q-25 -20 -57 -20q-39 0 -62.5 26.5t-23.5 63.5q0 45 32.5 79t86.5 34q59 0 91.5 -46.5t32.5 -132.5q0 -129 -72.5 -190.5t-189.5 -61.5z" />
<glyph unicode="-" horiz-adv-x="602" d="M119 543l8 82h479l-8 -82h-479z" />
<glyph unicode="." horiz-adv-x="415" d="M117 82q0 47 32.5 79t77.5 32q41 0 66.5 -26t25.5 -67q0 -47 -33.5 -77.5t-78.5 -30.5q-41 0 -65.5 25.5t-24.5 64.5z" />
<glyph unicode="/" horiz-adv-x="823" d="M20 -119l928 1733l74 -35l-928 -1731z" />
<glyph unicode="0" horiz-adv-x="1179" d="M174 434l59 563q10 94 51.5 178.5t108 147.5t155.5 100t195 37q104 0 186.5 -37t136.5 -100t78.5 -147t14.5 -179l-59 -563q-10 -92 -52 -176t-109 -147.5t-157 -100.5t-194 -37q-106 0 -187.5 37t-135.5 100.5t-77.5 147.5t-13.5 176zM264 434q-8 -76 11.5 -144.5 t62.5 -119.5t107.5 -82t150.5 -31t158.5 31t127 82t88.5 119.5t42 144.5l59 563q8 78 -11.5 146.5t-63.5 121t-109.5 82t-151.5 29.5t-157.5 -29.5t-125 -82t-87 -121t-41.5 -146.5z" />
<glyph unicode="1" horiz-adv-x="620" d="M186 1118l9 78q92 0 148 13.5t90 41t49.5 72.5t21.5 111h86l-150 -1434h-92l117 1118h-279z" />
<glyph unicode="2" horiz-adv-x="1077" d="M98 0q18 172 55 284.5t99.5 189.5t152 126t211.5 96q76 29 145.5 59.5t123 73.5t85 103.5t31.5 150.5q0 139 -79.5 213t-223.5 74q-88 0 -159.5 -27.5t-124 -75.5t-83 -115t-38.5 -146h-90q10 98 51 180t106.5 141t154.5 93t196 34q182 0 282.5 -96t100.5 -266 q0 -111 -40 -187t-104.5 -128t-143.5 -88t-155 -64q-113 -43 -191.5 -86t-131 -102.5t-82 -143.5t-41.5 -209h796l-8 -84h-895z" />
<glyph unicode="3" horiz-adv-x="1101" d="M109 399h90q-8 -76 12 -137t65.5 -105t112 -69t152.5 -25q90 0 163.5 27t126 74t81 111.5t28.5 138.5q0 127 -84 206.5t-246 79.5h-114l10 82h115q86 0 154.5 24.5t116.5 66.5t72.5 100.5t24.5 126.5q0 127 -84 198.5t-231 71.5q-166 0 -265.5 -85t-113.5 -222h-90 q8 86 47 158.5t101.5 124t145.5 80t181 28.5q182 0 290.5 -94t108.5 -252q0 -68 -21.5 -128t-61.5 -109.5t-99 -83t-133 -46.5q129 -25 197.5 -110.5t68.5 -214.5q0 -96 -38 -176t-105.5 -137.5t-159.5 -90t-199 -32.5q-102 0 -184 29.5t-137 85t-82 132t-16 172.5z" />
<glyph unicode="4" horiz-adv-x="1103" d="M205 522l96 912h88l-88 -828h467l49 465h90l-49 -465h252l-8 -84h-252l-55 -522h-90l55 522h-555z" />
<glyph unicode="5" horiz-adv-x="1191" d="M195 440h90q-8 -76 10 -144.5t61 -119.5t108.5 -82t151.5 -31q92 0 169 34t132.5 91.5t86 132t30.5 156.5q0 70 -22.5 131.5t-66.5 106.5t-107.5 70.5t-145.5 25.5q-115 0 -203 -51t-141 -150h-100l88 824h792l-10 -84h-708l-68 -643q53 84 152.5 136t224.5 52 q94 0 170 -32t128 -87t79.5 -130t27.5 -161q0 -100 -37.5 -192t-106.5 -162t-163 -110.5t-207 -40.5q-109 0 -190.5 37.5t-135 101t-77 146.5t-12.5 175z" />
<glyph unicode="6" horiz-adv-x="1083" d="M119 395q0 90 28.5 166t73.5 137l535 736h104l-440 -600q76 70 219 69q94 0 171 -33.5t130 -90t82 -133.5t29 -163q0 -100 -38 -191t-106.5 -161t-162.5 -110.5t-205 -40.5q-98 0 -177 32.5t-132.5 90t-82 133t-28.5 159.5zM209 403q0 -70 22.5 -131t65.5 -107t105.5 -74 t144.5 -28q90 0 165.5 34t131 90.5t86.5 131t31 156.5q0 70 -23 132.5t-67 109.5t-107.5 74.5t-142.5 27.5q-90 0 -165 -33.5t-130.5 -91t-86 -133.5t-30.5 -158z" />
<glyph unicode="7" horiz-adv-x="905" d="M129 0l793 1350h-703l10 84h838l-842 -1434h-96z" />
<glyph unicode="8" horiz-adv-x="1148" d="M150 346q0 70 22.5 135.5t65.5 117.5t105.5 90t143.5 52q-123 25 -181 108t-58 193q0 86 34.5 162t97 131.5t150.5 87t195 31.5q94 0 170 -25.5t127 -71.5t78.5 -109.5t27.5 -139.5q0 -66 -20.5 -126t-60 -108.5t-97 -83t-131.5 -49.5q123 -23 190.5 -108.5t67.5 -214.5 q0 -92 -35.5 -172t-102.5 -139.5t-159 -93t-205 -33.5q-102 0 -181 27.5t-133 76.5t-82.5 115.5t-28.5 146.5zM240 356q0 -131 90 -212t254 -81q92 0 166.5 27t128 74t82 109.5t28.5 136.5q0 127 -89 207.5t-257 80.5q-94 0 -169 -26.5t-127 -72.5t-79.5 -108.5 t-27.5 -134.5zM340 1044q0 -119 80.5 -193.5t236.5 -74.5q86 0 157 24.5t120 67.5t75.5 101.5t26.5 126.5q0 123 -84 198.5t-233 75.5q-84 0 -153.5 -24.5t-120 -68.5t-78 -103.5t-27.5 -129.5z" />
<glyph unicode="9" horiz-adv-x="1083" d="M184 950q0 100 38 191.5t106.5 161t162.5 110.5t205 41q100 0 178 -32.5t131.5 -90t82 -132.5t28.5 -161t-27.5 -160.5t-76.5 -142.5l-535 -735h-104l442 600q-68 -68 -211 -68q-96 0 -174 33t-132 89.5t-84 132t-30 163.5zM274 956q0 -70 22.5 -132t67 -108t108 -74 t142.5 -28q90 0 166 34t131.5 91.5t86 132t30.5 158.5q0 70 -22.5 132.5t-65.5 108.5t-106.5 72.5t-143.5 26.5q-90 0 -165.5 -33.5t-131 -90t-87.5 -132.5t-32 -158z" />
<glyph unicode=":" horiz-adv-x="415" d="M117 82q0 47 32.5 79t77.5 32q41 0 66.5 -27t25.5 -66q0 -47 -34.5 -78.5t-77.5 -31.5q-41 0 -65.5 26.5t-24.5 65.5zM193 788q0 47 31.5 78t76.5 31q41 0 66.5 -25.5t25.5 -66.5q0 -47 -32.5 -78t-77.5 -31q-41 0 -65.5 25.5t-24.5 66.5z" />
<glyph unicode=";" horiz-adv-x="421" d="M100 -238l6 58q68 0 116 40t48 109q0 16 -2 25.5t-6 15.5q-25 -20 -57 -20q-39 0 -62.5 26.5t-23.5 63.5q0 45 32.5 79t86.5 34q59 0 91.5 -46.5t32.5 -132.5q0 -129 -72.5 -190.5t-189.5 -61.5zM193 788q0 47 32.5 79t77.5 32q41 0 65.5 -26.5t24.5 -65.5 q0 -47 -32.5 -78t-77.5 -31q-41 0 -65.5 25.5t-24.5 64.5z" />
<glyph unicode="&#x3c;" d="M115 547l8 69l1079 390l-10 -88l-946 -336l874 -338l-8 -86z" />
<glyph unicode="=" d="M205 362l8 82h827l-8 -82h-827zM242 719l8 82h827l-8 -82h-827z" />
<glyph unicode="&#x3e;" d="M78 158l8 86l948 338l-876 336l10 88l997 -390l-8 -69z" />
<glyph unicode="?" horiz-adv-x="1001" d="M150 1012q10 98 51 180t107.5 141.5t156.5 93t199 33.5q178 0 277 -90t99 -254q0 -90 -28.5 -155.5t-70.5 -112.5t-89 -78t-84 -51q-49 -29 -89 -55.5t-69.5 -62.5t-48 -87t-26.5 -129h-86q8 84 29.5 143.5t53 102.5t75.5 74.5t98 62.5q29 16 71.5 42t81.5 65.5t66.5 97 t27.5 137.5q0 129 -78.5 197.5t-220.5 68.5q-90 0 -161.5 -27.5t-125 -75.5t-86 -114.5t-40.5 -146.5h-90zM358 78q0 47 33 79.5t80 32.5q41 0 67.5 -26.5t26.5 -67.5q0 -47 -34.5 -78.5t-81.5 -31.5q-41 0 -66 26.5t-25 65.5z" />
<glyph unicode="@" horiz-adv-x="1849" d="M121 350q0 102 23.5 209t72.5 208t127 190.5t184.5 156t245.5 105t311 38.5q166 0 298.5 -39.5t225.5 -128t142 -225.5t49 -332q0 -123 -20.5 -239.5t-64.5 -207.5t-112.5 -147.5t-162.5 -56.5q-102 0 -154.5 64.5t-42.5 175.5l10 106q-51 -98 -149 -161.5t-227 -63.5 q-86 0 -156 30.5t-119 83t-74.5 121t-25.5 146.5q0 92 34.5 176t97 146.5t147.5 100.5t184 38q129 0 215 -62.5t114 -165.5l23 211h76l-70 -667q-10 -102 30 -154.5t105 -52.5q66 0 115 49t83 130t50 183.5t16 210.5q0 176 -44 301t-127 205t-202.5 117t-273.5 37 q-160 0 -288 -37t-225 -99.5t-165.5 -145.5t-112.5 -175t-64.5 -188.5t-20.5 -186.5q0 -133 44 -258t136 -220t233.5 -152.5t337.5 -57.5q57 0 129 6t151 22.5t161 44.5t161 71l31 -64q-84 -45 -172 -74.5t-171 -46t-159.5 -24t-138.5 -7.5q-213 0 -367.5 62.5t-256 168 t-149.5 242t-48 283.5zM580 389q0 -66 20.5 -123t60 -100t98 -68.5t132.5 -25.5q84 0 154.5 31.5t122 84t80 122t28.5 145.5q0 66 -21.5 123t-61.5 100t-99.5 68.5t-132.5 25.5q-84 0 -154 -30.5t-120 -84t-78.5 -123t-28.5 -145.5z" />
<glyph unicode="A" horiz-adv-x="1093" d="M16 0l646 1434h73l340 -1434h-94l-70 295h-669l-131 -295h-95zM279 379h612l-207 919z" />
<glyph unicode="B" horiz-adv-x="1179" d="M180 0l152 1434h489q86 0 151.5 -29t109.5 -77t65.5 -110.5t21.5 -127.5q0 -70 -22.5 -132.5t-62.5 -111.5t-93 -82t-114 -45q49 -10 91 -38t72.5 -68t48 -92t17.5 -109q0 -76 -29.5 -150t-86 -132t-136.5 -94t-180 -36h-494zM279 84h403q74 0 134.5 27.5t105.5 71.5 t69.5 102.5t24.5 120.5q0 51 -18.5 100t-52.5 88t-82 61.5t-109 22.5h-412zM350 762h410q70 0 129 27.5t101 72.5t65.5 102.5t23.5 118.5q0 51 -17.5 99.5t-52 85.5t-85 59.5t-113.5 22.5h-399z" />
<glyph unicode="C" horiz-adv-x="1585" d="M166 649q0 156 56.5 302.5t161.5 260t257 182t340 68.5q135 0 243.5 -35.5t187.5 -101t127 -156t60 -198.5h-94q-14 92 -56 166.5t-109.5 129t-160 83t-204.5 28.5q-168 0 -301 -61.5t-226.5 -161.5t-142.5 -230t-49 -268q0 -123 40 -232.5t115.5 -191t185.5 -130 t249 -48.5q106 0 200.5 28t170 76t133 110.5t92.5 133.5h98q-39 -88 -106.5 -166.5t-157.5 -137t-201.5 -93.5t-238.5 -35q-162 0 -287 54.5t-210 147.5t-129 216t-44 260z" />
<glyph unicode="D" horiz-adv-x="1413" d="M180 0l152 1434h395q166 0 291 -55.5t210 -145.5t128 -208t43 -243q0 -145 -57.5 -285.5t-164 -251t-259 -178t-343.5 -67.5h-395zM279 84h305q168 0 302 59.5t228 157.5t144.5 222t50.5 253q0 111 -38 214.5t-113 183t-185.5 128t-255.5 48.5h-305z" />
<glyph unicode="E" horiz-adv-x="1107" d="M180 0l152 1434h758l-11 -84h-667l-62 -596h668l-10 -82h-668l-61 -588h667l-8 -84h-758z" />
<glyph unicode="F" horiz-adv-x="1101" d="M180 0l152 1434h758l-11 -84h-667l-66 -625h668l-8 -84h-668l-68 -641h-90z" />
<glyph unicode="G" horiz-adv-x="1701" d="M164 639q0 158 58.5 306.5t164 263t255 184t331.5 69.5q119 0 214 -29.5t164.5 -79.5t112.5 -118t56 -141h-90q-16 57 -54.5 109t-97.5 91t-138 61.5t-175 22.5q-160 0 -291 -61.5t-224.5 -163.5t-144.5 -233.5t-51 -272.5q0 -117 37 -224.5t110.5 -188t184 -130 t258.5 -49.5q129 0 232.5 38t179 104.5t125 156.5t71.5 197h-467l8 84h709l-8 -84h-148q-29 -135 -91 -241.5t-154.5 -182.5t-210 -116t-259.5 -40q-168 0 -293.5 55.5t-208.5 147.5t-124 213t-41 252z" />
<glyph unicode="H" horiz-adv-x="1353" d="M180 0l152 1434h90l-72 -680h815l72 680h88l-151 -1434h-89l70 672h-815l-70 -672h-90z" />
<glyph unicode="I" horiz-adv-x="452" d="M180 0l152 1434h92l-152 -1434h-92z" />
<glyph unicode="J" horiz-adv-x="1095" d="M84 432h90q-3 -28 -3 -54q0 -56 15 -104q21 -69 67 -118.5t111.5 -75t143.5 -25.5q76 0 143.5 25.5t119.5 74t85 118t43 159.5l105 1002h90l-105 -1002q-12 -106 -53 -191t-105.5 -145.5t-149.5 -92.5t-181 -32q-98 0 -179 32t-137.5 92.5t-83.5 145.5q-20 59 -20 129 q0 30 4 62z" />
<glyph unicode="K" horiz-adv-x="1138" d="M180 0l152 1434h90l-74 -695l811 695h121l-834 -717l682 -717h-120l-664 694l-74 -694h-90z" />
<glyph unicode="L" horiz-adv-x="856" d="M180 0l152 1434h90l-143 -1350h518l-9 -84h-608z" />
<glyph unicode="M" horiz-adv-x="1656" d="M180 0l152 1434h88l422 -1305l696 1305h90l-151 -1434h-91l130 1225l-650 -1225h-75l-392 1225l-129 -1225h-90z" />
<glyph unicode="N" horiz-adv-x="1351" d="M180 0l152 1434h102l666 -1282l135 1282h88l-152 -1434h-100l-665 1282l-136 -1282h-90z" />
<glyph unicode="O" horiz-adv-x="1656" d="M166 645q0 156 58.5 303.5t166 262t256 183t330.5 68.5q162 0 287 -55t208.5 -148.5t128 -215t44.5 -252.5q0 -158 -59.5 -305.5t-166 -261t-257.5 -183.5t-331 -70q-162 0 -285.5 55.5t-208.5 149.5t-128 215t-43 254zM258 653q0 -117 38 -225.5t111.5 -191t183.5 -132 t251 -49.5q158 0 289 61.5t224 163t144 232.5t51 270q0 117 -37.5 225.5t-110.5 190.5t-181.5 131t-249.5 49q-160 0 -291 -61.5t-224.5 -162.5t-145.5 -231t-52 -270z" />
<glyph unicode="P" horiz-adv-x="1218" d="M180 0l152 1434h481q98 0 177 -33t132.5 -90.5t82 -133t28.5 -161.5q0 -100 -38 -191.5t-106.5 -161t-164 -110.5t-209.5 -41h-391l-54 -512h-90zM334 596h391q92 0 169 34t132 90t86 131t31 157q0 70 -22.5 132t-66.5 109t-107.5 74t-143.5 27h-391z" />
<glyph unicode="Q" horiz-adv-x="1656" d="M166 645q0 156 58.5 303.5t166 262t256 183t330.5 68.5q162 0 287 -55t208.5 -148.5t128 -217.5t44.5 -259q0 -160 -56.5 -298t-155 -243.5t-229.5 -173t-280 -83.5l114 -191l-84 -39l-129 217q-160 0 -282.5 56.5t-206.5 149.5t-127 214t-43 254zM258 653 q0 -117 38 -225.5t111.5 -191t183.5 -132t251 -49.5q158 0 289 61.5t224 163t144 232.5t51 270q0 117 -37.5 225.5t-110.5 190.5t-181.5 131t-249.5 49q-160 0 -291 -61.5t-224.5 -162.5t-145.5 -231t-52 -270z" />
<glyph unicode="R" horiz-adv-x="1226" d="M180 0l152 1434h481q98 0 177 -33t132.5 -90.5t82 -133t28.5 -161.5q0 -88 -28.5 -168t-82 -145.5t-127 -111.5t-161.5 -65l282 -526h-106l-275 512h-411l-54 -512h-90zM334 596h391q92 0 169 34t132 90t86 131t31 157q0 70 -22.5 132t-66.5 109t-107.5 74t-143.5 27 h-391z" />
<glyph unicode="S" horiz-adv-x="1175" d="M147 432h89q-2 -23 -2 -46q0 -56 14 -106q20 -70 69.5 -119.5t124 -77.5t176.5 -28q90 0 165 23.5t129.5 66.5t84 104.5t29.5 139.5q0 76 -27.5 126t-73.5 82t-105.5 50.5t-123.5 34.5q-84 20 -160.5 44t-136 63.5t-95.5 102t-36 159.5q0 94 36 170.5t100.5 130t152.5 82 t195 28.5q206 0 314 -108q94 -93 93 -258q0 -26 -2 -54h-90q1 18 1 35q0 135 -70 213q-80 88 -255 88q-86 0 -156.5 -22.5t-120.5 -63.5t-78 -99t-28 -128q0 -80 33 -130t84 -81t112.5 -47t119.5 -31q76 -18 149.5 -42.5t132 -65.5t93 -104.5t34.5 -162.5q0 -100 -38 -180 t-106.5 -135t-161.5 -85t-204 -30q-121 0 -211 34t-149.5 95.5t-85.5 145.5q-18 60 -18 130q0 27 3 56z" />
<glyph unicode="T" horiz-adv-x="960" d="M174 1350l8 84h895l-8 -84h-403l-142 -1350h-90l141 1350h-401z" />
<glyph unicode="U" horiz-adv-x="1241" d="M201 434l104 1000h88l-104 -1000q-2 -23 -2 -45q0 -53 13 -101q19 -68 62.5 -119.5t110 -82.5t152.5 -31q88 0 160.5 32t128 84t88 120.5t40.5 142.5l105 1000h90l-104 -1000q-10 -94 -52.5 -178t-110 -147.5t-157.5 -100.5t-197 -37q-106 0 -188 37t-136 100.5 t-78 147.5q-16 58 -16 120q0 28 3 58z" />
<glyph unicode="V" horiz-adv-x="1126" d="M166 1434h94l318 -1297l593 1297h95l-664 -1434h-74z" />
<glyph unicode="W" horiz-adv-x="1896" d="M166 1434h94l287 -1289l516 1289h76l245 -1289l558 1289h94l-633 -1434h-74l-246 1286l-514 -1286h-75z" />
<glyph unicode="X" horiz-adv-x="1064" d="M27 0l530 717l-379 717h101l337 -639l474 639h102l-533 -717l381 -717h-102l-338 639l-473 -639h-100z" />
<glyph unicode="Y" horiz-adv-x="1118" d="M166 1434h106l412 -779l485 779h99l-893 -1434h-101l353 563z" />
<glyph unicode="Z" horiz-adv-x="1105" d="M35 0l1042 1350h-858l10 84h1014l-1044 -1350h931l-8 -84h-1087z" />
<glyph unicode="[" horiz-adv-x="604" d="M129 -479l221 2107h383l-8 -82h-297l-205 -1945h297l-8 -80h-383z" />
<glyph unicode="\" horiz-adv-x="823" d="M137 1579l84 35l563 -1733l-84 -33z" />
<glyph unicode="]" horiz-adv-x="604" d="M-10 -479l8 80h297l205 1945h-297l8 82h383l-221 -2107h-383z" />
<glyph unicode="^" horiz-adv-x="1265" d="M193 662l565 874h69l385 -874h-98l-334 768l-491 -768h-96z" />
<glyph unicode="_" horiz-adv-x="1146" d="M43 -172l8 70h1024l-8 -70h-1024z" />
<glyph unicode="`" horiz-adv-x="692" d="M209 1409l49 72l479 -281l-47 -72z" />
<glyph unicode="a" horiz-adv-x="1200" d="M137 397q0 100 38 192.5t105.5 162t161 110.5t201.5 41q141 0 233.5 -67.5t124.5 -178.5l25 226h86l-92 -883h-86l22 225q-55 -111 -161.5 -178t-247.5 -67q-96 0 -172 33.5t-128 90t-81 132t-29 161.5zM223 403q0 -70 22.5 -132t65.5 -108t106.5 -74t145.5 -28 q90 0 167 34t132.5 90.5t87 132t31.5 159.5q0 70 -22.5 133.5t-66.5 109.5t-107.5 73.5t-143.5 27.5q-92 0 -169 -33.5t-132 -92t-86 -134.5t-31 -158z" />
<glyph unicode="b" horiz-adv-x="1200" d="M180 0l152 1434h86l-82 -777q55 111 161.5 178.5t247.5 67.5q94 0 171 -33.5t129.5 -90t81 -132.5t28.5 -162q0 -100 -38 -192t-105.5 -162t-159.5 -110.5t-201 -40.5q-141 0 -234 67.5t-126 177.5l-25 -225h-86zM309 403q0 -72 23.5 -133t67.5 -108t107.5 -74t145.5 -27 q90 0 167 34t132.5 90.5t86 132t30.5 159.5q0 70 -22.5 132.5t-65.5 109.5t-106.5 74.5t-145.5 27.5q-90 0 -167 -33.5t-133 -91t-88 -133.5t-32 -160z" />
<glyph unicode="c" horiz-adv-x="1062" d="M145 393q0 96 33 188.5t96.5 164t156.5 114.5t214 43q102 0 173 -30.5t114 -80t61.5 -109.5t18.5 -122h-88q0 53 -17.5 101.5t-53.5 84t-91 56t-129 20.5q-98 0 -174 -35.5t-126 -96t-76 -136.5t-26 -156q0 -70 19.5 -131t59.5 -107t102.5 -73t146.5 -27q72 0 128 19.5 t99 52.5t71 77t42 93h88q-16 -68 -53 -127t-92.5 -103t-129 -68.5t-161.5 -24.5q-106 0 -183 34.5t-126 92t-73 132t-24 154.5z" />
<glyph unicode="d" horiz-adv-x="1200" d="M137 397q0 100 38 192.5t105.5 162t161 110.5t201.5 41q141 0 233.5 -67.5t124.5 -178.5l82 777h86l-149 -1434h-86l22 225q-55 -111 -161.5 -178t-247.5 -67q-96 0 -172 33.5t-128 90t-81 132t-29 161.5zM223 403q0 -70 22.5 -132t65.5 -108t106.5 -74t145.5 -28 q90 0 167 34t132.5 90.5t87 132t31.5 159.5q0 70 -22.5 133.5t-66.5 109.5t-107.5 73.5t-143.5 27.5q-92 0 -169 -33.5t-132 -92t-86 -134.5t-31 -158z" />
<glyph unicode="e" horiz-adv-x="1050" d="M145 397q0 106 35 198.5t96.5 161t148.5 107.5t191 39q86 0 157 -26.5t120 -75.5t76.5 -117t26.5 -147q0 -33 -3.5 -56.5t-9.5 -48.5h-747q-3 -27 -3 -53q0 -45 9 -89q14 -68 52 -119.5t100.5 -82.5t150.5 -31q63 0 115.5 16.5t92.5 43t67.5 60.5t43.5 71h90 q-18 -51 -54 -99.5t-89 -86t-121.5 -60t-152.5 -22.5q-100 0 -174 33.5t-122 91t-72 133t-24 159.5zM246 506h663q1 18 1 35q0 51 -13 95q-18 58 -58 100t-97.5 65.5t-127.5 23.5q-68 0 -129 -21.5t-110 -63.5t-83 -101t-46 -133z" />
<glyph unicode="f" horiz-adv-x="659" d="M133 805l8 78h211l27 245q12 106 44 170t74 96.5t89 42t90 9.5t69.5 -6t51.5 -17l-9 -77q-27 10 -50 15t-58 5t-70 -7t-64.5 -30.5t-51 -70t-29.5 -123.5l-27 -252h301l-8 -78h-301l-84 -805h-86l84 805h-211z" />
<glyph unicode="g" horiz-adv-x="1198" d="M88 -141h86q-1 -16 -1 -31q0 -52 11 -100q13 -64 49.5 -113t103 -78t171.5 -29q86 0 157.5 23t126 72t88 126.5t46.5 188.5l32 307q-57 -111 -163.5 -178t-247.5 -67q-96 0 -172 33.5t-128 90t-81 132t-29 161.5q0 100 38 192.5t105.5 162t159.5 110.5t201 41 q141 0 234.5 -67.5t128.5 -178.5l22 226h88l-102 -965q-14 -133 -56.5 -225t-108 -151.5t-153.5 -86t-192 -26.5q-127 0 -209 34.5t-129 94t-64 137.5q-13 63 -13 131q0 16 1 33zM225 406q0 -70 22.5 -132.5t65.5 -109.5t105.5 -75t144.5 -28q90 0 167 34t133.5 91.5t88 133 t31.5 159.5q0 70 -23.5 132.5t-67.5 109.5t-107.5 73.5t-145.5 26.5q-92 0 -168 -33.5t-130 -91t-85 -133.5t-31 -157z" />
<glyph unicode="h" horiz-adv-x="1142" d="M180 0l152 1434h86l-82 -781q23 49 59.5 95.5t85.5 80t110.5 54t133.5 20.5q86 0 148.5 -28.5t103.5 -77.5q41 -53 54 -123q7 -40 7 -86q0 -35 -4 -74l-53 -514h-86l51 492q3 29 3 57q0 38 -6 74q-11 61 -42 105t-82 69.5t-125 25.5q-86 0 -154.5 -34.5t-115.5 -88 t-76 -121t-35 -130.5l-47 -449h-86z" />
<glyph unicode="i" horiz-adv-x="468" d="M193 0l92 883h86l-92 -883h-86zM264 1233q0 47 34 78.5t79 31.5q41 0 65.5 -26.5t24.5 -65.5q0 -47 -33 -77.5t-78 -30.5q-41 0 -66.5 25.5t-25.5 64.5z" />
<glyph unicode="j" horiz-adv-x="477" d="M-113 -539l9 82q53 -28 101 -28h3q76 0 117 48t51 138l125 1182h86l-125 -1186q-14 -129 -75.5 -195.5t-166.5 -66.5q-31 0 -63.5 6t-61.5 20zM274 1233q0 47 33 78.5t78 31.5q41 0 66.5 -26.5t25.5 -65.5q0 -47 -33.5 -77.5t-78.5 -30.5q-41 0 -66 25.5t-25 64.5z" />
<glyph unicode="k" horiz-adv-x="884" d="M180 0l152 1434h86l-105 -979l512 428h119l-522 -443l430 -440h-119l-422 426l-45 -426h-86z" />
<glyph unicode="l" horiz-adv-x="446" d="M180 0l152 1434h86l-152 -1434h-86z" />
<glyph unicode="m" horiz-adv-x="1636" d="M180 0l92 883h86l-24 -232q14 45 43 90t69.5 81t95 58.5t122.5 22.5q106 0 180 -62.5t78 -193.5q16 49 46.5 95t73.5 82t99.5 57.5t126.5 21.5q59 0 111.5 -18.5t88.5 -59.5t54 -107q11 -42 12 -97q0 -31 -4 -66l-57 -555h-87l56 532q3 30 3 56q-1 46 -9 80 q-14 56 -41 90.5t-68 49.5t-88 15q-72 0 -128 -31.5t-96 -84t-64.5 -120t-32.5 -141.5l-48 -446h-86l54 498q4 40 4 74q0 46 -8 82q-14 62 -42 100.5t-69 53.5t-86 15q-72 0 -128 -31.5t-97 -84t-65.5 -120t-33.5 -141.5l-47 -446h-86z" />
<glyph unicode="n" horiz-adv-x="1142" d="M180 0l92 883h86l-22 -230q23 49 59.5 95.5t85.5 80t110.5 54t133.5 20.5q86 0 148.5 -28.5t103.5 -77.5q41 -53 54 -123q7 -40 7 -86q0 -35 -4 -74l-53 -514h-86l51 492q3 29 3 57q0 38 -6 74q-11 61 -42 105t-82 69.5t-125 25.5q-86 0 -154.5 -34.5t-115.5 -88 t-76 -121t-35 -130.5l-47 -449h-86z" />
<glyph unicode="o" horiz-adv-x="1112" d="M137 397q0 100 38 192.5t105.5 162t162 110.5t204.5 41q98 0 177 -33.5t133.5 -90t83 -133.5t28.5 -163q0 -100 -38 -191t-106.5 -161t-162.5 -110.5t-207 -40.5q-100 0 -178 33.5t-131 90t-81 132t-28 161.5zM223 403q0 -70 22.5 -132t65.5 -108t106.5 -74t145.5 -28 q90 0 167 34t133.5 90.5t88 132t31.5 159.5q0 70 -23.5 133.5t-67.5 109.5t-107.5 73.5t-143.5 27.5q-92 0 -169 -33.5t-132 -92t-86 -134.5t-31 -158z" />
<glyph unicode="p" horiz-adv-x="1200" d="M123 -551l151 1434h86l-24 -226q55 111 162.5 178.5t246.5 67.5q94 0 171 -33.5t129.5 -90t81 -132.5t28.5 -162q0 -100 -38 -191t-105.5 -161t-159.5 -111.5t-201 -41.5q-141 0 -234 67.5t-126 177.5l-82 -776h-86zM311 406q0 -72 22.5 -134.5t66.5 -108.5t107.5 -74 t143.5 -28q92 0 169 34t132.5 92.5t86 133t30.5 158.5q0 70 -22.5 132.5t-65.5 108.5t-106.5 73.5t-145.5 27.5q-90 0 -167 -33.5t-132 -90t-87 -132.5t-32 -159z" />
<glyph unicode="q" horiz-adv-x="1200" d="M137 399q0 100 38 191.5t105.5 161t159.5 110.5t201 41q141 0 234.5 -67.5t125.5 -178.5l25 226h86l-151 -1434h-87l82 776q-55 -111 -161.5 -178t-245.5 -67q-96 0 -172 33.5t-129 90t-82 133t-29 162.5zM223 406q0 -70 22.5 -132.5t66.5 -109.5t107.5 -75t145.5 -28 q90 0 166 34t131.5 91.5t87 133t31.5 159.5q0 70 -22.5 132.5t-66.5 108.5t-107.5 73.5t-145.5 27.5q-92 0 -168 -33.5t-131 -91t-86 -133.5t-31 -157z" />
<glyph unicode="r" horiz-adv-x="696" d="M180 0l92 883h86l-24 -244q59 131 159.5 194.5t206.5 63.5q53 0 84 -14l-8 -82q-27 8 -44 10t-36 2q-92 0 -160.5 -37t-116.5 -96t-76 -133t-36 -148l-41 -399h-86z" />
<glyph unicode="s" horiz-adv-x="917" d="M131 299h86q-2 -17 -2 -33q-1 -46 13 -81q18 -46 53.5 -74.5t87 -42t112.5 -13.5q129 0 199 50.5t70 136.5q0 45 -19.5 71.5t-56.5 44t-89.5 29.5t-115.5 27q-57 12 -107.5 26.5t-87 38t-58 60t-21.5 94.5q0 63 25.5 113.5t71.5 85t110.5 53t140.5 18.5q153 1 241 -75 q76 -65 76 -180q0 -18 -2 -38h-84q1 15 1 28q-1 90 -57 136q-66 53 -179 53q-115 0 -187.5 -50t-72.5 -138q0 -37 15 -61.5t47 -41t82 -29t120 -26.5q68 -14 121 -30.5t91 -41t58.5 -62.5t20.5 -95q0 -125 -94.5 -198.5t-264.5 -73.5q-78 0 -145.5 18t-114.5 56t-71 98 q-16 42 -16 98q0 23 3 49z" />
<glyph unicode="t" horiz-adv-x="649" d="M125 805l8 78h195l37 360h86l-37 -360h284l-8 -78h-284l-54 -500q-3 -34 -4 -62q0 -37 6 -63q10 -47 33 -71.5t55.5 -31.5t69.5 -7q29 0 67.5 3t67.5 7l-8 -80q-29 -4 -70 -8t-82 -4q-45 0 -89 9t-76 41q-34 32 -50 92q-10 37 -10 91q0 33 4 72l53 512h-194z" />
<glyph unicode="u" horiz-adv-x="1138" d="M195 369l53 514h90l-51 -492q-3 -30 -4 -59q0 -39 7 -73q11 -60 41.5 -104t82 -70t125.5 -26q86 0 153.5 35t115.5 88.5t75.5 120t34.5 131.5l47 449h88l-95 -883h-88l25 229q-23 -49 -59.5 -95t-86 -80t-110.5 -54t-135 -20q-168 0 -250 106q-63 79 -63 214q0 33 4 69z " />
<glyph unicode="v" horiz-adv-x="937" d="M115 883h94l270 -762l434 762h95l-506 -883h-70z" />
<glyph unicode="w" horiz-adv-x="1423" d="M117 883h92l201 -758l350 758h88l188 -758l363 758h92l-432 -883h-70l-196 782l-361 -782h-67z" />
<glyph unicode="x" horiz-adv-x="874" d="M63 0l371 442l-278 441h102l231 -373l314 373h100l-368 -441l278 -442h-102l-236 375l-311 -375h-101z" />
<glyph unicode="y" horiz-adv-x="1150" d="M150 -147h83q-2 -28 -2 -54q0 -50 7 -93q12 -64 45.5 -108t92 -67t146.5 -23q80 0 142.5 20.5t106.5 67t71.5 119t38.5 179.5l34 335q-23 -47 -56.5 -92t-81.5 -79.5t-111.5 -56t-145.5 -21.5t-145.5 23.5t-104.5 76.5q-39 47 -51 114q-6 34 -6 82t6 109l53 498h84 l-49 -477q-4 -41 -4 -78q0 -32 3 -62q7 -63 35 -109t78 -72t130 -26q94 0 163.5 35t118 88.5t75 120t32.5 131.5l47 449h86l-104 -989q-27 -252 -139.5 -358.5t-313.5 -106.5q-215 0 -298 107q-69 90 -69 249q0 32 3 68z" />
<glyph unicode="z" horiz-adv-x="874" d="M57 0l674 803h-563l8 80h721l-674 -803h596l-8 -80h-754z" />
<glyph unicode="{" horiz-adv-x="696" d="M141 512l9 76q25 0 58.5 11t65 34.5t55 58.5t29.5 84l60 565q8 72 38.5 125.5t73.5 89t95.5 53t101.5 17.5h115l-8 -72h-103q-41 0 -80 -15t-70.5 -43t-52 -70t-26.5 -93l-60 -563q-6 -49 -26.5 -87t-48 -64.5t-59.5 -43t-58 -24.5q27 -10 54.5 -26.5t50 -44t34.5 -67.5 t6 -96l-53 -503q-10 -104 45 -163t139 -59h103l-8 -71h-115q-49 0 -97.5 17.5t-85 52t-56 89t-11.5 125.5l53 504q6 53 -10 91t-43 62.5t-58.5 37t-56.5 12.5z" />
<glyph unicode="|" horiz-adv-x="446" d="M129 -479l221 2105h86l-221 -2105h-86z" />
<glyph unicode="}" horiz-adv-x="696" d="M-25 -479l9 71h100q41 0 80 15.5t70.5 43t52 68.5t26.5 95l54 503q6 53 25.5 92.5t47 68t59 46t62.5 27.5q-27 8 -54.5 24.5t-50 43t-35.5 64.5t-7 87l59 563q10 104 -45 162.5t-139 58.5h-101l9 72h114q49 0 97.5 -17.5t85 -53t56 -89t11.5 -125.5l-59 -565 q-6 -49 11 -84t44 -58.5t58.5 -34.5t56.5 -11l-8 -76q-25 0 -59 -12.5t-65.5 -37t-55 -62.5t-29.5 -91l-54 -504q-8 -72 -38.5 -126t-74.5 -88.5t-96.5 -52t-101.5 -17.5h-115z" />
<glyph unicode="~" horiz-adv-x="1026" d="M117 524l10 90q53 51 109.5 72t103.5 21q53 0 113.5 -19.5t119.5 -46.5q78 -35 125 -54.5t93 -19.5q66 0 126 35t107 76l-10 -86q-51 -47 -110.5 -76t-119.5 -29q-51 0 -105 20.5t-126 55.5q-53 25 -111.5 44.5t-107.5 19.5q-55 0 -112.5 -28t-104.5 -75z" />
<glyph unicode="&#xa1;" horiz-adv-x="552" d="M229 -18l113 1062h92l-112 -1062h-93zM317 1343q0 47 34 79t79 32q41 0 66.5 -25.5t25.5 -66.5q0 -47 -33.5 -79t-78.5 -32q-41 0 -67 26.5t-26 65.5z" />
<glyph unicode="&#xa2;" horiz-adv-x="1087" d="M160 453q0 92 30.5 180t89 158.5t142.5 115.5t190 54l25 225h82l-25 -225q92 -6 155.5 -37t103.5 -78t56.5 -105.5t16.5 -119.5h-86q0 53 -18.5 101t-53 84t-90 56.5t-129.5 20.5q-98 0 -174 -36t-126 -95.5t-75.5 -135t-25.5 -155.5q0 -68 19.5 -130.5t59.5 -108.5 t101 -73.5t147 -27.5q139 0 224.5 68.5t115.5 172.5h89q-16 -63 -49 -119.5t-83.5 -99.5t-119 -69.5t-154.5 -32.5l-25 -225h-81l24 227q-90 6 -156.5 41t-110.5 91t-66.5 128t-22.5 150z" />
<glyph unicode="&#xa3;" horiz-adv-x="1239" d="M113 0l8 74q57 63 88 157.5t47 251.5l31 291h-140l9 84h139l16 156q10 92 51 171t107 138t152 93t184 34q100 0 180 -35t133 -96.5t77 -143t13 -174.5h-90q8 76 -9 142.5t-59 116t-106.5 78t-148.5 28.5q-82 0 -151 -26.5t-120 -74.5t-82.5 -113t-40.5 -138l-16 -156h438 l-8 -84h-438l-31 -291q-16 -147 -44 -243.5t-79 -155.5h774l-8 -84h-876z" />
<glyph unicode="&#xa4;" horiz-adv-x="1648" d="M260 311l168 152q-39 51 -57.5 116.5t-18.5 135.5q0 98 36 183t101 157l-135 151l62 58l135 -152q61 49 141 79t172 30t165 -29t126 -78l164 150l51 -58l-164 -147q39 -53 58.5 -120t19.5 -138q0 -98 -37 -185.5t-102 -156.5l131 -148l-64 -57l-131 147 q-66 -47 -144.5 -75.5t-170.5 -28.5t-164 28.5t-125 80.5l-168 -152zM440 721q0 -70 22.5 -132.5t65.5 -108.5t105.5 -73.5t144.5 -27.5q90 0 167 33.5t132.5 91t87 132.5t31.5 159q0 70 -23.5 133t-67.5 109t-107.5 74t-143.5 28q-90 0 -166 -34t-131 -91.5t-86 -133 t-31 -159.5z" />
<glyph unicode="&#xa5;" horiz-adv-x="1265" d="M141 1434h103l461 -797l618 797h104l-677 -869h362l-6 -73h-373l-22 -216h372l-8 -77h-373l-22 -199h-84l22 199h-370l8 77h371l22 216h-370l6 73h358z" />
<glyph unicode="&#xa6;" horiz-adv-x="446" d="M129 -479l102 979h86l-102 -979h-86zM248 647l102 979h86l-102 -979h-86z" />
<glyph unicode="&#xa7;" horiz-adv-x="1185" d="M115 14h90q-8 -78 12.5 -143.5t68.5 -113.5t125.5 -75.5t182.5 -27.5q76 0 144.5 16.5t119.5 50t81 88t30 130.5q0 63 -23.5 107t-73 77t-124.5 58.5t-177 56.5q-84 25 -155.5 48t-125.5 57t-85 83t-31 125q0 63 21.5 116.5t58.5 92.5t84 63.5t100 34.5q-59 39 -99 102.5 t-40 159.5q0 92 39 164t104.5 122t153.5 75.5t184 25.5q111 0 194 -32.5t136 -89t74.5 -132t13.5 -161.5h-90q8 72 -10.5 133t-61.5 106t-109.5 70.5t-156.5 25.5q-76 0 -145.5 -19t-121.5 -57t-83 -93.5t-31 -127.5q0 -76 33 -125t85 -79.5t115.5 -50t125.5 -37.5 q92 -27 165.5 -52.5t126 -61.5t81 -83t28.5 -117q0 -63 -22.5 -115.5t-58.5 -93.5t-81 -67.5t-92 -36.5q84 -43 124 -104.5t40 -157.5t-38 -166t-102.5 -116t-151.5 -68.5t-183 -22.5q-123 0 -215.5 33t-151.5 91t-86 139t-16 175zM268 561q0 -41 14.5 -72.5t46 -58.5 t82 -48.5t121.5 -41.5l281 -80q41 2 84 21.5t79 53.5t58.5 79t22.5 100q0 49 -19.5 82t-56.5 56.5t-89 42t-116 38.5l-246 76q-66 -2 -114.5 -23.5t-81.5 -56.5t-49.5 -79t-16.5 -89z" />
<glyph unicode="&#xa8;" horiz-adv-x="976" d="M293 1335q0 45 31.5 77t74.5 32q41 0 65.5 -26.5t24.5 -65.5q0 -45 -31.5 -75t-76.5 -30q-39 0 -63.5 24.5t-24.5 63.5zM766 1335q0 43 30.5 76t75.5 33q39 0 65 -26.5t26 -65.5q0 -45 -33 -75t-78 -30q-39 0 -62.5 24.5t-23.5 63.5z" />
<glyph unicode="&#xa9;" horiz-adv-x="1656" d="M166 643q0 158 59.5 306.5t167 264t256 185t328.5 69.5q162 0 285.5 -56t207.5 -149.5t128 -216t44 -255.5q0 -158 -59 -307.5t-166.5 -264.5t-256.5 -184.5t-329 -69.5q-162 0 -285.5 56.5t-208.5 149.5t-128 216t-43 256zM248 649q0 -121 39 -230.5t113.5 -194.5 t184.5 -135t253 -50q160 0 293 62.5t228 167t147.5 238.5t52.5 277q0 119 -38 229.5t-113 195.5t-184.5 135.5t-252.5 50.5q-160 0 -293 -62.5t-228.5 -167t-148.5 -238.5t-53 -278zM457 674q0 94 33.5 183t98 157.5t156 110.5t205.5 42q166 0 261.5 -84t111.5 -213h-74 q-8 45 -30.5 87t-61.5 74t-92 50.5t-123 18.5q-96 0 -172 -36t-129 -94.5t-82 -133t-29 -154.5q0 -72 22.5 -135.5t66 -110.5t106.5 -74.5t143 -27.5q119 0 208 54t132 138h78q-49 -113 -161.5 -186.5t-262.5 -73.5q-96 0 -172 33t-128 88t-78.5 129t-26.5 158z" />
<glyph unicode="&#xaa;" horiz-adv-x="1200" d="M137 397q0 100 38 192.5t105.5 162t161 110.5t201.5 41q141 0 233.5 -67.5t124.5 -178.5l25 226h86l-92 -883h-86l22 225q-55 -111 -161.5 -178t-247.5 -67q-96 0 -172 33.5t-128 90t-81 132t-29 161.5zM223 403q0 -70 22.5 -132t65.5 -108t106.5 -74t145.5 -28 q90 0 167 34t132.5 90.5t87 132t31.5 159.5q0 70 -22.5 133.5t-66.5 109.5t-107.5 73.5t-143.5 27.5q-92 0 -169 -33.5t-132 -92t-86 -134.5t-31 -158z" />
<glyph unicode="&#xab;" horiz-adv-x="966" d="M141 565l6 64l439 354l-8 -96l-357 -291l295 -291l-10 -94zM543 565l6 64l438 354l-8 -96l-356 -291l295 -291l-11 -94z" />
<glyph unicode="&#xac;" d="M227 588l9 78h827l-39 -369h-88l31 291h-740z" />
<glyph unicode="&#xad;" horiz-adv-x="602" d="M119 543l8 82h479l-8 -82h-479z" />
<glyph unicode="&#xae;" horiz-adv-x="1671" d="M166 643q0 158 59.5 306.5t168 264t259 185t332.5 69.5q164 0 289 -56t210 -149.5t129 -216t44 -255.5q0 -158 -59.5 -307.5t-167 -264.5t-258 -184.5t-332.5 -69.5q-164 0 -290 56.5t-211 149.5t-129 216t-44 256zM248 651q0 -121 39 -231.5t114.5 -195.5t187.5 -135 t257 -50q162 0 296 62.5t230 166t149.5 237.5t53.5 277q0 121 -39 231.5t-114.5 195.5t-187.5 135.5t-257 50.5q-162 0 -296 -62.5t-230.5 -166t-149.5 -237.5t-53 -278zM627 330l88 833h291q55 0 100 -19.5t76.5 -52t48 -77.5t16.5 -94q0 -102 -63.5 -180t-167.5 -101 l166 -309h-82l-160 299h-209l-33 -299h-71zM737 694h215q49 0 89 17.5t70 48.5t46.5 70.5t16.5 82.5q0 76 -46.5 131.5t-132.5 55.5h-215z" />
<glyph unicode="&#xaf;" horiz-adv-x="1056" d="M317 1481l9 80h733l-8 -80h-734z" />
<glyph unicode="&#xb0;" horiz-adv-x="684" d="M170 1149q0 66 26.5 124t70.5 101t102.5 68.5t124.5 25.5q57 0 106 -20.5t85 -56t55.5 -85t19.5 -104.5q0 -66 -26.5 -124t-71 -101t-103.5 -68.5t-123 -25.5q-59 0 -107 20.5t-84 56t-55.5 85t-19.5 104.5zM240 1155q0 -86 56 -144.5t146 -58.5q49 0 93.5 19.5t78 52.5 t54 77t20.5 95q0 86 -56.5 144.5t-146.5 58.5q-49 0 -94 -19.5t-78.5 -52.5t-53 -77t-19.5 -95z" />
<glyph unicode="&#xb1;" d="M197 150l8 77h796l-8 -77h-796zM266 815l8 82h355l39 358h88l-39 -358h354l-8 -82h-354l-37 -356h-88l37 356h-355z" />
<glyph unicode="&#xb2;" horiz-adv-x="729" d="M182 645q10 100 34 164.5t58.5 105.5t80.5 67t106 50q39 16 75.5 33.5t66.5 40t48.5 54.5t18.5 79q0 66 -39 104.5t-113 38.5q-86 0 -138 -50t-63 -134h-77q12 106 87.5 177t198.5 71q100 0 161 -52.5t61 -150.5q0 -59 -23 -101t-58.5 -73t-78.5 -51.5t-84 -36.5 q-53 -23 -93 -43t-68 -50t-44 -72t-25 -105h420l-6 -66h-506z" />
<glyph unicode="&#xb3;" horiz-adv-x="745" d="M188 872h78q-8 -78 38 -126t132 -48q92 0 145.5 52.5t53.5 126.5q0 66 -42 105.5t-122 39.5h-65l6 63h65q88 0 136.5 46.5t48.5 115.5q0 63 -40 99t-114 36q-84 0 -133 -44t-58 -115h-77q10 98 82.5 160.5t189.5 62.5q100 0 163.5 -50t63.5 -143q0 -78 -47 -132t-119 -68 q66 -12 103 -59.5t37 -119.5q0 -53 -22.5 -98t-60.5 -76.5t-90.5 -49t-111.5 -17.5q-121 0 -185.5 65.5t-54.5 173.5z" />
<glyph unicode="&#xb4;" horiz-adv-x="692" d="M170 1200l539 281l34 -72l-540 -281z" />
<glyph unicode="&#xb5;" d="M121 -551l151 1434h84l-51 -492q-8 -72 3 -132t42 -104t82 -70t125 -26q86 0 154.5 35t117 88.5t77 120t34.5 131.5l47 449h86l-94 -883h-86l25 229q-23 -49 -61 -95t-87 -80t-109.5 -54t-130.5 -20q-184 0 -254 139l-69 -670h-86z" />
<glyph unicode="&#xb6;" horiz-adv-x="1275" d="M139 1034q0 141 60.5 227.5t147.5 132.5t182.5 60t164.5 14h602l-8 -75h-108l-179 -1696h-83l178 1694h-394l-178 -1694h-84l103 977q-88 0 -162 20.5t-128 63.5t-84 111.5t-30 164.5z" />
<glyph unicode="&#xb7;" horiz-adv-x="415" d="M176 631q0 47 32 78.5t77 31.5q41 0 66.5 -26.5t25.5 -65.5q0 -47 -34 -77.5t-77 -30.5q-41 0 -65.5 25.5t-24.5 64.5z" />
<glyph unicode="&#xb8;" horiz-adv-x="665" d="M137 -295h64q-4 -53 26.5 -89t87.5 -36q66 0 105 43t39 101q0 49 -30 82.5t-87 33.5q-27 0 -59.5 -14t-63.5 -68h-57l26 242h66l-18 -172q20 35 55 51.5t74 16.5q68 0 113.5 -47.5t45.5 -118.5q0 -41 -15 -79t-43 -66.5t-67 -46t-86 -17.5q-80 0 -130 50t-46 134z" />
<glyph unicode="&#xb9;" horiz-adv-x="489" d="M229 1241l7 59q51 0 84.5 7.5t53 24t28 42t12.5 60.5h71l-84 -789h-79l63 596h-156z" />
<glyph unicode="&#xba;" horiz-adv-x="1112" d="M137 397q0 100 38 192.5t105.5 162t162 110.5t204.5 41q98 0 177 -33.5t133.5 -90t83 -133.5t28.5 -163q0 -100 -38 -191t-106.5 -161t-162.5 -110.5t-207 -40.5q-100 0 -178 33.5t-131 90t-81 132t-28 161.5zM223 403q0 -70 22.5 -132t65.5 -108t106.5 -74t145.5 -28 q90 0 167 34t133.5 90.5t88 132t31.5 159.5q0 70 -23.5 133.5t-67.5 109.5t-107.5 73.5t-143.5 27.5q-92 0 -169 -33.5t-132 -92t-86 -134.5t-31 -158z" />
<glyph unicode="&#xbb;" horiz-adv-x="966" d="M104 211l11 94l356 291l-295 291l10 96l363 -354l-6 -64zM506 211l10 94l356 291l-294 291l10 96l362 -354l-6 -64z" />
<glyph unicode="&#xbc;" horiz-adv-x="1740" d="M274 1241l7 59q51 0 84.5 7.5t53 24t28 42t12.5 60.5h71l-84 -789h-79l63 596h-156zM301 -4l1057 1542l67 -41l-1058 -1542zM1110 272l55 516h78l-47 -446h231l27 248h78l-27 -248h129l-8 -70h-129l-29 -272h-77l28 272h-309z" />
<glyph unicode="&#xbd;" horiz-adv-x="1740" d="M279 1241l6 59q51 0 84.5 7.5t53 24t28 42t12.5 60.5h72l-84 -789h-80l63 596h-155zM305 -4l1057 1542l68 -41l-1059 -1542zM1085 0q10 100 34 164.5t58.5 105.5t81 66.5t105.5 50.5q39 16 76 33.5t66.5 40t48 54.5t18.5 79q0 66 -39 104.5t-113 38.5q-86 0 -138 -50 t-60 -134h-78q10 106 86 177t199 71q100 0 160.5 -53.5t60.5 -151.5q0 -59 -21.5 -100t-56.5 -71t-78 -50.5t-86 -38.5q-51 -23 -91 -42.5t-68.5 -49t-46 -71.5t-23.5 -107h419l-8 -66h-506z" />
<glyph unicode="&#xbe;" horiz-adv-x="1740" d="M164 872h78q-8 -78 38 -126t132 -48q92 0 145 52.5t53 126.5q0 66 -42 105.5t-122 39.5h-65l6 63h66q88 0 136 46.5t48 115.5q0 63 -40 99t-114 36q-84 0 -133 -44t-57 -115h-78q10 98 83 160.5t189 62.5q100 0 164 -50t64 -143q0 -78 -47 -132t-119 -68 q66 -12 102.5 -59.5t36.5 -119.5q0 -53 -22.5 -98t-60.5 -76.5t-90 -49t-112 -17.5q-121 0 -185 65.5t-54 173.5zM367 -4l1058 1542l66 -41l-1059 -1542zM1178 272l53 516h78l-47 -446h231l27 248h77l-26 -248h129l-6 -70h-129l-29 -272h-78l29 272h-309z" />
<glyph unicode="&#xbf;" horiz-adv-x="1001" d="M113 328q0 86 26.5 149.5t67.5 109.5t89 78.5t91 57.5q49 29 89 55.5t68.5 62.5t47 87t26.5 129h89q-10 -84 -32 -143.5t-53.5 -102.5t-75.5 -74.5t-97 -62.5q-29 -16 -71 -42t-81 -66t-66.5 -97t-27.5 -137q0 -129 77.5 -197.5t219.5 -68.5q90 0 162.5 27.5t126 75.5 t86 114.5t40.5 146.5h89q-10 -98 -51.5 -180t-108 -141.5t-155.5 -93t-197 -33.5q-176 0 -277.5 90t-101.5 256zM590 1346q0 47 32.5 78.5t79.5 31.5q41 0 67 -26.5t26 -67.5q0 -47 -33 -79t-80 -32q-41 0 -66.5 27t-25.5 68z" />
<glyph unicode="&#xc0;" horiz-adv-x="1093" d="M16 0l646 1434h73l340 -1434h-94l-70 295h-669l-131 -295h-95zM279 379h612l-207 919zM473 1817l49 71l482 -280l-50 -72z" />
<glyph unicode="&#xc1;" horiz-adv-x="1093" d="M16 0l646 1434h73l340 -1434h-94l-70 295h-669l-131 -295h-95zM279 379h612l-207 919zM438 1595l539 281l37 -72l-541 -280z" />
<glyph unicode="&#xc2;" horiz-adv-x="1093" d="M16 0l646 1434h73l340 -1434h-94l-70 295h-669l-131 -295h-95zM279 379h612l-207 919zM346 1604l399 297l338 -297l-59 -64l-289 254l-340 -254z" />
<glyph unicode="&#xc3;" horiz-adv-x="1093" d="M16 0l646 1434h73l340 -1434h-94l-70 295h-669l-131 -295h-95zM279 379h612l-207 919zM375 1679q47 29 82 44.5t59.5 23.5t43 9t34.5 1q23 0 61.5 -8t80.5 -19.5t83 -19.5t70 -8q10 0 22.5 2t29.5 8t43 16.5t63 28.5l30 -63q-41 -23 -70.5 -36t-52 -20.5t-40 -9.5 t-31.5 -2q-39 0 -76 8t-74 19.5t-71.5 19.5t-71.5 8q-25 0 -64 -10t-116 -55z" />
<glyph unicode="&#xc4;" horiz-adv-x="1093" d="M16 0l646 1434h73l340 -1434h-94l-70 295h-669l-131 -295h-95zM279 379h612l-207 919zM387 1669q0 47 32 79t77 32q41 0 66.5 -27t25.5 -65q0 -47 -34 -78t-77 -31q-41 0 -65.5 25.5t-24.5 64.5zM858 1669q0 47 33 79t78 32q41 0 65.5 -27t24.5 -65q0 -47 -33 -78 t-78 -31q-41 0 -65.5 25.5t-24.5 64.5z" />
<glyph unicode="&#xc5;" horiz-adv-x="1093" d="M16 0l646 1434h73l340 -1434h-94l-70 295h-669l-131 -295h-95zM279 379h612l-207 919zM477 1726q0 55 23.5 104.5t61.5 87.5t88.5 59.5t105.5 21.5q49 0 91 -18.5t72.5 -49t47 -72.5t16.5 -90q0 -55 -22.5 -105t-61.5 -87t-88 -59.5t-104 -22.5q-49 0 -91.5 18.5t-73 50 t-48 73.5t-17.5 89zM547 1733q0 -70 46 -118t118 -48q39 0 75.5 15t64.5 43t44 62.5t16 75.5q0 68 -45.5 117t-117.5 49q-39 0 -76 -15.5t-64.5 -43t-44 -63t-16.5 -74.5z" />
<glyph unicode="&#xc6;" horiz-adv-x="1695" d="M6 0l879 1434h790l-10 -84h-668l-61 -596h668l-11 -82h-667l-62 -588h668l-8 -84h-758l31 295h-514l-179 -295h-98zM334 379h471l98 934z" />
<glyph unicode="&#xc7;" horiz-adv-x="1585" d="M166 647q0 156 56.5 302.5t161.5 260t256 183t341 69.5q135 0 243.5 -35.5t187.5 -101t127 -156t60 -198.5h-94q-12 92 -55 166.5t-110.5 129t-160 83t-204.5 28.5q-168 0 -301 -61.5t-226.5 -161.5t-142.5 -230t-49 -268q0 -123 40 -232.5t115.5 -191t185.5 -130 t249 -48.5q106 0 200.5 28t170 76t133 110.5t92.5 133.5h98q-41 -92 -109.5 -169.5t-157.5 -136t-197.5 -91.5t-227.5 -33h-47l-13 -114q18 27 49 42t72 15q72 0 115 -45t43 -115q0 -39 -14.5 -75.5t-42 -65.5t-65.5 -46.5t-83 -17.5q-72 0 -121 42t-49 120h64 q4 -45 30.5 -73.5t77.5 -28.5q61 0 100.5 40t39.5 99q0 47 -29 79t-86 32q-29 0 -59.5 -13.5t-55.5 -58.5h-57l18 188q-139 16 -244.5 76t-178 150t-109.5 203.5t-37 240.5z" />
<glyph unicode="&#xc8;" horiz-adv-x="1107" d="M180 0l152 1434h758l-11 -84h-667l-62 -596h668l-10 -82h-668l-61 -588h667l-8 -84h-758zM494 1806l49 70l481 -281l-51 -69z" />
<glyph unicode="&#xc9;" horiz-adv-x="1107" d="M180 0l152 1434h758l-11 -84h-667l-62 -596h668l-10 -82h-668l-61 -588h667l-8 -84h-758zM479 1608l539 280l33 -71l-539 -281z" />
<glyph unicode="&#xca;" horiz-adv-x="1107" d="M180 0l152 1434h758l-11 -84h-667l-62 -596h668l-10 -82h-668l-61 -588h667l-8 -84h-758zM358 1604l400 297l338 -297l-60 -64l-288 254l-340 -254z" />
<glyph unicode="&#xcb;" horiz-adv-x="1107" d="M180 0l152 1434h758l-11 -84h-667l-62 -596h668l-10 -82h-668l-61 -588h667l-8 -84h-758zM403 1669q0 47 32 79t79 32q41 0 65.5 -27t24.5 -65q0 -47 -32.5 -78t-77.5 -31q-41 0 -66 25.5t-25 64.5zM877 1669q0 47 31.5 79t76.5 32q41 0 66.5 -27t25.5 -65 q0 -47 -33.5 -78t-76.5 -31q-41 0 -65.5 25.5t-24.5 64.5z" />
<glyph unicode="&#xcc;" horiz-adv-x="452" d="M141 1804l49 72l482 -281l-49 -71zM180 0l152 1434h92l-152 -1434h-92z" />
<glyph unicode="&#xcd;" horiz-adv-x="452" d="M119 1597l538 281l37 -72l-542 -280zM180 0l152 1434h92l-152 -1434h-92z" />
<glyph unicode="&#xce;" horiz-adv-x="452" d="M25 1604l399 297l340 -297l-59 -64l-289 254l-342 -254zM180 0l150 1434h92l-150 -1434h-92z" />
<glyph unicode="&#xcf;" horiz-adv-x="452" d="M72 1669q0 47 31.5 79t78.5 32q41 0 65.5 -27t24.5 -65q0 -47 -31.5 -78t-78.5 -31q-41 0 -65.5 25.5t-24.5 64.5zM180 0l152 1434h92l-152 -1434h-92zM545 1669q0 47 31.5 79t76.5 32q41 0 66.5 -27t25.5 -65q0 -47 -33.5 -78t-76.5 -31q-41 0 -65.5 25.5t-24.5 64.5z " />
<glyph unicode="&#xd0;" horiz-adv-x="1413" d="M31 678l8 80h221l72 676h395q166 0 291 -55.5t210 -145.5t128 -208t43 -243q0 -145 -57.5 -285.5t-164 -251t-259 -178t-343.5 -67.5h-395l72 678h-221zM281 84h305q168 0 301 59.5t227 156.5t144.5 221t50.5 253q0 111 -38 215.5t-113 184t-185.5 128t-255.5 48.5h-305 l-62 -592h232l-9 -80h-231z" />
<glyph unicode="&#xd1;" horiz-adv-x="1351" d="M180 0l152 1434h102l666 -1282l135 1282h88l-152 -1434h-100l-665 1282l-136 -1282h-90zM498 1679q47 29 81.5 44.5t59.5 23.5t43 9t35 1q23 0 61.5 -8t80.5 -19.5t83 -19.5t70 -8q10 0 22.5 2t29.5 8t43 16.5t62 28.5l31 -63q-41 -23 -70.5 -36t-52 -20.5t-40 -9.5 t-31.5 -2q-39 0 -76 8t-74 19.5t-71.5 19.5t-71.5 8q-25 0 -64 -10t-117 -55z" />
<glyph unicode="&#xd2;" horiz-adv-x="1656" d="M166 645q0 156 58.5 303.5t166 262t256 183t330.5 68.5q162 0 287 -55t208.5 -148.5t128 -215t44.5 -252.5q0 -158 -59.5 -305.5t-166 -261t-257.5 -183.5t-331 -70q-162 0 -285.5 55.5t-208.5 149.5t-128 215t-43 254zM258 653q0 -117 38 -225.5t111.5 -191t183.5 -132 t251 -49.5q158 0 289 61.5t224 163t144 232.5t51 270q0 117 -37.5 225.5t-110.5 190.5t-181.5 131t-249.5 49q-160 0 -291 -61.5t-224.5 -162.5t-145.5 -231t-52 -270zM754 1817l47 71l481 -280l-49 -72z" />
<glyph unicode="&#xd3;" horiz-adv-x="1656" d="M166 645q0 156 58.5 303.5t166 262t256 183t330.5 68.5q162 0 287 -55t208.5 -148.5t128 -215t44.5 -252.5q0 -158 -59.5 -305.5t-166 -261t-257.5 -183.5t-331 -70q-162 0 -285.5 55.5t-208.5 149.5t-128 215t-43 254zM258 653q0 -117 38 -225.5t111.5 -191t183.5 -132 t251 -49.5q158 0 289 61.5t224 163t144 232.5t51 270q0 117 -37.5 225.5t-110.5 190.5t-181.5 131t-249.5 49q-160 0 -291 -61.5t-224.5 -162.5t-145.5 -231t-52 -270zM711 1608l538 280l37 -71l-541 -281z" />
<glyph unicode="&#xd4;" horiz-adv-x="1656" d="M166 645q0 156 58.5 303.5t166 262t256 183t330.5 68.5q162 0 287 -55t208.5 -148.5t128 -215t44.5 -252.5q0 -158 -59.5 -305.5t-166 -261t-257.5 -183.5t-331 -70q-162 0 -285.5 55.5t-208.5 149.5t-128 215t-43 254zM258 653q0 -117 38 -225.5t111.5 -191t183.5 -132 t251 -49.5q158 0 289 61.5t224 163t144 232.5t51 270q0 117 -37.5 225.5t-110.5 190.5t-181.5 131t-249.5 49q-160 0 -291 -61.5t-224.5 -162.5t-145.5 -231t-52 -270zM631 1604l399 297l338 -297l-61 -64l-289 254l-340 -254z" />
<glyph unicode="&#xd5;" horiz-adv-x="1656" d="M166 645q0 156 58.5 303.5t166 262t256 183t330.5 68.5q162 0 287 -55t208.5 -148.5t128 -215t44.5 -252.5q0 -158 -59.5 -305.5t-166 -261t-257.5 -183.5t-331 -70q-162 0 -285.5 55.5t-208.5 149.5t-128 215t-43 254zM258 653q0 -117 38 -225.5t111.5 -191t183.5 -132 t251 -49.5q158 0 289 61.5t224 163t144 232.5t51 270q0 117 -37.5 225.5t-110.5 190.5t-181.5 131t-249.5 49q-160 0 -291 -61.5t-224.5 -162.5t-145.5 -231t-52 -270zM655 1679q47 29 81 44.5t59.5 23.5t44 9t34.5 1q23 0 62 -8t81 -19.5t83 -19.5t69 -8q10 0 22.5 2t29 8 t42 16.5t64.5 28.5l29 -63q-41 -23 -71 -36t-51.5 -20.5t-38.5 -9.5t-32 -2q-39 0 -75.5 8t-73.5 19.5t-72 19.5t-72 8q-25 0 -64.5 -10t-117.5 -55z" />
<glyph unicode="&#xd6;" horiz-adv-x="1656" d="M166 645q0 156 58.5 303.5t166 262t256 183t330.5 68.5q162 0 287 -55t208.5 -148.5t128 -215t44.5 -252.5q0 -158 -59.5 -305.5t-166 -261t-257.5 -183.5t-331 -70q-162 0 -285.5 55.5t-208.5 149.5t-128 215t-43 254zM258 653q0 -117 38 -225.5t111.5 -191t183 -132 t251.5 -49.5q158 0 289 61.5t224 163t144 232.5t51 270q0 117 -37.5 225.5t-110.5 190.5t-181.5 131t-249.5 49q-160 0 -291 -61.5t-224.5 -162.5t-145.5 -231.5t-52 -269.5zM668 1669q0 47 32.5 79t79.5 32q41 0 65.5 -27t24.5 -65q0 -47 -32.5 -78t-79.5 -31 q-41 0 -65.5 25.5t-24.5 64.5zM1141 1669q0 47 32.5 79t77.5 32q41 0 66.5 -27t25.5 -65q0 -47 -33.5 -78t-78.5 -31q-41 0 -65.5 25.5t-24.5 64.5z" />
<glyph unicode="&#xd7;" d="M291 322l291 264l-234 262l62 57l235 -262l291 264l55 -61l-295 -264l238 -263l-64 -57l-235 262l-291 -264z" />
<glyph unicode="&#xd8;" horiz-adv-x="1656" d="M166 645q0 156 58.5 303.5t166 262t258 183t334.5 68.5q133 0 236 -39l79 150l76 -33l-78 -147q86 -41 150.5 -105.5t108.5 -144.5t67 -171t23 -186q0 -156 -59.5 -302t-167 -259.5t-258.5 -183.5t-335 -70q-145 0 -264 47l-78 -151l-77 33l81 153q-80 43 -139 106.5 t-100 141.5t-61.5 165t-20.5 179zM258 655q0 -80 17.5 -156.5t52 -144t85 -124t117.5 -95.5l648 1213q-90 31 -203 30q-162 0 -294 -61.5t-226.5 -161.5t-145.5 -231.5t-51 -268.5zM602 98q101 -43 232 -43q162 0 294 61.5t226 163t145 231.5t51 267q0 84 -19.5 164 t-57 149.5t-93 126t-127.5 93.5z" />
<glyph unicode="&#xd9;" horiz-adv-x="1241" d="M201 434l104 1000h88l-104 -1000q-8 -78 11 -146.5t62.5 -119.5t110 -82t152.5 -31q88 0 160.5 32t128 84t88 120.5t40.5 142.5l105 1000h90l-104 -1000q-10 -94 -52.5 -178t-110 -147.5t-157.5 -100.5t-197 -37q-106 0 -188 37t-136 100.5t-78 147.5t-13 178zM543 1817 l49 71l481 -280l-51 -72z" />
<glyph unicode="&#xda;" horiz-adv-x="1241" d="M201 434l104 1000h88l-104 -1000q-8 -78 11 -146.5t62.5 -119.5t110 -82t152.5 -31q88 0 160.5 32t128 84t88 120.5t40.5 142.5l105 1000h90l-104 -1000q-10 -94 -52.5 -178t-110 -147.5t-157.5 -100.5t-197 -37q-106 0 -188 37t-136 100.5t-78 147.5t-13 178zM500 1608 l538 280l37 -71l-540 -281z" />
<glyph unicode="&#xdb;" horiz-adv-x="1241" d="M201 434l104 1000h88l-104 -1000q-8 -78 11 -146.5t62.5 -119.5t110 -82t152.5 -31q88 0 160.5 32t128 84t88 120.5t40.5 142.5l105 1000h90l-104 -1000q-10 -94 -52.5 -178t-110 -147.5t-157.5 -100.5t-197 -37q-106 0 -188 37t-136 100.5t-78 147.5t-13 178zM418 1606 l397 297l340 -297l-59 -64l-289 252l-340 -252z" />
<glyph unicode="&#xdc;" horiz-adv-x="1241" d="M201 434l104 1000h88l-104 -1000q-8 -78 11 -146.5t62.5 -119.5t110 -82t152.5 -31q88 0 160.5 32t128 84t88 120.5t40.5 142.5l105 1000h90l-104 -1000q-10 -94 -52.5 -178t-110 -147.5t-157.5 -100.5t-197 -37q-106 0 -188 37t-136 100.5t-78 147.5t-13 178zM457 1669 q0 47 32.5 79t79.5 32q41 0 65.5 -27t24.5 -65q0 -47 -32.5 -78t-77.5 -31q-41 0 -66.5 25.5t-25.5 64.5zM930 1669q0 47 32.5 79t77.5 32q41 0 67 -27t26 -65q0 -47 -34 -78t-79 -31q-41 0 -65.5 25.5t-24.5 64.5z" />
<glyph unicode="&#xdd;" horiz-adv-x="1118" d="M166 1434h106l412 -779l485 779h99l-893 -1434h-101l353 563zM508 1577l541 281l34 -72l-538 -281z" />
<glyph unicode="&#xde;" horiz-adv-x="1017" d="M180 0l152 1434h84l-31 -277h229q98 0 176 -32.5t132.5 -88t82 -130.5t27.5 -158q0 -96 -37 -185.5t-104.5 -157t-161.5 -107.5t-209 -40h-229l-27 -258h-84zM299 334h229q94 0 171 33.5t132.5 90t85 130.5t29.5 153q0 70 -22.5 131.5t-65.5 107.5t-106.5 73.5 t-145.5 27.5h-229z" />
<glyph unicode="&#xdf;" horiz-adv-x="1136" d="M156 0l112 1069q8 86 45 158.5t95.5 124t138.5 80t178 28.5q180 0 283.5 -94t103.5 -248q0 -70 -22.5 -133t-64.5 -114.5t-104.5 -85t-142.5 -44.5q141 -25 217 -114.5t76 -223.5q0 -96 -39 -174.5t-106.5 -135t-158.5 -88.5t-196 -32q-104 0 -174 27l9 82 q37 -14 81.5 -20.5t87.5 -6.5q88 0 163 25.5t129.5 71t85 108t30.5 137.5q0 63 -22.5 118.5t-66.5 96.5t-106.5 64.5t-142.5 23.5h-104l8 80h102q88 0 158 27t117 71t72.5 104t25.5 128q0 123 -80 196.5t-227 73.5q-162 0 -255 -88t-108 -223l-112 -1069h-86z" />
<glyph unicode="&#xe0;" horiz-adv-x="1200" d="M137 397q0 100 38 192.5t105.5 162t161 110.5t201.5 41q141 0 233.5 -67.5t124.5 -178.5l25 226h86l-92 -883h-86l22 225q-55 -111 -161.5 -178t-247.5 -67q-96 0 -172 33.5t-128 90t-81 132t-29 161.5zM223 403q0 -70 22.5 -132t65.5 -108t106.5 -74t145.5 -28 q90 0 167 34t132.5 90.5t87 132t31.5 159.5q0 70 -22.5 133.5t-66.5 109.5t-107.5 73.5t-143.5 27.5q-92 0 -169 -33.5t-132 -92t-86 -134.5t-31 -158zM420 1341l49 70l481 -281l-51 -69z" />
<glyph unicode="&#xe1;" horiz-adv-x="1200" d="M137 397q0 100 38 192.5t105.5 162t161 110.5t201.5 41q141 0 233.5 -67.5t124.5 -178.5l25 226h86l-92 -883h-86l22 225q-55 -111 -161.5 -178t-247.5 -67q-96 0 -172 33.5t-128 90t-81 132t-29 161.5zM223 403q0 -70 22.5 -132t65.5 -108t106.5 -74t145.5 -28 q90 0 167 34t132.5 90.5t87 132t31.5 159.5q0 70 -22.5 133.5t-66.5 109.5t-107.5 73.5t-143.5 27.5q-92 0 -169 -33.5t-132 -92t-86 -134.5t-31 -158zM381 1130l539 281l36 -70l-540 -280z" />
<glyph unicode="&#xe2;" horiz-adv-x="1200" d="M137 397q0 100 38 192.5t105.5 162t161 110.5t201.5 41q141 0 233.5 -67.5t124.5 -178.5l25 226h86l-92 -883h-86l22 225q-55 -111 -161.5 -178t-247.5 -67q-96 0 -172 33.5t-128 90t-81 132t-29 161.5zM223 403q0 -70 22.5 -132t65.5 -108t106.5 -74t145.5 -28 q90 0 167 34t132.5 90.5t87 132t31.5 159.5q0 70 -22.5 133.5t-66.5 109.5t-107.5 73.5t-143.5 27.5q-92 0 -169 -33.5t-132 -92t-86 -134.5t-31 -158zM311 1167l400 297l338 -297l-62 -63l-289 252l-340 -252z" />
<glyph unicode="&#xe3;" horiz-adv-x="1200" d="M137 397q0 100 38 192.5t105.5 162t161 110.5t201.5 41q141 0 233.5 -67.5t124.5 -178.5l25 226h86l-92 -883h-86l22 225q-55 -111 -161.5 -178t-247.5 -67q-96 0 -172 33.5t-128 90t-81 132t-29 161.5zM223 403q0 -70 22.5 -132t65.5 -108t106.5 -74t145.5 -28 q90 0 167 34t132.5 90.5t87 132t31.5 159.5q0 70 -22.5 133.5t-66.5 109.5t-107.5 73.5t-143.5 27.5q-92 0 -169 -33.5t-132 -92t-86 -134.5t-31 -158zM350 1286q47 29 82 44.5t59.5 23.5t43 9t34.5 1q23 0 62 -8t81 -19.5t83 -19.5t69 -8q10 0 22.5 2t29 8t42 16.5 t64.5 28.5l29 -61q-41 -23 -71 -36.5t-52.5 -20.5t-38 -9t-29.5 -2q-41 0 -79 8t-73.5 18.5t-72.5 18.5t-76 8q-23 0 -60.5 -9t-113.5 -54z" />
<glyph unicode="&#xe4;" horiz-adv-x="1200" d="M137 397q0 100 38 192.5t105.5 162t161 110.5t201.5 41q141 0 233.5 -67.5t124.5 -178.5l25 226h86l-92 -883h-86l22 225q-55 -111 -161.5 -178t-247.5 -67q-96 0 -172 33.5t-128 90t-81 132t-29 161.5zM223 403q0 -70 22.5 -132t65.5 -108t106.5 -74t145.5 -28 q90 0 167 34t132.5 90.5t87 132t31.5 159.5q0 70 -22.5 133.5t-66.5 109.5t-107.5 73.5t-143.5 27.5q-92 0 -169 -33.5t-132 -92t-86 -134.5t-31 -158zM346 1221q0 47 32 78.5t77 31.5q41 0 66.5 -26.5t25.5 -65.5q0 -47 -34 -78t-77 -31q-41 0 -65.5 26t-24.5 65zM817 1221 q0 47 32 78.5t79 31.5q41 0 65.5 -26.5t24.5 -65.5q0 -47 -32 -78t-79 -31q-41 0 -65.5 26t-24.5 65z" />
<glyph unicode="&#xe5;" horiz-adv-x="1200" d="M137 397q0 100 38 192.5t105.5 162t161 110.5t201.5 41q141 0 233.5 -67.5t124.5 -178.5l25 226h86l-92 -883h-86l22 225q-55 -111 -161.5 -178t-247.5 -67q-96 0 -172 33.5t-128 90t-81 132t-29 161.5zM223 403q0 -70 22.5 -132t65.5 -108t106.5 -74t145.5 -28 q90 0 167 34t132.5 90.5t87 132t31.5 159.5q0 70 -22.5 133.5t-66.5 109.5t-107.5 73.5t-143.5 27.5q-92 0 -169 -33.5t-132 -92t-86 -134.5t-31 -158zM432 1243q0 55 23.5 104.5t61.5 87.5t88.5 59.5t105.5 21.5q49 0 91 -18.5t71.5 -49.5t47 -73t17.5 -89 q0 -55 -22.5 -105.5t-61.5 -87t-88 -59t-104 -22.5q-49 0 -91.5 18.5t-73 50t-48 73.5t-17.5 89zM504 1247q0 -68 46 -116t118 -48q39 0 74.5 15.5t63.5 43t44 62.5t16 76q0 68 -44.5 117t-116.5 49q-39 0 -76 -15.5t-64.5 -43t-44 -63.5t-16.5 -77z" />
<glyph unicode="&#xe6;" horiz-adv-x="1882" d="M137 397q0 100 38 192.5t105.5 162t161 110.5t201.5 41q141 0 233.5 -67.5t124.5 -178.5l25 226h86l-18 -172q57 86 149 139t211 53q82 0 151.5 -27.5t119 -76.5t77 -117t27.5 -147q0 -33 -4 -55.5t-10 -47.5h-750q-8 -80 8.5 -148.5t54 -118.5t100 -79t146.5 -29 q127 0 207 56.5t115 134.5h88q-18 -53 -55 -102.5t-90.5 -86t-121 -58t-147.5 -21.5q-131 0 -213 55t-119 141l-18 -176h-86l22 225q-55 -111 -161.5 -178t-247.5 -67q-96 0 -172 33.5t-128 90t-81 132t-29 161.5zM223 403q0 -70 22.5 -132t66.5 -108t107.5 -74t145.5 -28 q92 0 168 34t131.5 91.5t86 132t30.5 158.5q0 72 -23.5 134.5t-67.5 109.5t-107.5 73.5t-143.5 26.5q-90 0 -166 -33.5t-131 -91t-87 -133.5t-32 -160zM1075 506h666q6 72 -12.5 130t-57.5 100t-97 65.5t-128 23.5q-139 0 -241.5 -85t-129.5 -234z" />
<glyph unicode="&#xe7;" horiz-adv-x="1062" d="M145 393q0 96 32 187.5t95.5 163t156.5 115.5t214 44q102 0 173 -30.5t115 -80t62.5 -109.5t18.5 -122h-88q0 53 -17.5 101.5t-53.5 84t-91 56t-129 20.5q-98 0 -174 -35.5t-126 -96t-76 -136.5t-26 -156q0 -70 19.5 -131t59.5 -107t102.5 -73t146.5 -27q72 0 128 19.5 t99 52.5t71 77t42 93h88q-35 -145 -150.5 -234t-281.5 -89q-20 0 -27.5 1t-17.5 1l-16 -154q20 35 56 51.5t75 16.5q66 0 111.5 -47.5t45.5 -118.5q0 -41 -15 -79t-43 -66.5t-67 -46t-86 -17.5q-72 0 -126 45t-50 139h64q-4 -53 26.5 -89t87.5 -36q63 0 103.5 42t40.5 102 q0 47 -30 81.5t-89 34.5q-27 0 -58.5 -14t-62.5 -68h-57l24 232q-78 14 -134 53t-93 93t-54.5 120t-17.5 137z" />
<glyph unicode="&#xe8;" horiz-adv-x="1050" d="M145 397q0 106 35 198.5t96.5 161t148.5 107.5t191 39q86 0 157 -26.5t120 -75.5t76.5 -117t27.5 -147q0 -33 -4 -56.5t-10 -48.5h-747q-8 -74 6 -142.5t52 -119.5t100.5 -82t150.5 -31q63 0 115.5 16.5t92.5 43t67.5 60.5t43.5 71h90q-18 -51 -54 -99.5t-89 -86 t-121.5 -60t-152.5 -22.5q-100 0 -174 33.5t-122 91t-72 133t-24 159.5zM246 506h663q6 72 -12 130t-58 100t-97.5 65.5t-127.5 23.5q-68 0 -129 -21.5t-110 -63.5t-83 -101t-46 -133zM406 1341l49 70l481 -281l-51 -69z" />
<glyph unicode="&#xe9;" horiz-adv-x="1050" d="M145 397q0 106 35 198.5t96.5 161t148.5 107.5t191 39q86 0 157 -26.5t120 -75.5t76.5 -117t27.5 -147q0 -33 -4 -56.5t-10 -48.5h-747q-8 -74 6 -142.5t52 -119.5t100.5 -82t150.5 -31q63 0 115.5 16.5t92.5 43t67.5 60.5t43.5 71h90q-18 -51 -54 -99.5t-89 -86 t-121.5 -60t-152.5 -22.5q-100 0 -174 33.5t-122 91t-72 133t-24 159.5zM246 506h663q6 72 -12 130t-58 100t-97.5 65.5t-127.5 23.5q-68 0 -129 -21.5t-110 -63.5t-83 -101t-46 -133zM352 1130l539 281l35 -70l-541 -280z" />
<glyph unicode="&#xea;" horiz-adv-x="1050" d="M145 397q0 106 35 198.5t96.5 161t148.5 107.5t191 39q86 0 157 -26.5t120 -75.5t76.5 -117t27.5 -147q0 -33 -4 -56.5t-10 -48.5h-747q-8 -74 6 -142.5t52 -119.5t100.5 -82t150.5 -31q63 0 115.5 16.5t92.5 43t67.5 60.5t43.5 71h90q-18 -51 -54 -99.5t-89 -86 t-121.5 -60t-152.5 -22.5q-100 0 -174 33.5t-122 91t-72 133t-24 159.5zM246 506h663q6 72 -12 130t-58 100t-97.5 65.5t-127.5 23.5q-68 0 -129 -21.5t-110 -63.5t-83 -101t-46 -133zM285 1167l399 297l338 -297l-61 -63l-289 252l-340 -252z" />
<glyph unicode="&#xeb;" horiz-adv-x="1050" d="M145 397q0 106 35 198.5t96.5 161t148.5 107.5t191 39q86 0 157 -26.5t120 -75.5t76.5 -117t27.5 -147q0 -33 -4 -56.5t-10 -48.5h-747q-8 -74 6 -142.5t52 -119.5t100.5 -82t150.5 -31q63 0 115.5 16.5t92.5 43t67.5 60.5t43.5 71h90q-18 -51 -54 -99.5t-89 -86 t-121.5 -60t-152.5 -22.5q-100 0 -174 33.5t-122 91t-72 133t-24 159.5zM246 506h663q6 72 -12 130t-58 100t-97.5 65.5t-127.5 23.5q-68 0 -129 -21.5t-110 -63.5t-83 -101t-46 -133zM324 1221q0 47 32.5 77.5t77.5 30.5q41 0 66.5 -25.5t25.5 -66.5q0 -47 -32.5 -78 t-77.5 -31q-41 0 -66.5 26t-25.5 67zM795 1221q0 47 33.5 77.5t76.5 30.5q41 0 66.5 -25.5t25.5 -66.5q0 -47 -33.5 -78t-76.5 -31q-41 0 -66.5 26t-25.5 67z" />
<glyph unicode="&#xec;" horiz-adv-x="468" d="M100 1352l52 71l479 -280l-49 -72zM193 0l92 883h86l-92 -883h-86z" />
<glyph unicode="&#xed;" horiz-adv-x="468" d="M80 1141l538 280l37 -69l-540 -281zM190 0l95 883h86l-95 -883h-86z" />
<glyph unicode="&#xee;" horiz-adv-x="468" d="M-10 1167l399 297l338 -297l-59 -63l-289 252l-340 -252zM193 0l92 883h86l-92 -883h-86z" />
<glyph unicode="&#xef;" horiz-adv-x="468" d="M27 1221q0 47 31.5 78.5t78.5 31.5q41 0 66.5 -26.5t25.5 -65.5q0 -47 -32.5 -78t-79.5 -31q-41 0 -65.5 26t-24.5 65zM186 0l93 883h86l-93 -883h-86zM500 1221q0 47 31.5 78.5t78.5 31.5q41 0 65.5 -26.5t24.5 -65.5q0 -47 -32.5 -78t-77.5 -31q-41 0 -65.5 26 t-24.5 65z" />
<glyph unicode="&#xf0;" horiz-adv-x="1150" d="M156 397q0 100 38.5 192.5t106.5 162t160 110.5t201 41q66 0 120 -17.5t84 -51.5l-143 274l-291 -150l-26 70l280 146l-133 260h104l111 -217l190 98l29 -70l-184 -96l205 -391q37 -70 58 -134.5t21 -140.5q0 -100 -37.5 -191t-105 -161t-161.5 -110.5t-205 -40.5 q-100 0 -178 33.5t-132.5 90t-83 132t-28.5 161.5zM242 403q0 -70 22.5 -132t66.5 -108t108.5 -74t146.5 -28q92 0 167.5 34t131 91.5t86 132t30.5 158.5q0 70 -22.5 133.5t-66.5 109.5t-107.5 73.5t-142.5 27.5q-90 0 -167 -33.5t-133.5 -91t-88 -133.5t-31.5 -160z" />
<glyph unicode="&#xf1;" horiz-adv-x="1142" d="M180 0l92 883h86l-22 -230q23 49 59.5 95.5t85.5 80t110.5 54t133.5 20.5q86 0 148.5 -28.5t103.5 -77.5q41 -53 54 -123t3 -160l-53 -514h-86l51 492q8 70 -3 131t-42 105t-82 69.5t-125 25.5q-86 0 -154.5 -34.5t-115.5 -88t-76 -121t-35 -130.5l-47 -449h-86z M381 1286q47 29 82 44.5t59.5 23.5t43 9t34.5 1q23 0 61.5 -8t80.5 -19.5t83 -19.5t70 -8q10 0 22.5 2t30 8t43 16.5t62.5 28.5l30 -61q-41 -23 -71.5 -36.5t-52 -20.5t-38 -9t-30.5 -2q-41 0 -78 8t-74 18.5t-72.5 18.5t-74.5 8q-23 0 -60.5 -9t-115.5 -54z" />
<glyph unicode="&#xf2;" horiz-adv-x="1112" d="M137 397q0 100 38 192.5t105.5 162t162 110.5t204.5 41q98 0 177 -33.5t133.5 -90t83 -133.5t28.5 -163q0 -100 -38 -191t-106.5 -161t-162.5 -110.5t-207 -40.5q-100 0 -178 33.5t-131 90t-81 132t-28 161.5zM223 403q0 -70 22.5 -132t65.5 -108t106.5 -74t145.5 -28 q90 0 167 34t133.5 90.5t88 132t31.5 159.5q0 70 -23.5 133.5t-67.5 109.5t-107.5 73.5t-143.5 27.5q-92 0 -169 -33.5t-132 -92t-86 -134.5t-31 -158zM426 1341l49 70l481 -281l-51 -69z" />
<glyph unicode="&#xf3;" horiz-adv-x="1112" d="M137 397q0 100 38 192.5t105.5 162t162 110.5t204.5 41q98 0 177 -33.5t133.5 -90t83 -133.5t28.5 -163q0 -100 -38 -191t-106.5 -161t-162.5 -110.5t-207 -40.5q-100 0 -178 33.5t-131 90t-81 132t-28 161.5zM223 403q0 -70 22.5 -132t65.5 -108t106.5 -74t145.5 -28 q90 0 167 34t133.5 90.5t88 132t31.5 159.5q0 70 -23.5 133.5t-67.5 109.5t-107.5 73.5t-143.5 27.5q-92 0 -169 -33.5t-132 -92t-86 -134.5t-31 -158zM385 1130l539 281l34 -70l-540 -280z" />
<glyph unicode="&#xf4;" horiz-adv-x="1112" d="M137 397q0 100 38 192.5t105.5 162t162 110.5t204.5 41q98 0 177 -33.5t133.5 -90t83 -133.5t28.5 -163q0 -100 -38 -191t-106.5 -161t-162.5 -110.5t-207 -40.5q-100 0 -178 33.5t-131 90t-81 132t-28 161.5zM223 403q0 -70 22.5 -132t65.5 -108t106.5 -74t145.5 -28 q90 0 167 34t133.5 90.5t88 132t31.5 159.5q0 70 -23.5 133.5t-67.5 109.5t-107.5 73.5t-143.5 27.5q-92 0 -169 -33.5t-132 -92t-86 -134.5t-31 -158zM311 1167l398 297l340 -297l-62 -63l-289 254l-338 -252z" />
<glyph unicode="&#xf5;" horiz-adv-x="1112" d="M137 397q0 100 38 192.5t105.5 162t162 110.5t204.5 41q98 0 177 -33.5t133.5 -90t83 -133.5t28.5 -163q0 -100 -38 -191t-106.5 -161t-162.5 -110.5t-207 -40.5q-100 0 -178 33.5t-131 90t-81 132t-28 161.5zM223 403q0 -70 22.5 -132t65.5 -108t106.5 -74t145.5 -28 q90 0 167 34t133.5 90.5t88 132t31.5 159.5q0 70 -23.5 133.5t-67.5 109.5t-107.5 73.5t-143.5 27.5q-92 0 -169 -33.5t-132 -92t-86 -134.5t-31 -158zM336 1274q47 29 82 44t59.5 23.5t43 9.5t34.5 1q23 0 61.5 -8.5t80.5 -19.5t83 -19.5t70 -8.5q10 0 22.5 2t30 8.5 t43 16.5t62.5 29l28 -64q-82 -45 -123 -56t-69 -11q-39 0 -77 8t-74 19.5t-71.5 19.5t-70.5 8q-25 0 -65 -10.5t-115 -53.5z" />
<glyph unicode="&#xf6;" horiz-adv-x="1112" d="M137 397q0 100 38 192.5t105.5 162t162 110.5t204.5 41q98 0 177 -33.5t133.5 -90t83 -133.5t28.5 -163q0 -100 -38 -191t-106.5 -161t-162.5 -110.5t-207 -40.5q-100 0 -178 33.5t-131 90t-81 132t-28 161.5zM223 403q0 -70 22.5 -132t65.5 -108t106.5 -74t145.5 -28 q90 0 167 34t133.5 90.5t88 132t31.5 159.5q0 70 -23.5 133.5t-67.5 109.5t-107.5 73.5t-143.5 27.5q-92 0 -169 -33.5t-132 -92t-86 -134.5t-31 -158zM348 1221q0 47 33 78.5t78 31.5q41 0 65.5 -26.5t24.5 -65.5q0 -47 -33 -78t-78 -31q-41 0 -65.5 26t-24.5 65zM821 1221 q0 47 32 78.5t77 31.5q41 0 66.5 -26.5t25.5 -65.5q0 -47 -34 -78t-77 -31q-41 0 -65.5 26t-24.5 65z" />
<glyph unicode="&#xf7;" d="M213 440l8 80h828l-9 -80h-827zM502 207q0 47 32.5 78.5t77.5 31.5q41 0 67 -26.5t26 -65.5q0 -47 -34 -77.5t-79 -30.5q-41 0 -65.5 25.5t-24.5 64.5zM559 752q0 47 33 78.5t78 31.5q41 0 66.5 -26.5t25.5 -65.5q0 -47 -34 -77.5t-79 -30.5q-41 0 -65.5 25.5t-24.5 64.5 z" />
<glyph unicode="&#xf8;" horiz-adv-x="1112" d="M137 397q0 100 38 192.5t105.5 162t161 110.5t201.5 41q41 0 71.5 -5t59.5 -13l64 119l73 -33l-63 -115q106 -49 163.5 -149.5t57.5 -223.5q0 -100 -38 -191t-106.5 -161t-163.5 -110.5t-208 -40.5q-90 0 -160 28l-71 -133l-72 31l72 135q-88 53 -136.5 148.5 t-48.5 207.5zM223 406q0 -90 37 -167t105 -120l368 690q-43 12 -94 12q-90 0 -167 -33.5t-132 -91t-86 -133t-31 -157.5zM434 84q51 -23 123 -23q94 0 172 34t134.5 91.5t87 132t30.5 156.5q0 98 -44 180t-130 123z" />
<glyph unicode="&#xf9;" horiz-adv-x="1138" d="M195 369l53 514h90l-51 -492q-8 -72 3 -132t41.5 -104t82 -70t125.5 -26q86 0 153.5 35t115.5 88.5t75.5 120t34.5 131.5l47 449h88l-95 -883h-88l25 229q-23 -49 -59.5 -95t-86 -80t-110.5 -54t-135 -20q-168 0 -250 106q-78 98 -59 283zM440 1341l52 70l481 -281 l-51 -69z" />
<glyph unicode="&#xfa;" horiz-adv-x="1138" d="M195 369l53 514h90l-51 -492q-8 -72 3 -132t41.5 -104t82 -70t125.5 -26q86 0 153.5 35t115.5 88.5t75.5 120t34.5 131.5l47 449h88l-95 -883h-88l25 229q-23 -49 -59.5 -95t-86 -80t-110.5 -54t-135 -20q-168 0 -250 106q-78 98 -59 283zM418 1130l538 281l33 -70 l-538 -280z" />
<glyph unicode="&#xfb;" horiz-adv-x="1140" d="M195 369l53 514h90l-51 -492q-8 -72 3 -132t41.5 -104t82 -70t125.5 -26q86 0 153.5 35t115.5 88.5t75.5 120t34.5 131.5l47 449h88l-95 -883h-88l25 229q-23 -49 -59.5 -95t-86 -80t-110.5 -54t-135 -20q-168 0 -250 106q-78 98 -59 283zM326 1167l401 297l336 -297 l-59 -63l-289 252l-340 -252z" />
<glyph unicode="&#xfc;" horiz-adv-x="1138" d="M195 369l53 514h90l-51 -492q-8 -72 3 -132t41.5 -104t82 -70t125.5 -26q86 0 153.5 35t115.5 88.5t75.5 120t34.5 131.5l47 449h88l-95 -883h-88l25 229q-23 -49 -59.5 -95t-86 -80t-110.5 -54t-135 -20q-168 0 -250 106q-78 98 -59 283zM350 1221q0 47 34 78.5t77 31.5 q41 0 66.5 -27.5t25.5 -64.5q0 -47 -34 -78t-79 -31q-41 0 -65.5 26t-24.5 65zM823 1221q0 47 33 78.5t78 31.5q41 0 66.5 -26.5t25.5 -65.5q0 -47 -34 -78t-79 -31q-41 0 -65.5 26t-24.5 65z" />
<glyph unicode="&#xfd;" horiz-adv-x="1150" d="M150 -147h83q-6 -82 5.5 -146.5t45 -108.5t92 -67t146.5 -23q80 0 142.5 20.5t106.5 67t71.5 119t38.5 179.5l34 335q-23 -47 -56.5 -92t-81.5 -79.5t-111.5 -56t-145.5 -21.5t-145.5 23.5t-104.5 76.5q-39 47 -51 114.5t0 190.5l53 498h84l-49 -477q-8 -76 -1 -139.5 t35 -109.5t78 -72t130 -26q94 0 163.5 35t118 88.5t75 120t32.5 131.5l47 449h86l-104 -989q-27 -252 -139.5 -358.5t-313.5 -106.5q-215 0 -298 107.5t-66 316.5zM432 1130l539 281l35 -70l-541 -280z" />
<glyph unicode="&#xfe;" horiz-adv-x="1198" d="M123 -551l209 1985h86l-82 -777q55 111 162.5 178.5t246.5 67.5q94 0 171 -33.5t129.5 -90t81 -133.5t28.5 -163q0 -100 -38 -191t-105.5 -161t-159.5 -110.5t-201 -40.5q-141 0 -234 67.5t-126 177.5l-82 -776h-86zM311 403q0 -72 22.5 -133t66.5 -108t107.5 -74 t143.5 -27q92 0 169 34t132.5 91.5t86 132t30.5 158.5q0 70 -22.5 132.5t-65.5 109.5t-106.5 74.5t-145.5 27.5q-90 0 -167 -33.5t-132 -91t-87 -133.5t-32 -160z" />
<glyph unicode="&#xff;" horiz-adv-x="1150" d="M150 -147h83q-6 -82 5.5 -146.5t45 -108.5t92 -67t146.5 -23q80 0 142.5 20.5t106.5 67t71.5 119t38.5 179.5l34 335q-23 -47 -56.5 -92t-81.5 -79.5t-111.5 -56t-145.5 -21.5t-145.5 23.5t-104.5 76.5q-39 47 -51 114.5t0 190.5l53 498h84l-49 -477q-8 -76 -1 -139.5 t35 -109.5t78 -72t130 -26q94 0 163.5 35t118 88.5t75 120t32.5 131.5l47 449h86l-104 -989q-27 -252 -139.5 -358.5t-313.5 -106.5q-215 0 -298 107.5t-66 316.5zM387 1221q0 45 32 75.5t77 30.5q39 0 63.5 -25.5t24.5 -64.5q0 -45 -32 -76t-77 -31q-39 0 -63.5 26 t-24.5 65zM860 1221q0 45 31 75.5t76 30.5q39 0 64.5 -25.5t25.5 -64.5q0 -45 -33 -76t-78 -31q-39 0 -62.5 26t-23.5 65z" />
<glyph unicode="&#x100;" horiz-adv-x="1093" d="M16 0l646 1434h73l340 -1434h-94l-70 295h-669l-131 -295h-95zM279 379h612l-207 919zM350 1636l8 80h734l-9 -80h-733z" />
<glyph unicode="&#x101;" horiz-adv-x="1200" d="M137 397q0 100 38 192.5t105.5 162t161 110.5t201.5 41q141 0 233.5 -67.5t124.5 -178.5l25 226h86l-92 -883h-86l22 225q-55 -111 -161.5 -178t-247.5 -67q-96 0 -172 33.5t-128 90t-81 132t-29 161.5zM223 403q0 -70 22.5 -132t65.5 -108t106.5 -74t145.5 -28 q90 0 167 34t132.5 90.5t87 132t31.5 159.5q0 70 -22.5 133.5t-66.5 109.5t-107.5 73.5t-143.5 27.5q-92 0 -169 -33.5t-132 -92t-86 -134.5t-31 -158zM309 1190l8 80h734l-9 -80h-733z" />
<glyph unicode="&#x102;" horiz-adv-x="1093" d="M16 0l646 1434h73l340 -1434h-94l-70 295h-669l-131 -295h-95zM279 379h612l-207 919zM319 1790h87q12 -100 97 -153.5t208 -53.5q61 0 118.5 14.5t105.5 40t82 64.5t48 88h82q-14 -68 -57 -121t-103.5 -90t-134.5 -56.5t-150 -19.5q-78 0 -145.5 19.5t-118.5 56.5 t-82.5 90t-36.5 121z" />
<glyph unicode="&#x103;" horiz-adv-x="1200" d="M137 397q0 100 38 192.5t105.5 162t161 110.5t201.5 41q141 0 233.5 -67.5t124.5 -178.5l25 226h86l-92 -883h-86l22 225q-55 -111 -161.5 -178t-247.5 -67q-96 0 -172 33.5t-128 90t-81 132t-29 161.5zM223 403q0 -70 22.5 -132t65.5 -108t106.5 -74t145.5 -28 q90 0 167 34t132.5 90.5t87 132t31.5 159.5q0 70 -22.5 133.5t-66.5 109.5t-107.5 73.5t-143.5 27.5q-92 0 -169 -33.5t-132 -92t-86 -134.5t-31 -158zM285 1434h84q14 -100 99 -153.5t208 -53.5q61 0 118.5 14t105.5 40t82 64.5t46 88.5h84q-14 -68 -56 -121t-102.5 -90 t-134.5 -56.5t-149 -19.5q-78 0 -145.5 19.5t-120 56.5t-84 90t-35.5 121z" />
<glyph unicode="&#x104;" horiz-adv-x="1093" d="M16 0l646 1434h73l340 -1434h-33q-78 -53 -121.5 -111.5t-43.5 -117.5q0 -53 38.5 -93t118.5 -40q41 0 86 10t78 20l-12 -71q-33 -10 -79 -20.5t-97 -10.5q-111 0 -165 52t-54 130q0 72 46 130.5t144 121.5l-70 295h-669l-131 -295h-95zM279 379h612l-207 919z" />
<glyph unicode="&#x105;" horiz-adv-x="1200" d="M137 397q0 100 38 192.5t105.5 162t161 110.5t201.5 41q141 0 233.5 -67.5t124.5 -178.5l25 226h86l-92 -883h-27q-78 -53 -122 -111.5t-44 -117.5q0 -53 39 -93t119 -40q41 0 86 10t78 20l-10 -71q-35 -10 -82 -20.5t-99 -10.5q-111 0 -164 52t-53 130q0 76 50.5 134.5 t142.5 117.5l22 225q-55 -111 -161.5 -178t-247.5 -67q-96 0 -172 33.5t-128 90t-81 132t-29 161.5zM223 403q0 -70 22.5 -132t65.5 -108t106.5 -74t145.5 -28q90 0 167 34t132.5 90.5t87 132t31.5 159.5q0 70 -22.5 133.5t-66.5 109.5t-107.5 73.5t-143.5 27.5 q-92 0 -169 -33.5t-132 -92t-86 -134.5t-31 -158z" />
<glyph unicode="&#x106;" horiz-adv-x="1585" d="M166 649q0 156 56.5 302.5t161.5 260t257 182t340 68.5q135 0 243.5 -35.5t187.5 -101t127 -156t60 -198.5h-94q-14 92 -56 166.5t-109.5 129t-160 83t-204.5 28.5q-168 0 -301 -61.5t-226.5 -161.5t-142.5 -230t-49 -268q0 -123 40 -232.5t115.5 -191t185.5 -130 t249 -48.5q106 0 200.5 28t170 76t133 110.5t92.5 133.5h98q-39 -88 -106.5 -166.5t-157.5 -137t-201.5 -93.5t-238.5 -35q-162 0 -287 54.5t-210 147.5t-129 216t-44 260zM717 1608l538 280l37 -71l-540 -281z" />
<glyph unicode="&#x107;" horiz-adv-x="1062" d="M145 393q0 96 33 188.5t96.5 164t156.5 114.5t214 43q102 0 173 -30.5t114 -80t61.5 -109.5t18.5 -122h-88q0 53 -17.5 101.5t-53.5 84t-91 56t-129 20.5q-98 0 -174 -35.5t-126 -96t-76 -136.5t-26 -156q0 -70 19.5 -131t59.5 -107t102.5 -73t146.5 -27q72 0 128 19.5 t99 52.5t71 77t42 93h88q-16 -68 -53 -127t-92.5 -103t-129 -68.5t-161.5 -24.5q-106 0 -183 34.5t-126 92t-73 132t-24 154.5zM358 1001l541 281l35 -70l-539 -280z" />
<glyph unicode="&#x108;" horiz-adv-x="1585" d="M166 649q0 156 56.5 302.5t161.5 260t257 182t340 68.5q135 0 243.5 -35.5t187.5 -101t127 -156t60 -198.5h-94q-14 92 -56 166.5t-109.5 129t-160 83t-204.5 28.5q-168 0 -301 -61.5t-226.5 -161.5t-142.5 -230t-49 -268q0 -123 40 -232.5t115.5 -191t185.5 -130 t249 -48.5q106 0 200.5 28t170 76t133 110.5t92.5 133.5h98q-39 -88 -106.5 -166.5t-157.5 -137t-201.5 -93.5t-238.5 -35q-162 0 -287 54.5t-210 147.5t-129 216t-44 260zM616 1604l400 297l338 -297l-62 -64l-288 254l-340 -254z" />
<glyph unicode="&#x109;" horiz-adv-x="1062" d="M145 393q0 96 33 188.5t96.5 164t156.5 114.5t214 43q102 0 173 -30.5t114 -80t61.5 -109.5t18.5 -122h-88q0 53 -17.5 101.5t-53.5 84t-91 56t-129 20.5q-98 0 -174 -35.5t-126 -96t-76 -136.5t-26 -156q0 -70 19.5 -131t59.5 -107t102.5 -73t146.5 -27q72 0 128 19.5 t99 52.5t71 77t42 93h88q-16 -68 -53 -127t-92.5 -103t-129 -68.5t-161.5 -24.5q-106 0 -183 34.5t-126 92t-73 132t-24 154.5zM293 1167l399 297l338 -297l-61 -63l-289 252l-340 -252z" />
<glyph unicode="&#x10a;" horiz-adv-x="1585" d="M166 649q0 156 56.5 302.5t161.5 260t257 182t340 68.5q135 0 243.5 -35.5t187.5 -101t127 -156t60 -198.5h-94q-14 92 -56 166.5t-109.5 129t-160 83t-204.5 28.5q-168 0 -301 -61.5t-226.5 -161.5t-142.5 -230t-49 -268q0 -123 40 -232.5t115.5 -191t185.5 -130 t249 -48.5q106 0 200.5 28t170 76t133 110.5t92.5 133.5h98q-39 -88 -106.5 -166.5t-157.5 -137t-201.5 -93.5t-238.5 -35q-162 0 -287 54.5t-210 147.5t-129 216t-44 260zM891 1671q0 47 32.5 79t77.5 32q41 0 67 -25.5t26 -66.5q0 -47 -34 -78t-79 -31q-41 0 -65.5 25.5 t-24.5 64.5z" />
<glyph unicode="&#x10b;" horiz-adv-x="1062" d="M145 393q0 96 33 188.5t96.5 164t156.5 114.5t214 43q102 0 173 -30.5t114 -80t61.5 -109.5t18.5 -122h-88q0 53 -17.5 101.5t-53.5 84t-91 56t-129 20.5q-98 0 -174 -35.5t-126 -96t-76 -136.5t-26 -156q0 -70 19.5 -131t59.5 -107t102.5 -73t146.5 -27q72 0 128 19.5 t99 52.5t71 77t42 93h88q-16 -68 -53 -127t-92.5 -103t-129 -68.5t-161.5 -24.5q-106 0 -183 34.5t-126 92t-73 132t-24 154.5zM573 1221q0 47 33 78.5t78 31.5q41 0 65.5 -26.5t24.5 -65.5q0 -47 -32.5 -78t-77.5 -31q-41 0 -66 26t-25 65z" />
<glyph unicode="&#x10c;" horiz-adv-x="1585" d="M166 649q0 156 56.5 302.5t161.5 260t257 182t340 68.5q135 0 243.5 -35.5t187.5 -101t127 -156t60 -198.5h-94q-14 92 -56 166.5t-109.5 129t-160 83t-204.5 28.5q-168 0 -301 -61.5t-226.5 -161.5t-142.5 -230t-49 -268q0 -123 40 -232.5t115.5 -191t185.5 -130 t249 -48.5q106 0 200.5 28t170 76t133 110.5t92.5 133.5h98q-39 -88 -106.5 -166.5t-157.5 -137t-201.5 -93.5t-238.5 -35q-162 0 -287 54.5t-210 147.5t-129 216t-44 260zM678 1839l55 62l250 -254l307 254l43 -62l-362 -297z" />
<glyph unicode="&#x10d;" horiz-adv-x="1062" d="M145 393q0 96 33 188.5t96.5 164t156.5 114.5t214 43q102 0 173 -30.5t114 -80t61.5 -109.5t18.5 -122h-88q0 53 -17.5 101.5t-53.5 84t-91 56t-129 20.5q-98 0 -174 -35.5t-126 -96t-76 -136.5t-26 -156q0 -70 19.5 -131t59.5 -107t102.5 -73t146.5 -27q72 0 128 19.5 t99 52.5t71 77t42 93h88q-16 -68 -53 -127t-92.5 -103t-129 -68.5t-161.5 -24.5q-106 0 -183 34.5t-126 92t-73 132t-24 154.5zM362 1401l56 63l250 -254l307 254l43 -63l-363 -297z" />
<glyph unicode="&#x10e;" horiz-adv-x="1413" d="M180 0l152 1434h395q166 0 291 -55.5t210 -145.5t128 -208t43 -243q0 -145 -57.5 -285.5t-164 -251t-259 -178t-343.5 -67.5h-395zM279 84h305q168 0 302 59.5t228 157.5t144.5 222t50.5 253q0 111 -38 214.5t-113 183t-185.5 128t-255.5 48.5h-305zM561 1839l57 62 l250 -254l306 254l43 -62l-361 -297z" />
<glyph unicode="&#x10f;" horiz-adv-x="1359" d="M137 397q0 100 38 192.5t105.5 162t161 110.5t201.5 41q141 0 233.5 -67.5t124.5 -178.5l82 777h86l-149 -1434h-86l22 225q-55 -111 -161.5 -178t-247.5 -67q-96 0 -172 33.5t-128 90t-81 132t-29 161.5zM223 403q0 -70 22.5 -132t65.5 -108t106.5 -74t145.5 -28 q90 0 167 34t132.5 90.5t87 132t31.5 159.5q0 70 -22.5 133.5t-66.5 109.5t-107.5 73.5t-143.5 27.5q-92 0 -169 -33.5t-132 -92t-86 -134.5t-31 -158zM1237 1032l6 58q70 0 103.5 29.5t48.5 76.5q14 47 0 82q-10 -10 -25.5 -14t-32.5 -4q-39 0 -62.5 24.5t-23.5 63.5 q0 45 32 76.5t85 31.5q59 0 92 -47t33 -129q0 -121 -67.5 -183.5t-188.5 -64.5z" />
<glyph unicode="&#x110;" horiz-adv-x="1413" d="M-70 684l9 82h321l70 668h395q166 0 292 -55.5t211 -145.5t128 -208t43 -243q0 -145 -57.5 -285.5t-164 -251t-259 -178t-343.5 -67.5h-395l72 684h-322zM279 84h305q168 0 301 59.5t227 157.5t144.5 222t50.5 253q0 111 -38 214.5t-112 183t-184.5 128t-255.5 48.5h-305 l-62 -584h324l-8 -82h-324z" />
<glyph unicode="&#x111;" horiz-adv-x="1200" d="M137 397q0 100 38 192.5t105.5 162t161 110.5t201.5 41q141 0 233.5 -67.5t124.5 -178.5l50 459h-244l8 80h244l24 238h86l-24 -238h149l-8 -80h-149l-117 -1116h-86l22 225q-55 -111 -161.5 -178t-247.5 -67q-96 0 -172 33.5t-128 90t-81 132t-29 161.5zM223 403 q0 -70 22.5 -132t65.5 -108t106.5 -74t145.5 -28q90 0 167 34t132.5 90.5t87 132t31.5 159.5q0 70 -22.5 133.5t-66.5 109.5t-107.5 73.5t-143.5 27.5q-92 0 -169 -33.5t-132 -92t-86 -134.5t-31 -158z" />
<glyph unicode="&#x112;" horiz-adv-x="1107" d="M180 0l152 1434h758l-11 -84h-667l-62 -596h668l-10 -82h-668l-61 -588h667l-8 -84h-758zM360 1636l9 80h733l-8 -80h-734z" />
<glyph unicode="&#x113;" horiz-adv-x="1050" d="M145 397q0 106 35 198.5t96.5 161t148.5 107.5t191 39q86 0 157 -26.5t120 -75.5t76.5 -117t27.5 -147q0 -33 -4 -56.5t-10 -48.5h-747q-8 -74 6 -142.5t52 -119.5t100.5 -82t150.5 -31q63 0 115.5 16.5t92.5 43t67.5 60.5t43.5 71h90q-18 -51 -54 -99.5t-89 -86 t-121.5 -60t-152.5 -22.5q-100 0 -174 33.5t-122 91t-72 133t-24 159.5zM246 506h663q6 72 -12 130t-58 100t-97.5 65.5t-127.5 23.5q-68 0 -129 -21.5t-110 -63.5t-83 -101t-46 -133zM285 1208l8 82h733l-8 -82h-733z" />
<glyph unicode="&#x114;" horiz-adv-x="1107" d="M180 0l152 1434h758l-11 -84h-667l-62 -596h668l-10 -82h-668l-61 -588h667l-8 -84h-758zM330 1790h84q12 -100 98 -153.5t209 -53.5q61 0 118.5 13.5t104.5 40t81 65.5t48 88h84q-14 -68 -57 -121t-103.5 -91t-134.5 -57.5t-149 -19.5q-78 0 -145.5 20.5t-119 57.5 t-83 90t-35.5 121z" />
<glyph unicode="&#x115;" horiz-adv-x="1050" d="M145 397q0 106 35 198.5t96.5 161t148.5 107.5t191 39q86 0 157 -26.5t120 -75.5t76.5 -117t27.5 -147q0 -33 -4 -56.5t-10 -48.5h-747q-8 -74 6 -142.5t52 -119.5t100.5 -82t150.5 -31q63 0 115.5 16.5t92.5 43t67.5 60.5t43.5 71h90q-18 -51 -54 -99.5t-89 -86 t-121.5 -60t-152.5 -22.5q-100 0 -174 33.5t-122 91t-72 133t-24 159.5zM246 506h663q6 72 -12 130t-58 100t-97.5 65.5t-127.5 23.5q-68 0 -129 -21.5t-110 -63.5t-83 -101t-46 -133zM268 1434h84q14 -100 99.5 -153.5t207.5 -53.5q61 0 119 14t106 40t81.5 64.5t46.5 88.5 h84q-14 -68 -56.5 -121t-102.5 -90t-134 -56.5t-150 -19.5q-78 0 -145.5 19.5t-119.5 56.5t-84 90t-36 121z" />
<glyph unicode="&#x116;" horiz-adv-x="1107" d="M180 0l152 1434h758l-11 -84h-667l-62 -596h668l-10 -82h-668l-61 -588h667l-8 -84h-758zM629 1673q0 47 32.5 79t79.5 32q41 0 65.5 -26.5t24.5 -65.5q0 -47 -32.5 -78t-79.5 -31q-41 0 -65.5 25.5t-24.5 64.5z" />
<glyph unicode="&#x117;" horiz-adv-x="1050" d="M145 397q0 106 35 198.5t96.5 161t148.5 107.5t191 39q86 0 157 -26.5t120 -75.5t76.5 -117t27.5 -147q0 -33 -4 -56.5t-10 -48.5h-747q-8 -74 6 -142.5t52 -119.5t100.5 -82t150.5 -31q63 0 115.5 16.5t92.5 43t67.5 60.5t43.5 71h90q-18 -51 -54 -99.5t-89 -86 t-121.5 -60t-152.5 -22.5q-100 0 -174 33.5t-122 91t-72 133t-24 159.5zM246 506h663q6 72 -12 130t-58 100t-97.5 65.5t-127.5 23.5q-68 0 -129 -21.5t-110 -63.5t-83 -101t-46 -133zM559 1219q0 47 33 78.5t80 31.5q41 0 65.5 -26.5t24.5 -65.5q0 -47 -32 -78t-79 -31 q-41 0 -66.5 26t-25.5 65z" />
<glyph unicode="&#x118;" horiz-adv-x="1107" d="M180 0l152 1434h758l-11 -84h-667l-62 -596h668l-10 -82h-668l-61 -588h667l-8 -84q-76 -53 -120 -111.5t-44 -117.5q0 -53 39 -93t117 -40q41 0 87 10t79 20l-13 -71q-33 -10 -79 -20.5t-97 -10.5q-111 0 -165 52t-54 130q0 72 46 130.5t145 121.5h-699z" />
<glyph unicode="&#x119;" horiz-adv-x="1050" d="M145 395q0 106 34 198.5t96.5 161t149.5 108.5t191 40q86 0 157 -26.5t120 -75.5t76.5 -117t27.5 -147q0 -33 -4 -56.5t-10 -48.5h-747q-8 -74 6 -142.5t52 -119.5t100.5 -82t150.5 -31q63 0 116.5 16.5t93.5 43t67.5 60.5t43.5 71h90q-18 -51 -53 -97.5t-85 -83 t-112.5 -59t-136.5 -26.5q-66 -49 -102.5 -103.5t-36.5 -107.5t40 -93t118 -40q41 0 87 10t77 20l-11 -71q-35 -10 -81 -20.5t-97 -10.5q-113 0 -166 52t-53 130q0 66 39 121t125 113q-92 4 -160.5 38.5t-113 90t-67 128t-22.5 156.5zM246 506h663q8 72 -11 130t-59 100 t-97.5 65.5t-127.5 23.5q-68 0 -129 -21.5t-110 -63.5t-83 -101t-46 -133z" />
<glyph unicode="&#x11a;" horiz-adv-x="1107" d="M180 0l152 1434h758l-11 -84h-667l-62 -596h668l-10 -82h-668l-61 -588h667l-8 -84h-758zM420 1839l57 62l250 -254l305 254l43 -62l-360 -297z" />
<glyph unicode="&#x11b;" horiz-adv-x="1050" d="M145 397q0 106 35 198.5t96.5 161t148.5 107.5t191 39q86 0 157 -26.5t120 -75.5t76.5 -117t27.5 -147q0 -33 -4 -56.5t-10 -48.5h-747q-8 -74 6 -142.5t52 -119.5t100.5 -82t150.5 -31q63 0 115.5 16.5t92.5 43t67.5 60.5t43.5 71h90q-18 -51 -54 -99.5t-89 -86 t-121.5 -60t-152.5 -22.5q-100 0 -174 33.5t-122 91t-72 133t-24 159.5zM246 506h663q6 72 -12 130t-58 100t-97.5 65.5t-127.5 23.5q-68 0 -129 -21.5t-110 -63.5t-83 -101t-46 -133zM352 1401l56 63l249 -254l306 254l45 -63l-363 -297z" />
<glyph unicode="&#x11c;" horiz-adv-x="1701" d="M164 639q0 158 58.5 306.5t164 263t255 184t331.5 69.5q119 0 214 -29.5t164.5 -79.5t112.5 -118t56 -141h-90q-16 57 -54.5 109t-97.5 91t-138 61.5t-175 22.5q-160 0 -291 -61.5t-224.5 -163.5t-144.5 -233.5t-51 -272.5q0 -117 37 -224.5t110.5 -188t184 -130 t258.5 -49.5q129 0 232.5 38t179 104.5t125 156.5t71.5 197h-467l8 84h709l-8 -84h-148q-29 -135 -91 -241.5t-154.5 -182.5t-210 -116t-259.5 -40q-168 0 -293.5 55.5t-208.5 147.5t-124 213t-41 252zM625 1606l399 297l338 -297l-59 -64l-289 254l-340 -254z" />
<glyph unicode="&#x11d;" horiz-adv-x="1198" d="M88 -141h86q-4 -68 9.5 -131.5t50 -112.5t103 -78t171.5 -29q86 0 157.5 23t126 72t88 126.5t46.5 188.5l32 307q-57 -111 -163.5 -178t-247.5 -67q-96 0 -172 33.5t-128 90t-81 132t-29 161.5q0 100 38 192.5t105.5 162t159.5 110.5t201 41q141 0 234.5 -67.5 t128.5 -178.5l22 226h88l-102 -965q-14 -133 -56.5 -225t-108 -151.5t-153.5 -86t-192 -26.5q-127 0 -209 34.5t-129 94t-63.5 137.5t-12.5 164zM225 406q0 -70 22.5 -132.5t65.5 -109.5t105.5 -75t144.5 -28q90 0 167 34t133.5 91.5t88 133t31.5 159.5q0 70 -23.5 132.5 t-67.5 109.5t-107.5 73.5t-145.5 26.5q-92 0 -168 -33.5t-130 -91t-85 -133.5t-31 -157zM305 1167l400 297l337 -297l-59 -63l-289 252l-340 -252z" />
<glyph unicode="&#x11e;" horiz-adv-x="1701" d="M164 639q0 158 58.5 306.5t164 263t255 184t331.5 69.5q119 0 214 -29.5t164.5 -79.5t112.5 -118t56 -141h-90q-16 57 -54.5 109t-97.5 91t-138 61.5t-175 22.5q-160 0 -291 -61.5t-224.5 -163.5t-144.5 -233.5t-51 -272.5q0 -117 37 -224.5t110.5 -188t184 -130 t258.5 -49.5q129 0 232.5 38t179 104.5t125 156.5t71.5 197h-467l8 84h709l-8 -84h-148q-29 -135 -91 -241.5t-154.5 -182.5t-210 -116t-259.5 -40q-168 0 -293.5 55.5t-208.5 147.5t-124 213t-41 252zM600 1790h84q12 -100 96 -153.5t207 -53.5q61 0 119.5 14.5t107 40 t82 64.5t47.5 88h84q-16 -68 -58 -121t-102.5 -90t-134 -56.5t-149.5 -19.5q-78 0 -145.5 19.5t-119.5 56.5t-83 90t-35 121z" />
<glyph unicode="&#x11f;" horiz-adv-x="1198" d="M88 -141h86q-4 -68 9.5 -131.5t50 -112.5t103 -78t171.5 -29q86 0 157.5 23t126 72t88 126.5t46.5 188.5l32 307q-57 -111 -163.5 -178t-247.5 -67q-96 0 -172 33.5t-128 90t-81 132t-29 161.5q0 100 38 192.5t105.5 162t159.5 110.5t201 41q141 0 234.5 -67.5 t128.5 -178.5l22 226h88l-102 -965q-14 -133 -56.5 -225t-108 -151.5t-153.5 -86t-192 -26.5q-127 0 -209 34.5t-129 94t-63.5 137.5t-12.5 164zM225 406q0 -70 22.5 -132.5t65.5 -109.5t105.5 -75t144.5 -28q90 0 167 34t133.5 91.5t88 133t31.5 159.5q0 70 -23.5 132.5 t-67.5 109.5t-107.5 73.5t-145.5 26.5q-92 0 -168 -33.5t-130 -91t-85 -133.5t-31 -157zM289 1434h84q12 -100 97 -153.5t208 -53.5q61 0 118.5 14t105.5 40t82 64.5t48 88.5h84q-16 -68 -58 -121t-102.5 -90t-134 -56.5t-149.5 -19.5q-78 0 -145.5 19.5t-120 56.5t-83 90 t-34.5 121z" />
<glyph unicode="&#x120;" horiz-adv-x="1701" d="M164 639q0 158 58.5 306.5t164 263t255 184t331.5 69.5q119 0 214 -29.5t164.5 -79.5t112.5 -118t56 -141h-90q-16 57 -54.5 109t-97.5 91t-138 61.5t-175 22.5q-160 0 -291 -61.5t-224.5 -163.5t-144.5 -233.5t-51 -272.5q0 -117 37 -224.5t110.5 -188t184 -130 t258.5 -49.5q129 0 232.5 38t179 104.5t125 156.5t71.5 197h-467l8 84h709l-8 -84h-148q-29 -135 -91 -241.5t-154.5 -182.5t-210 -116t-259.5 -40q-168 0 -293.5 55.5t-208.5 147.5t-124 213t-41 252zM899 1673q0 47 32 79t79 32q41 0 65.5 -26.5t24.5 -65.5q0 -47 -32 -78 t-79 -31q-41 0 -65.5 25.5t-24.5 64.5z" />
<glyph unicode="&#x121;" horiz-adv-x="1198" d="M88 -141h86q-4 -68 9.5 -131.5t50 -112.5t103 -78t171.5 -29q86 0 157.5 23t126 72t88 126.5t46.5 188.5l32 307q-57 -111 -163.5 -178t-247.5 -67q-96 0 -172 33.5t-128 90t-81 132t-29 161.5q0 100 38 192.5t105.5 162t159.5 110.5t201 41q141 0 234.5 -67.5 t128.5 -178.5l22 226h88l-102 -965q-14 -133 -56.5 -225t-108 -151.5t-153.5 -86t-192 -26.5q-127 0 -209 34.5t-129 94t-63.5 137.5t-12.5 164zM225 406q0 -70 22.5 -132.5t65.5 -109.5t105.5 -75t144.5 -28q90 0 167 34t133.5 91.5t88 133t31.5 159.5q0 70 -23.5 132.5 t-67.5 109.5t-107.5 73.5t-145.5 26.5q-92 0 -168 -33.5t-130 -91t-85 -133.5t-31 -157zM575 1219q0 47 32 78.5t79 31.5q41 0 65.5 -26.5t24.5 -65.5q0 -47 -31.5 -78t-78.5 -31q-41 0 -66 26t-25 65z" />
<glyph unicode="&#x122;" horiz-adv-x="1701" d="M164 639q0 158 58.5 306.5t164 263t255 184t331.5 69.5q119 0 214 -29.5t164.5 -79.5t112.5 -118t56 -141h-90q-16 57 -54.5 109t-97.5 91t-138 61.5t-175 22.5q-160 0 -291 -61.5t-224.5 -163.5t-144.5 -233.5t-51 -272.5q0 -117 37 -224.5t110.5 -188t184 -130 t258.5 -49.5q129 0 232.5 38t179 104.5t125 156.5t71.5 197h-467l8 84h709l-8 -84h-148q-29 -135 -91 -241.5t-154.5 -182.5t-210 -116t-259.5 -40q-168 0 -293.5 55.5t-208.5 147.5t-124 213t-41 252zM709 -403l6 51q47 0 87 25.5t40 84.5v16.5t-4 20.5q-16 -16 -47 -16 q-29 0 -49.5 20t-20.5 51q0 37 27.5 63t68.5 26q47 0 74 -38t27 -106q0 -102 -58.5 -150t-150.5 -48z" />
<glyph unicode="&#x123;" horiz-adv-x="1198" d="M88 -141h86q-4 -68 9.5 -131.5t50 -112.5t103 -78t171.5 -29q86 0 157.5 23t126 72t88 126.5t46.5 188.5l32 307q-57 -111 -163.5 -178t-247.5 -67q-96 0 -172 33.5t-128 90t-81 132t-29 161.5q0 100 38 192.5t105.5 162t159.5 110.5t201 41q141 0 234.5 -67.5 t128.5 -178.5l22 226h88l-102 -965q-14 -133 -56.5 -225t-108 -151.5t-153.5 -86t-192 -26.5q-127 0 -209 34.5t-129 94t-63.5 137.5t-12.5 164zM225 406q0 -70 22.5 -132.5t65.5 -109.5t105.5 -75t144.5 -28q90 0 167 34t133.5 91.5t88 133t31.5 159.5q0 70 -23.5 132.5 t-67.5 109.5t-107.5 73.5t-145.5 26.5q-92 0 -168 -33.5t-130 -91t-85 -133.5t-31 -157zM539 1233q0 123 67.5 185.5t188.5 64.5l-7 -58q-66 0 -101.5 -27.5t-49.5 -78.5q-8 -29 -7 -47.5t7 -34.5q10 10 24.5 14t30.5 4q41 0 64.5 -24.5t23.5 -61.5q0 -47 -32.5 -78.5 t-85.5 -31.5q-59 0 -91 47t-32 127z" />
<glyph unicode="&#x124;" horiz-adv-x="1353" d="M180 0l152 1434h90l-72 -680h815l72 680h88l-151 -1434h-89l70 672h-815l-70 -672h-90zM477 1604l402 297l335 -297l-59 -64l-289 254l-340 -254z" />
<glyph unicode="&#x125;" horiz-adv-x="1142" d="M180 0l152 1434h86l-82 -781q23 49 59.5 95.5t85.5 80t110.5 54t133.5 20.5q86 0 148.5 -28.5t103.5 -77.5q41 -53 54 -123t3 -160l-53 -514h-86l51 492q8 70 -3 131t-42 105t-82 69.5t-125 25.5q-86 0 -154.5 -34.5t-115.5 -88t-76 -121t-35 -130.5l-47 -449h-86z M414 1604l401 297l336 -297l-59 -64l-289 254l-340 -254z" />
<glyph unicode="&#x126;" horiz-adv-x="1353" d="M180 0l152 1434h90l-33 -308h815l33 308h88l-151 -1434h-89l70 672h-815l-70 -672h-90zM350 754h815l31 293h-815z" />
<glyph unicode="&#x127;" horiz-adv-x="1142" d="M117 1116l8 80h180l25 238h86l-25 -238h467l-8 -80h-467l-49 -463q23 49 59.5 95.5t86.5 80t111.5 54t133.5 20.5q86 0 148.5 -28.5t103.5 -77.5q41 -53 54 -123t3 -160l-53 -514h-86l51 492q8 70 -3 131t-42 105t-82 69.5t-125 25.5q-86 0 -154.5 -34.5t-115.5 -88 t-76 -121t-35 -130.5l-47 -449h-86l117 1116h-180z" />
<glyph unicode="&#x128;" horiz-adv-x="452" d="M53 1669q47 29 82 44.5t59.5 23.5t43 9t34.5 1q23 0 62 -8t81 -19.5t83 -19.5t69 -8q10 0 22.5 2t30 8t43 16.5t62.5 28.5l31 -64q-41 -23 -72 -36t-52.5 -20t-37.5 -9t-29 -2q-41 0 -78.5 8t-74.5 19.5t-72 19.5t-72 8q-25 0 -63.5 -10t-116.5 -55zM180 0l152 1434h92 l-152 -1434h-92z" />
<glyph unicode="&#x129;" horiz-adv-x="468" d="M14 1225q47 29 82 44t59.5 23t43 9.5t34.5 1.5q23 0 62 -8.5t81 -19.5t83 -19.5t69 -8.5q10 0 22.5 2t30 8.5t43 16.5t62.5 29l31 -64q-41 -23 -71 -36t-52.5 -20t-39.5 -9.5t-32 -2.5q-39 0 -75.5 8.5t-73.5 19.5t-72 19.5t-72 8.5q-25 0 -63.5 -10.5t-116.5 -55.5z M193 0l92 883h86l-92 -883h-86z" />
<glyph unicode="&#x12a;" horiz-adv-x="452" d="M31 1636l8 80h735l-8 -80h-735zM180 0l152 1434h92l-152 -1434h-92z" />
<glyph unicode="&#x12b;" horiz-adv-x="468" d="M-6 1190l8 80h733l-8 -80h-733zM205 0l92 883h86l-92 -883h-86z" />
<glyph unicode="&#x12c;" horiz-adv-x="452" d="M0 1790h86q12 -100 96 -153.5t207 -53.5q61 0 119.5 14.5t107 40t82 64.5t47.5 88h84q-14 -68 -57 -121t-103.5 -90t-134 -56.5t-149.5 -19.5q-78 0 -145.5 19.5t-119.5 56.5t-84 90t-36 121zM180 0l152 1434h92l-152 -1434h-92z" />
<glyph unicode="&#x12d;" horiz-adv-x="468" d="M-27 1434h84q12 -100 97.5 -153.5t207.5 -53.5q61 0 119 14t106 40t81.5 64.5t48.5 88.5h84q-14 -68 -57.5 -121t-103.5 -90t-134 -56.5t-150 -19.5q-78 0 -145.5 19.5t-118.5 56.5t-83 90t-36 121zM193 0l94 883h86l-94 -883h-86z" />
<glyph unicode="&#x12e;" horiz-adv-x="452" d="M-10 -252q0 72 46 130.5t144 121.5l150 1434h92l-150 -1434h-32q-76 -53 -120 -111.5t-44 -117.5q0 -53 39 -93t116 -40q41 0 87.5 10t78.5 20l-12 -71q-35 -10 -81 -20.5t-97 -10.5q-111 0 -164 52t-53 130z" />
<glyph unicode="&#x12f;" horiz-adv-x="468" d="M-2 -252q0 76 50 134.5t142 117.5l93 883h86l-93 -883h-26q-78 -53 -122 -111.5t-44 -119.5q0 -53 39 -92t117 -39q43 0 88 10t78 20l-11 -71q-35 -10 -82 -20.5t-98 -10.5q-111 0 -164 52t-53 130zM262 1233q0 47 33 78.5t78 31.5q41 0 66.5 -26.5t25.5 -65.5 q0 -47 -34 -77.5t-79 -30.5q-41 0 -65.5 25.5t-24.5 64.5z" />
<glyph unicode="&#x130;" horiz-adv-x="452" d="M180 0l152 1434h92l-152 -1434h-92zM301 1673q0 47 33 79t78 32q41 0 66.5 -26.5t25.5 -65.5q0 -47 -34 -78t-79 -31q-41 0 -65.5 25.5t-24.5 64.5z" />
<glyph unicode="&#x131;" horiz-adv-x="438" d="M176 0l92 883h86l-92 -883h-86z" />
<glyph unicode="&#x132;" horiz-adv-x="1548" d="M180 0l152 1434h92l-152 -1434h-92zM535 432h90q-10 -88 12 -157.5t68.5 -119t112 -75t143.5 -25.5t144 25.5t117.5 75t84 119t43.5 157.5l104 1002h90l-104 -1002q-12 -106 -53 -191t-105.5 -145.5t-148.5 -92.5t-181 -32q-98 0 -179 32t-138 92.5t-84 145.5t-16 191z " />
<glyph unicode="&#x133;" horiz-adv-x="946" d="M193 0l92 883h86l-92 -883h-86zM264 1233q0 47 34 78.5t79 31.5q41 0 65.5 -26.5t24.5 -65.5q0 -47 -33 -77.5t-78 -30.5q-41 0 -66.5 25.5t-25.5 64.5zM358 -539l11 82q18 -10 42.5 -19t59.5 -9q150 0 168 186l125 1182h84l-125 -1186q-14 -129 -75.5 -195.5 t-166.5 -66.5q-31 0 -62.5 6t-60.5 20zM743 1233q0 47 34 78.5t79 31.5q41 0 65.5 -26.5t24.5 -65.5q0 -47 -32.5 -77.5t-77.5 -30.5q-41 0 -67 25.5t-26 64.5z" />
<glyph unicode="&#x134;" horiz-adv-x="1095" d="M84 432h90q-10 -88 11.5 -157.5t67.5 -119t111.5 -75t143.5 -25.5q76 0 143.5 25.5t119.5 74t85 118t43 159.5l105 1002h90l-105 -1002q-12 -106 -53 -191t-105.5 -145.5t-149.5 -92.5t-181 -32q-98 0 -179 32t-137.5 92.5t-84 145.5t-15.5 191zM700 1604l400 297 l338 -297l-62 -64l-289 254l-339 -254z" />
<glyph unicode="&#x135;" horiz-adv-x="477" d="M-113 -539l9 82q55 -29 104 -28q76 0 117 48t51 138l125 1182h86l-125 -1186q-14 -129 -75.5 -195.5t-166.5 -66.5q-31 0 -63.5 6t-61.5 20zM0 1196l401 297l338 -297l-59 -63l-289 253l-342 -253z" />
<glyph unicode="&#x136;" horiz-adv-x="1138" d="M180 0l152 1434h90l-74 -695l811 695h121l-834 -717l682 -717h-120l-664 694l-74 -694h-90zM475 -381l6 51q47 0 88 25.5t41 83.5q0 10 -1 18t-3 21q-20 -16 -47 -17q-31 0 -50.5 20.5t-19.5 51.5q0 37 27 62.5t68 25.5q47 0 73.5 -38t26.5 -105q0 -102 -57.5 -150.5 t-151.5 -48.5z" />
<glyph unicode="&#x137;" horiz-adv-x="884" d="M180 0l152 1434h86l-105 -979l512 428h119l-522 -443l430 -440h-119l-422 426l-45 -426h-86zM346 -381l6 51q53 0 82 19.5t41 60.5q8 25 7 42.5t-5 25.5q-23 -16 -47 -17q-31 0 -50.5 20.5t-19.5 51.5q0 37 26 62.5t69 25.5q47 0 73.5 -37t26.5 -104q0 -104 -57.5 -152.5 t-151.5 -48.5z" />
<glyph unicode="&#x138;" horiz-adv-x="884" d="M180 0l92 883h86l-45 -428l512 428h119l-522 -443l430 -440h-119l-422 426l-45 -426h-86z" />
<glyph unicode="&#x139;" horiz-adv-x="856" d="M180 0l152 1434h90l-143 -1350h518l-9 -84h-608zM281 1608l538 280l33 -71l-539 -281z" />
<glyph unicode="&#x13a;" horiz-adv-x="446" d="M119 1608l538 280l35 -71l-540 -281zM180 0l152 1434h86l-152 -1434h-86z" />
<glyph unicode="&#x13b;" horiz-adv-x="856" d="M180 0l152 1434h90l-143 -1350h518l-9 -84h-608zM369 -381l6 51q47 0 88 25.5t41 83.5q0 10 -1 18t-3 21q-20 -16 -47 -17q-31 0 -50.5 20.5t-19.5 51.5q0 37 26.5 62.5t67.5 25.5q47 0 74 -38t27 -105q0 -102 -57.5 -150.5t-151.5 -48.5z" />
<glyph unicode="&#x13c;" horiz-adv-x="446" d="M109 -381l6 51q59 0 84.5 22.5t36.5 57.5q10 35 2 68q-20 -16 -52 -17q-29 0 -47 20.5t-18 51.5q0 37 26.5 62.5t67.5 25.5q49 0 75.5 -39t26.5 -104q0 -102 -58 -150.5t-150 -48.5zM180 0l150 1434h86l-150 -1434h-86z" />
<glyph unicode="&#x13d;" horiz-adv-x="856" d="M88 1839l57 62l250 -254l305 254l45 -62l-360 -297zM180 0l150 1434h90l-141 -1350h518l-9 -84h-608z" />
<glyph unicode="&#x13e;" horiz-adv-x="608" d="M180 0l152 1434h86l-152 -1434h-86zM483 1034l6 56q66 0 101 26.5t51 79.5q8 27 8 45.5t-4 38.5q-25 -18 -57 -18q-39 0 -63.5 24.5t-24.5 61.5q0 45 32.5 77.5t85.5 32.5q59 0 91 -47t32 -131q0 -127 -71.5 -186.5t-186.5 -59.5z" />
<glyph unicode="&#x13f;" horiz-adv-x="856" d="M180 0l152 1434h90l-143 -1350h518l-9 -84h-608zM567 535q0 47 32 77.5t77 30.5q41 0 66.5 -25.5t25.5 -66.5q0 -47 -33 -78t-78 -31q-41 0 -65.5 26t-24.5 67z" />
<glyph unicode="&#x140;" horiz-adv-x="612" d="M180 0l152 1434h86l-152 -1434h-86zM479 631q0 47 33 78.5t78 31.5q41 0 65.5 -26.5t24.5 -65.5q0 -47 -33 -77.5t-78 -30.5q-41 0 -65.5 25.5t-24.5 64.5z" />
<glyph unicode="&#x141;" horiz-adv-x="856" d="M115 545l10 90l129 63l78 736h90l-74 -695l338 166l-8 -88l-340 -166l-59 -567h518l-9 -84h-608l64 610z" />
<glyph unicode="&#x142;" horiz-adv-x="446" d="M43 537l10 90l205 104l74 703h92l-68 -654l222 117l-9 -88l-223 -117l-74 -692h-92l68 643z" />
<glyph unicode="&#x143;" horiz-adv-x="1351" d="M180 0l152 1434h102l666 -1282l135 1282h88l-152 -1434h-100l-665 1282l-136 -1282h-90zM586 1608l538 280l33 -71l-539 -281z" />
<glyph unicode="&#x144;" horiz-adv-x="1142" d="M180 0l92 883h86l-22 -230q23 49 59.5 95.5t85.5 80t110.5 54t133.5 20.5q86 0 148.5 -28.5t103.5 -77.5q41 -53 54 -123t3 -160l-53 -514h-86l51 492q8 70 -3 131t-42 105t-82 69.5t-125 25.5q-86 0 -154.5 -34.5t-115.5 -88t-76 -121t-35 -130.5l-47 -449h-86z M446 1130l539 281l37 -70l-541 -280z" />
<glyph unicode="&#x145;" horiz-adv-x="1351" d="M180 0l152 1434h102l666 -1282l135 1282h88l-152 -1434h-100l-665 1282l-136 -1282h-90zM578 -381l6 51q47 0 88 25.5t41 83.5q0 10 -1 18t-3 21q-20 -16 -47 -17q-31 0 -50.5 20.5t-19.5 51.5q0 37 26.5 62.5t67.5 25.5q47 0 73.5 -38t26.5 -105q0 -102 -57 -150.5 t-151 -48.5z" />
<glyph unicode="&#x146;" horiz-adv-x="1142" d="M180 0l92 883h86l-22 -230q23 49 59.5 95.5t85.5 80t110.5 54t133.5 20.5q86 0 148.5 -28.5t103.5 -77.5q41 -53 54 -123t3 -160l-53 -514h-86l51 492q8 70 -3 131t-42 105t-82 69.5t-125 25.5q-86 0 -154.5 -34.5t-115.5 -88t-76 -121t-35 -130.5l-47 -449h-86z M481 -381l6 51q59 0 86 22.5t37 57.5q4 16 6 33.5t-4 34.5q-20 -16 -47 -17q-31 0 -50 20.5t-19 51.5q0 37 26.5 62.5t67.5 25.5q47 0 73.5 -38t26.5 -105q0 -102 -57.5 -150.5t-151.5 -48.5z" />
<glyph unicode="&#x147;" horiz-adv-x="1351" d="M180 0l152 1434h102l666 -1282l135 1282h88l-152 -1434h-100l-665 1282l-136 -1282h-90zM563 1839l58 62l249 -254l308 254l41 -62l-361 -297z" />
<glyph unicode="&#x148;" horiz-adv-x="1142" d="M180 0l92 883h86l-22 -230q23 49 59.5 95.5t85.5 80t110.5 54t133.5 20.5q86 0 148.5 -28.5t103.5 -77.5q41 -53 54 -123t3 -160l-53 -514h-86l51 492q8 70 -3 131t-42 105t-82 69.5t-125 25.5q-86 0 -154.5 -34.5t-115.5 -88t-76 -121t-35 -130.5l-47 -449h-86z M432 1430l57 63l250 -254l305 254l43 -63l-360 -297z" />
<glyph unicode="&#x149;" horiz-adv-x="1142" d="M180 0l92 883h86l-22 -230q23 49 59.5 95.5t85.5 80t110.5 54t133.5 20.5q86 0 148.5 -28.5t103.5 -77.5q41 -53 54 -123t3 -160l-53 -514h-86l51 492q8 70 -3 131t-42 105t-82 69.5t-125 25.5q-86 0 -154.5 -34.5t-115.5 -88t-76 -121t-35 -130.5l-47 -449h-86z M303 1120l6 51q59 0 86 23t37 57q4 16 6 34t-4 34q-10 -8 -22.5 -11t-24.5 -3q-31 0 -50.5 19t-19.5 50q0 37 27 63.5t68 26.5q47 0 74.5 -37.5t27.5 -105.5q0 -104 -59.5 -152.5t-151.5 -48.5z" />
<glyph unicode="&#x14a;" horiz-adv-x="1351" d="M180 0l152 1434h96l674 -1268l133 1268h88l-162 -1540q-12 -106 -53 -191.5t-105.5 -146t-148.5 -92t-180 -31.5q-121 0 -214 49t-147 137l64 59q47 -78 126 -119.5t179 -41.5q76 0 143.5 25.5t119.5 73.5t86 117.5t42 160.5l10 106l-677 1282l-136 -1282h-90z" />
<glyph unicode="&#x14b;" horiz-adv-x="1142" d="M156 -418l63 60q100 -131 277 -131q76 0 143.5 25.5t117.5 72.5t82.5 116.5t43.5 155.5l65 611q8 70 -3 131t-42 105t-82 69.5t-125 25.5q-86 0 -154.5 -34.5t-116.5 -88t-77 -121t-35 -130.5l-47 -449h-86l94 883h86l-24 -230q23 49 59.5 95.5t86.5 80t111.5 54 t133.5 20.5q86 0 147.5 -28.5t102.5 -77.5q41 -53 55.5 -123t3.5 -160l-67 -633q-10 -104 -51 -187t-104.5 -142.5t-146.5 -91t-178 -31.5q-109 0 -194.5 41t-138.5 112z" />
<glyph unicode="&#x14c;" horiz-adv-x="1656" d="M166 645q0 156 58.5 303.5t166 262t256 183t330.5 68.5q162 0 287 -55t208.5 -148.5t128 -215t44.5 -252.5q0 -158 -59.5 -305.5t-166 -261t-257.5 -183.5t-331 -70q-162 0 -285.5 55.5t-208.5 149.5t-128 215t-43 254zM258 653q0 -117 38 -225.5t111.5 -191t183.5 -132 t251 -49.5q158 0 289 61.5t224 163t144 232.5t51 270q0 117 -37.5 225.5t-110.5 190.5t-181.5 131t-249.5 49q-160 0 -291 -61.5t-224.5 -162.5t-145.5 -231t-52 -270zM635 1636l8 80h733l-8 -80h-733z" />
<glyph unicode="&#x14d;" horiz-adv-x="1112" d="M137 397q0 100 38 192.5t105.5 162t162 110.5t204.5 41q98 0 177 -33.5t133.5 -90t83 -133.5t28.5 -163q0 -100 -38 -191t-106.5 -161t-162.5 -110.5t-207 -40.5q-100 0 -178 33.5t-131 90t-81 132t-28 161.5zM223 403q0 -70 22.5 -132t65.5 -108t106.5 -74t145.5 -28 q90 0 167 34t133.5 90.5t88 132t31.5 159.5q0 70 -23.5 133.5t-67.5 109.5t-107.5 73.5t-143.5 27.5q-92 0 -169 -33.5t-132 -92t-86 -134.5t-31 -158zM313 1190l9 80h733l-8 -80h-734z" />
<glyph unicode="&#x14e;" horiz-adv-x="1656" d="M166 645q0 156 58.5 303.5t166 262t256 183t330.5 68.5q162 0 287 -55t208.5 -148.5t128 -215t44.5 -252.5q0 -158 -59.5 -305.5t-166 -261t-257.5 -183.5t-331 -70q-162 0 -285.5 55.5t-208.5 149.5t-128 215t-43 254zM258 653q0 -117 38 -225.5t111.5 -191t183.5 -132 t251 -49.5q158 0 289 61.5t224 163t144 232.5t51 270q0 117 -37.5 225.5t-110.5 190.5t-181.5 131t-249.5 49q-160 0 -291 -61.5t-224.5 -162.5t-145.5 -231t-52 -270zM604 1790h84q12 -100 98 -153.5t209 -53.5q61 0 118.5 13.5t105 40t81 65.5t48.5 88h84 q-14 -68 -57.5 -121t-104 -91t-134 -57.5t-149.5 -19.5q-78 0 -145.5 20.5t-118.5 57.5t-83 90t-36 121z" />
<glyph unicode="&#x14f;" horiz-adv-x="1112" d="M137 397q0 100 38 192.5t105.5 162t162 110.5t204.5 41q98 0 177 -33.5t133.5 -90t83 -133.5t28.5 -163q0 -100 -38 -191t-106.5 -161t-162.5 -110.5t-207 -40.5q-100 0 -178 33.5t-131 90t-81 132t-28 161.5zM223 403q0 -70 22.5 -132t65.5 -108t106.5 -74t145.5 -28 q90 0 167 34t133.5 90.5t88 132t31.5 159.5q0 70 -23.5 133.5t-67.5 109.5t-107.5 73.5t-143.5 27.5q-92 0 -169 -33.5t-132 -92t-86 -134.5t-31 -158zM291 1434h86q14 -100 99 -153.5t208 -53.5q61 0 118.5 14t105.5 40t82 64.5t46 88.5h82q-14 -68 -56 -121t-102.5 -90 t-134 -56.5t-149.5 -19.5q-78 0 -145.5 19.5t-120 56.5t-84 90t-35.5 121z" />
<glyph unicode="&#x150;" horiz-adv-x="1656" d="M166 645q0 156 58.5 303.5t166 262t256 183t330.5 68.5q162 0 287 -55t208.5 -148.5t128 -215t44.5 -252.5q0 -158 -59.5 -305.5t-166 -261t-257.5 -183.5t-331 -70q-162 0 -285.5 55.5t-208.5 149.5t-128 215t-43 254zM258 653q0 -117 38 -225.5t111.5 -191t183.5 -132 t251 -49.5q158 0 289 61.5t224 163t144 232.5t51 270q0 117 -37.5 225.5t-110.5 190.5t-181.5 131t-249.5 49q-160 0 -291 -61.5t-224.5 -162.5t-145.5 -231t-52 -270zM733 1714l293 340l74 -37l-314 -329zM1133 1714l292 340l74 -37l-313 -331z" />
<glyph unicode="&#x151;" horiz-adv-x="1112" d="M137 397q0 100 38 192.5t105.5 162t162 110.5t204.5 41q98 0 177 -33.5t133.5 -90t83 -133.5t28.5 -163q0 -100 -38 -191t-106.5 -161t-162.5 -110.5t-207 -40.5q-100 0 -178 33.5t-131 90t-81 132t-28 161.5zM223 403q0 -70 22.5 -132t65.5 -108t106.5 -74t145.5 -28 q90 0 167 34t133.5 90.5t88 132t31.5 159.5q0 70 -23.5 133.5t-67.5 109.5t-107.5 73.5t-143.5 27.5q-92 0 -169 -33.5t-132 -92t-86 -134.5t-31 -158zM377 1081l293 340l71 -39l-313 -329zM776 1081l293 340l72 -39l-314 -331z" />
<glyph unicode="&#x152;" horiz-adv-x="2400" d="M166 645q0 156 59.5 303.5t166 261t256 183t329.5 69.5q121 0 220 -31.5t176 -88t129 -132t81 -163.5l41 387h758l-8 -84h-670l-64 -596h670l-8 -82h-670l-61 -588h670l-11 -84h-757l40 385q-47 -88 -115.5 -164t-156.5 -132t-192.5 -88t-223.5 -32q-158 0 -280.5 55.5 t-206.5 149.5t-128 216t-44 255zM258 651q0 -117 38 -225.5t111.5 -191t182.5 -132t250 -49.5q158 0 289 61.5t224 163t145 233.5t52 271q0 117 -37.5 224.5t-111.5 190.5t-182.5 132t-249.5 49q-158 0 -289 -61.5t-225.5 -162.5t-145.5 -232t-51 -271z" />
<glyph unicode="&#x153;" horiz-adv-x="1882" d="M137 397q0 100 38 192.5t105.5 162t161 110.5t205.5 41q154 0 254 -75.5t137 -192.5q55 123 165 195.5t249 72.5q84 0 153.5 -26.5t119 -75.5t77 -117t27.5 -149q0 -33 -4 -55.5t-10 -47.5h-750q-8 -82 8.5 -150.5t56 -118.5t101 -78t145.5 -28q63 0 115.5 16.5t92.5 43 t67.5 60.5t44.5 71h88q-18 -53 -55 -102.5t-90.5 -86t-122 -58t-148.5 -21.5q-78 0 -140.5 20t-108.5 57t-75.5 86.5t-44.5 106.5q-29 -55 -72.5 -104.5t-100 -86t-126 -58t-147.5 -21.5q-98 0 -176 33.5t-131 91t-81 133t-28 159.5zM223 403q0 -70 22.5 -132t65.5 -108 t106.5 -74t145.5 -28q90 0 167 34t133.5 90.5t88 132t31.5 159.5q0 72 -23.5 134.5t-67.5 109.5t-107.5 73.5t-143.5 26.5q-90 0 -167 -33.5t-132 -91t-87 -133.5t-32 -160zM1075 506h666q8 72 -10.5 130t-58.5 100t-98 65.5t-128 23.5q-139 0 -241.5 -85t-129.5 -234z" />
<glyph unicode="&#x154;" horiz-adv-x="1226" d="M180 0l152 1434h481q98 0 177 -33t132.5 -90.5t82 -133t28.5 -161.5q0 -88 -28.5 -168t-82 -145.5t-127 -111.5t-161.5 -65l282 -526h-106l-275 512h-411l-54 -512h-90zM334 596h391q92 0 169 34t132 90t86 131t31 157q0 70 -22.5 132t-66.5 109t-107.5 74t-143.5 27 h-391zM508 1608l539 280l32 -71l-538 -281z" />
<glyph unicode="&#x155;" horiz-adv-x="696" d="M180 0l92 883h86l-24 -244q59 131 159.5 194.5t206.5 63.5q53 0 84 -14l-8 -82q-27 8 -44 10t-36 2q-92 0 -160.5 -37t-116.5 -96t-76 -133t-36 -148l-41 -399h-86zM246 1141l538 280l33 -69l-538 -281z" />
<glyph unicode="&#x156;" horiz-adv-x="1226" d="M180 0l152 1434h481q98 0 177 -33t132.5 -90.5t82 -133t28.5 -161.5q0 -88 -28.5 -168t-82 -145.5t-127 -111.5t-161.5 -65l282 -526h-106l-275 512h-411l-54 -512h-90zM334 596h391q92 0 169 34t132 90t86 131t31 157q0 70 -22.5 132t-66.5 109t-107.5 74t-143.5 27 h-391zM498 -383l6 51q66 0 100.5 30t34.5 79q0 20 -4 29.5t-8 7.5q-10 -4 -18.5 -8.5t-24.5 -4.5q-33 0 -52.5 19.5t-19.5 50.5q0 37 26.5 63.5t67.5 26.5q47 0 74 -38t27 -105q0 -104 -58.5 -152.5t-150.5 -48.5z" />
<glyph unicode="&#x157;" horiz-adv-x="696" d="M109 -381l6 51q59 0 84.5 22.5t36.5 57.5q10 35 2 68q-20 -16 -52 -17q-29 0 -47 20.5t-18 51.5q0 37 26.5 62.5t67.5 25.5q49 0 75.5 -39t26.5 -104q0 -102 -58 -150.5t-150 -48.5zM180 0l92 883h86l-26 -244q59 131 160.5 194.5t207.5 63.5q49 0 84 -14l-8 -82 q-29 8 -46 10t-36 2q-92 0 -160.5 -37t-116.5 -96t-75 -133t-35 -148l-41 -399h-86z" />
<glyph unicode="&#x158;" horiz-adv-x="1226" d="M180 0l152 1434h481q98 0 177 -33t132.5 -90.5t82 -133t28.5 -161.5q0 -88 -28.5 -168t-82 -145.5t-127 -111.5t-161.5 -65l282 -526h-106l-275 512h-411l-54 -512h-90zM334 596h391q92 0 169 34t132 90t86 131t31 157q0 70 -22.5 132t-66.5 109t-107.5 74t-143.5 27 h-391zM467 1839l57 62l250 -252l305 252l43 -62l-360 -297z" />
<glyph unicode="&#x159;" horiz-adv-x="696" d="M180 0l92 883h86l-24 -244q59 131 159.5 194.5t206.5 63.5q53 0 84 -14l-8 -82q-27 8 -44 10t-36 2q-92 0 -160.5 -37t-116.5 -96t-76 -133t-36 -148l-41 -399h-86zM205 1432l57 61l250 -254l305 254l43 -61l-360 -297z" />
<glyph unicode="&#x15a;" horiz-adv-x="1175" d="M147 432h89q-8 -82 12 -151.5t69.5 -119.5t124 -78t176.5 -28q92 0 167 23.5t128.5 66.5t83 104.5t29.5 139.5t-27.5 127t-73.5 81t-105.5 50.5t-123.5 34.5q-84 20 -160.5 44t-136 63.5t-95.5 101t-36 158.5q0 96 36 172.5t100.5 130t152.5 82t195 28.5 q205 0 313.5 -107.5t91.5 -312.5h-90q10 160 -69.5 248t-254.5 88q-86 0 -156.5 -22.5t-120.5 -63.5t-78 -99t-28 -128q0 -80 33 -130t84 -81t112.5 -47t119.5 -31q76 -18 149.5 -42.5t132 -65.5t93 -104.5t34.5 -162.5q0 -100 -38 -180t-106.5 -135t-161.5 -85t-204 -30 q-121 0 -211 34t-149.5 95.5t-85 145.5t-15.5 186zM496 1608l540 280l33 -71l-539 -281z" />
<glyph unicode="&#x15b;" horiz-adv-x="917" d="M131 299h86q-6 -68 11.5 -114t53 -74.5t87 -42t112.5 -13.5q129 0 199 50.5t70 136.5q0 45 -19.5 71.5t-56.5 44t-89.5 29.5t-115.5 27q-57 12 -107.5 26.5t-87 38t-58 60t-21.5 94.5q0 63 25.5 113.5t71.5 85t110.5 53t140.5 18.5q152 0 240.5 -75.5t74.5 -217.5h-84 q10 111 -55.5 164t-179.5 53q-115 0 -187.5 -50t-72.5 -138q0 -37 15 -61.5t47 -41t82 -29t120 -26.5q68 -14 121 -30.5t91 -41t58.5 -62.5t20.5 -95q0 -125 -94.5 -198.5t-264.5 -73.5q-78 0 -145.5 18t-114.5 56t-70.5 98.5t-13.5 146.5zM299 1130l541 281l32 -70 l-538 -280z" />
<glyph unicode="&#x15c;" horiz-adv-x="1175" d="M147 432h89q-8 -82 12 -151.5t69.5 -119.5t124 -78t176.5 -28q90 0 165 23.5t129.5 66.5t84 104.5t29.5 139.5q0 76 -27.5 126t-73.5 82t-105.5 50.5t-123.5 34.5q-84 20 -160.5 44t-136 63.5t-95.5 102t-36 159.5q0 94 36 170.5t100.5 130t152.5 82t195 28.5 q205 0 313.5 -107.5t91.5 -312.5h-90q10 160 -69.5 248t-254.5 88q-86 0 -156.5 -22.5t-120.5 -63.5t-78 -99t-28 -128q0 -80 33 -130t84 -81t112.5 -47t119.5 -31q76 -18 149.5 -42.5t132 -65.5t93 -104.5t34.5 -162.5q0 -100 -38 -180t-106.5 -135t-161.5 -85t-204 -30 q-121 0 -211 34t-149.5 95.5t-85 145.5t-15.5 186zM410 1604l399 297l338 -297l-60 -64l-288 254l-340 -254z" />
<glyph unicode="&#x15d;" horiz-adv-x="917" d="M131 299h86q-6 -68 11.5 -114t53 -74.5t87 -42t112.5 -13.5q129 0 199 50.5t70 136.5q0 45 -19.5 71.5t-56.5 44t-89.5 29.5t-115.5 27q-57 12 -107.5 26.5t-87 38t-58 60t-21.5 94.5q0 63 25.5 113.5t71.5 85t110.5 53t140.5 18.5q152 0 240.5 -75.5t74.5 -217.5h-84 q10 111 -55.5 164t-179.5 53q-115 0 -187.5 -50t-72.5 -138q0 -37 15 -61.5t47 -41t82 -29t120 -26.5q68 -14 121 -30.5t91 -41t58.5 -62.5t20.5 -95q0 -125 -94.5 -198.5t-264.5 -73.5q-78 0 -145.5 18t-114.5 56t-70.5 98.5t-13.5 146.5zM209 1167l399 297l338 -297 l-59 -63l-289 252l-340 -252z" />
<glyph unicode="&#x15e;" horiz-adv-x="1175" d="M147 432h89q-8 -82 12 -151.5t69.5 -119.5t124 -78t176.5 -28q90 0 166 23.5t130.5 66.5t84 105.5t29.5 140.5t-29.5 128t-79 83t-113 51.5t-130.5 34.5q-80 18 -153.5 44t-130 67t-90.5 101.5t-34 152.5q0 94 36 169.5t100.5 129t153.5 82t196 28.5q213 0 316.5 -111.5 t86.5 -308.5h-90q10 160 -68.5 248t-253.5 88q-84 0 -153.5 -21.5t-121.5 -61.5t-81 -97t-29 -131q0 -78 32 -128t81 -82t110.5 -50.5t123.5 -32.5q78 -20 151.5 -43.5t132 -64.5t93 -104.5t34.5 -164.5q0 -102 -39 -181t-107.5 -132t-164.5 -82t-209 -31l-14 -143 q20 35 55 51.5t74 16.5q68 0 112.5 -47.5t44.5 -118.5q0 -41 -15 -79t-43 -66.5t-65.5 -46t-84.5 -17.5q-80 0 -130.5 50t-46.5 134h64q-4 -53 26.5 -89t88.5 -36q66 0 104.5 43t38.5 101q0 49 -29.5 82.5t-87.5 33.5q-27 0 -59.5 -14t-63.5 -68h-57l22 215 q-199 20 -302 144.5t-83 314.5z" />
<glyph unicode="&#x15f;" horiz-adv-x="917" d="M131 299h86q-8 -68 9.5 -114t54 -74.5t88 -42t110.5 -13.5q129 0 199 50.5t70 136.5q0 45 -19.5 71.5t-56.5 44t-89.5 29.5t-115.5 27q-59 12 -108.5 27.5t-86 39t-57 59t-20.5 93.5q0 63 25.5 113.5t71.5 85t110.5 53t140.5 18.5t137 -19.5t103 -56t61.5 -92 t11.5 -125.5h-84q12 111 -53.5 164t-179.5 53q-115 0 -187.5 -50t-72.5 -136q0 -41 18 -65.5t52 -41t83 -27.5t111 -26q68 -16 121 -31.5t91 -40t58.5 -62.5t20.5 -95q0 -121 -91.5 -195.5t-267.5 -76.5l-16 -152q23 35 57.5 51.5t73.5 16.5q68 0 113 -47.5t45 -118.5 q0 -41 -15.5 -79t-43 -66.5t-65.5 -46t-85 -17.5q-35 0 -68 11t-58.5 33.5t-40 57.5t-12.5 82h64q-4 -53 27.5 -89t89.5 -36q63 0 103 42t40 99q0 49 -30.5 84t-90.5 35q-27 0 -58.5 -14t-60.5 -68h-57l23 226q-66 6 -120 27.5t-93 59.5t-56.5 94t-9.5 134z" />
<glyph unicode="&#x160;" horiz-adv-x="1175" d="M147 432h89q-8 -82 12 -151.5t69.5 -119.5t124 -78t176.5 -28q90 0 165 23.5t129.5 66.5t84 104.5t29.5 139.5q0 76 -27.5 126t-73.5 82t-105.5 50.5t-123.5 34.5q-84 20 -160.5 44t-136 63.5t-95.5 102t-36 159.5q0 94 36 170.5t100.5 130t152.5 82t195 28.5 q207 0 314.5 -107.5t90.5 -312.5h-90q10 160 -69.5 248t-254.5 88q-86 0 -156.5 -22.5t-120.5 -63.5t-78 -99t-28 -128q0 -80 33 -130t84 -81t112.5 -47t119.5 -31q76 -18 149.5 -42.5t132 -65.5t93 -104.5t34.5 -162.5q0 -100 -38 -180t-106.5 -135t-161.5 -85t-204 -30 q-121 0 -211 34t-149.5 95.5t-85 145.5t-15.5 186zM479 1862l56 61l249 -252l308 252l43 -61l-361 -297z" />
<glyph unicode="&#x161;" horiz-adv-x="917" d="M131 299h86q-6 -68 11.5 -114t53 -74.5t87 -42t112.5 -13.5q129 0 199 50.5t70 136.5q0 45 -19.5 71.5t-56.5 44t-89.5 29.5t-115.5 27q-57 12 -107.5 26.5t-87 38t-58 60t-21.5 94.5q0 63 25.5 113.5t71.5 85t110.5 53t140.5 18.5q152 0 240.5 -75.5t74.5 -217.5h-84 q10 111 -55.5 164t-179.5 53q-115 0 -187.5 -50t-72.5 -138q0 -37 15 -61.5t47 -41t82 -29t120 -26.5q68 -14 121 -30.5t91 -41t58.5 -62.5t20.5 -95q0 -125 -94.5 -198.5t-264.5 -73.5q-78 0 -145.5 18t-114.5 56t-70.5 98.5t-13.5 146.5zM279 1389l57 61l248 -254l307 254 l43 -61l-363 -297z" />
<glyph unicode="&#x162;" horiz-adv-x="960" d="M174 1350l8 84h895l-8 -84h-403l-142 -1350h-90l141 1350h-401zM367 -383l6 51q66 0 100.5 29t34.5 82q0 16 -3 26.5t-7 8.5q-12 -4 -20.5 -8.5t-24.5 -4.5q-33 0 -52.5 19.5t-19.5 50.5q0 37 26.5 63.5t69.5 26.5q47 0 72.5 -39t25.5 -104q0 -104 -58 -152.5t-150 -48.5 z" />
<glyph unicode="&#x163;" horiz-adv-x="649" d="M125 805l8 78h195l37 360h86l-37 -360h284l-8 -78h-284l-54 -500q-8 -78 2.5 -125t33 -71.5t55 -31.5t69.5 -7q29 0 67.5 3t67.5 7l-8 -80q-29 -4 -70 -8t-82 -4q-45 0 -89 9t-76.5 41t-49 92t-6.5 163l53 512h-194zM195 -383l6 51q66 0 100.5 29t34.5 82q0 31 -10 37 q-10 -8 -23.5 -11.5t-23.5 -3.5q-31 0 -50.5 19.5t-19.5 50.5q0 37 26.5 63.5t69.5 26.5q47 0 72.5 -39t25.5 -104q0 -104 -58 -152.5t-150 -48.5z" />
<glyph unicode="&#x164;" horiz-adv-x="960" d="M174 1350l8 84h895l-8 -84h-403l-142 -1350h-90l141 1350h-401zM344 1839l57 62l248 -252l307 252l43 -62l-360 -297z" />
<glyph unicode="&#x165;" horiz-adv-x="759" d="M125 805l8 78h195l37 360h86l-37 -360h284l-8 -78h-284l-54 -500q-8 -78 2.5 -125t33 -71.5t55 -31.5t69.5 -7q29 0 67.5 3t67.5 7l-8 -80q-29 -4 -70 -8t-82 -4q-45 0 -89 9t-76.5 41t-49 92t-6.5 163l53 512h-194zM573 1022l7 57q66 0 102.5 30t48.5 77q8 29 7 50 t-5 32q-25 -18 -57 -19q-39 0 -63.5 24.5t-24.5 63.5q0 43 32.5 76t86.5 33q59 0 91.5 -46t32.5 -130q0 -127 -73.5 -187.5t-184.5 -60.5z" />
<glyph unicode="&#x166;" horiz-adv-x="960" d="M174 1350l8 84h895l-8 -84h-403l-35 -324h330l-9 -80h-329l-99 -946h-90l98 946h-313l8 80h314l34 324h-401z" />
<glyph unicode="&#x167;" horiz-adv-x="649" d="M88 453l8 77h195l28 275h-194l8 78h195l39 360h86l-39 -360h284l-8 -78h-284l-29 -275h285l-9 -77h-284l-17 -148q-8 -78 2.5 -125t33 -71.5t55 -31.5t69.5 -7q29 0 69 3t66 7l-8 -80q-29 -4 -70 -8t-82 -4q-45 0 -89 9t-76.5 41t-49 92t-6.5 163l17 160h-195z" />
<glyph unicode="&#x168;" horiz-adv-x="1241" d="M201 434l104 1000h88l-104 -1000q-8 -78 11 -146.5t62.5 -119.5t110 -82t152.5 -31q88 0 160.5 32t128 84t88 120.5t40.5 142.5l105 1000h90l-104 -1000q-10 -94 -52.5 -178t-110 -147.5t-157.5 -100.5t-197 -37q-106 0 -188 37t-136 100.5t-78 147.5t-13 178zM444 1669 q47 29 82 44.5t59.5 23.5t43 9t35.5 1q23 0 61.5 -8t80.5 -19.5t83 -19.5t69 -8q10 0 22.5 2t30 8t43 16.5t62.5 28.5l31 -64q-41 -23 -70.5 -36t-52.5 -20t-38 -9t-30 -2q-41 0 -78.5 8t-73.5 19.5t-72 19.5t-73 8q-25 0 -63.5 -10t-116.5 -55z" />
<glyph unicode="&#x169;" horiz-adv-x="1138" d="M195 369l53 514h90l-51 -492q-8 -72 3 -132t41.5 -104t82 -70t125.5 -26q86 0 153.5 35t115.5 88.5t75.5 120t34.5 131.5l47 449h88l-95 -883h-88l25 229q-23 -49 -59.5 -95t-86 -80t-110.5 -54t-135 -20q-168 0 -250 106q-78 98 -59 283zM348 1225q47 29 82 44t59.5 23 t43 9.5t34.5 1.5q23 0 62 -8.5t82 -19.5t84 -19.5t69 -8.5q10 0 22.5 2t29 8.5t42 16.5t62.5 29l31 -64q-41 -23 -71 -36t-51.5 -20t-38 -9.5t-28.5 -2.5q-41 0 -79 8.5t-74.5 19.5t-72.5 19.5t-73 8.5q-25 0 -63.5 -10.5t-116.5 -55.5z" />
<glyph unicode="&#x16a;" horiz-adv-x="1241" d="M201 434l104 1000h88l-104 -1000q-8 -78 11 -146.5t62.5 -119.5t110 -82t152.5 -31q88 0 160.5 32t128 84t88 120.5t40.5 142.5l105 1000h90l-104 -1000q-10 -94 -52.5 -178t-110 -147.5t-157.5 -100.5t-197 -37q-106 0 -188 37t-136 100.5t-78 147.5t-13 178zM426 1636 l8 80h733l-8 -80h-733z" />
<glyph unicode="&#x16b;" horiz-adv-x="1138" d="M195 369l53 514h90l-51 -492q-8 -72 3 -132t41.5 -104t82 -70t125.5 -26q86 0 153.5 35t115.5 88.5t75.5 120t34.5 131.5l47 449h88l-95 -883h-88l25 229q-23 -49 -59.5 -95t-86 -80t-110.5 -54t-135 -20q-168 0 -250 106q-78 98 -59 283zM328 1190l8 80h733l-8 -80h-733 z" />
<glyph unicode="&#x16c;" horiz-adv-x="1241" d="M201 434l104 1000h88l-104 -1000q-8 -78 11 -146.5t62.5 -119.5t110 -82t152.5 -31q88 0 160.5 32t128 84t88 120.5t40.5 142.5l105 1000h90l-104 -1000q-10 -94 -52.5 -178t-110 -147.5t-157.5 -100.5t-197 -37q-106 0 -188 37t-136 100.5t-78 147.5t-13 178zM393 1790 h84q14 -100 99.5 -153.5t207.5 -53.5q61 0 119 14.5t106 40t81.5 64.5t46.5 88h84q-14 -68 -56.5 -121t-103 -90t-134 -56.5t-149.5 -19.5q-78 0 -145.5 19.5t-119.5 56.5t-84 90t-36 121z" />
<glyph unicode="&#x16d;" horiz-adv-x="1138" d="M195 369l53 514h90l-51 -492q-8 -72 3 -132t41.5 -104t82 -70t125.5 -26q86 0 153.5 35t115.5 88.5t75.5 120t34.5 131.5l47 449h88l-95 -883h-88l25 229q-23 -49 -59.5 -95t-86 -80t-110.5 -54t-135 -20q-168 0 -250 106q-78 98 -59 283zM305 1434h86q12 -100 97 -153.5 t208 -53.5q61 0 118.5 14t106 40t82 64.5t48.5 88.5h82q-14 -68 -57.5 -121t-104 -90t-134 -56.5t-149.5 -19.5q-78 0 -145.5 19.5t-118.5 56.5t-83 90t-36 121z" />
<glyph unicode="&#x16e;" horiz-adv-x="1241" d="M201 434l104 1000h88l-104 -1000q-8 -78 11 -146.5t62.5 -119.5t110 -82t152.5 -31q88 0 160.5 32t128 84t88 120.5t40.5 142.5l105 1000h90l-104 -1000q-10 -94 -52.5 -178t-110 -147.5t-157.5 -100.5t-197 -37q-106 0 -188 37t-136 100.5t-78 147.5t-13 178zM551 1726 q0 55 22.5 104.5t61.5 87.5t88 59.5t104 21.5q49 0 91.5 -18.5t73 -49t48 -72.5t17.5 -90q0 -55 -22.5 -105t-61.5 -87t-89 -59.5t-106 -22.5q-49 0 -91 18.5t-71.5 49t-47 72.5t-17.5 91zM623 1731q0 -68 45 -116t116 -48q39 0 76 15t64.5 43t44 62.5t16.5 75.5 q0 68 -46 117t-118 49q-39 0 -74.5 -15.5t-63.5 -43t-44 -63t-16 -76.5z" />
<glyph unicode="&#x16f;" horiz-adv-x="1138" d="M195 369l53 514h90l-51 -492q-8 -72 3 -132t41.5 -104t82 -70t125.5 -26q86 0 153.5 35t115.5 88.5t75.5 120t34.5 131.5l47 449h88l-95 -883h-88l25 229q-23 -49 -59.5 -95t-86 -80t-110.5 -54t-135 -20q-168 0 -250 106q-78 98 -59 283zM459 1370q0 55 23.5 104.5 t61.5 87t88 59t105 21.5q49 0 91 -18t73 -49t48.5 -73t17.5 -89q0 -55 -23.5 -105.5t-61.5 -87t-88.5 -59t-105.5 -22.5q-49 0 -91 18.5t-72.5 50t-48 73.5t-17.5 89zM530 1374q0 -68 46.5 -116t117.5 -48q39 0 76 15.5t63.5 43t43 62.5t16.5 76q0 68 -45 116t-117 48 q-41 0 -77 -15.5t-63.5 -43t-44 -63.5t-16.5 -75z" />
<glyph unicode="&#x170;" horiz-adv-x="1241" d="M201 434l104 1000h88l-104 -1000q-8 -78 11 -146.5t62.5 -119.5t110 -82t152.5 -31q88 0 160.5 32t128 84t88 120.5t40.5 142.5l105 1000h90l-104 -1000q-10 -94 -52.5 -178t-110 -147.5t-157.5 -100.5t-197 -37q-106 0 -188 37t-136 100.5t-78 147.5t-13 178zM483 1546 l291 340l74 -39l-313 -329zM883 1546l291 340l73 -39l-313 -331z" />
<glyph unicode="&#x171;" horiz-adv-x="1138" d="M195 369l53 514h90l-51 -492q-8 -72 3 -132t41.5 -104t82 -70t125.5 -26q86 0 153.5 35t115.5 88.5t75.5 120t34.5 131.5l47 449h88l-95 -883h-88l25 229q-23 -49 -59.5 -95t-86 -80t-110.5 -54t-135 -20q-168 0 -250 106q-78 98 -59 283zM377 1069l293 340l71 -39 l-313 -330zM776 1069l293 340l72 -39l-314 -332z" />
<glyph unicode="&#x172;" horiz-adv-x="1241" d="M201 434l104 1000h88l-104 -1000q-8 -78 11 -146.5t63.5 -119.5t111 -82t152.5 -31q88 0 160.5 32t127 84t87 120.5t40.5 142.5l105 1000h90l-104 -1000q-10 -90 -49.5 -172t-104 -144.5t-150.5 -101.5t-186 -45q-61 -47 -94 -98t-33 -102q0 -53 39 -93t117 -40 q41 0 87 10t79 20l-13 -71q-33 -10 -79 -20.5t-97 -10.5q-113 0 -166 52t-53 130q0 63 37 116.5t115 108.5q-98 6 -173 45t-124 101.5t-72 143.5t-12 171z" />
<glyph unicode="&#x173;" horiz-adv-x="1138" d="M195 369l53 514h90l-51 -492q-8 -72 3 -132t41.5 -104t82 -70t125.5 -26q86 0 153.5 35t115.5 88.5t75.5 120t34.5 131.5l47 449h88l-95 -883h-26q-76 -53 -120 -111.5t-44 -117.5q0 -53 39 -93t119 -40q41 0 86 10t75 20l-10 -71q-35 -10 -81 -20.5t-97 -10.5 q-111 0 -164 52t-53 130q0 76 49 134.5t139 117.5l25 229q-23 -49 -59.5 -95t-86 -80t-110.5 -54t-135 -20q-168 0 -250 106q-78 98 -59 283z" />
<glyph unicode="&#x174;" horiz-adv-x="1896" d="M166 1434h94l287 -1289l516 1289h76l245 -1289l558 1289h94l-633 -1434h-74l-246 1286l-514 -1286h-75zM750 1604l399 297l338 -297l-62 -64l-288 254l-340 -254z" />
<glyph unicode="&#x175;" horiz-adv-x="1423" d="M117 883h92l201 -758l350 758h88l188 -758l363 758h92l-432 -883h-70l-196 782l-361 -782h-67zM465 1167l399 297l338 -297l-61 -63l-289 252l-340 -252z" />
<glyph unicode="&#x176;" horiz-adv-x="1118" d="M166 1434h106l412 -779l485 779h99l-893 -1434h-101l353 563zM360 1604l400 297l338 -297l-62 -64l-288 254l-340 -254z" />
<glyph unicode="&#x177;" horiz-adv-x="1150" d="M150 -147h83q-6 -82 5.5 -146.5t45 -108.5t92 -67t146.5 -23q80 0 142.5 20.5t106.5 67t71.5 119t38.5 179.5l34 335q-23 -47 -56.5 -92t-81.5 -79.5t-111.5 -56t-145.5 -21.5t-145.5 23.5t-104.5 76.5q-39 47 -51 114.5t0 190.5l53 498h84l-49 -477q-8 -76 -1 -139.5 t35 -109.5t78 -72t130 -26q94 0 163.5 35t118 88.5t75 120t32.5 131.5l47 449h86l-104 -989q-27 -252 -139.5 -358.5t-313.5 -106.5q-215 0 -298 107.5t-66 316.5zM330 1167l399 297l338 -297l-59 -63l-291 252l-338 -252z" />
<glyph unicode="&#x178;" horiz-adv-x="1118" d="M166 1434h106l412 -779l485 779h99l-893 -1434h-101l353 563zM430 1669q0 45 33 77t76 32q41 0 65.5 -27t24.5 -65q0 -45 -32 -75t-77 -30q-39 0 -64.5 24.5t-25.5 63.5zM903 1667q0 47 32 79t77 32q41 0 65.5 -27t24.5 -65q0 -45 -33 -75t-78 -30q-41 0 -64.5 24.5 t-23.5 61.5z" />
<glyph unicode="&#x179;" horiz-adv-x="1105" d="M35 0l1042 1350h-858l10 84h1014l-1044 -1350h931l-8 -84h-1087zM485 1620l541 281l33 -72l-541 -281z" />
<glyph unicode="&#x17a;" horiz-adv-x="874" d="M57 0l674 803h-563l8 80h721l-674 -803h596l-8 -80h-754zM281 1130l538 281l35 -72l-541 -280z" />
<glyph unicode="&#x17b;" horiz-adv-x="1105" d="M35 0l1042 1350h-858l10 84h1014l-1044 -1350h931l-8 -84h-1087zM637 1673q0 47 32.5 79t78.5 32q41 0 66.5 -26.5t25.5 -65.5q0 -47 -34 -78t-79 -31q-41 0 -65.5 25.5t-24.5 64.5z" />
<glyph unicode="&#x17c;" horiz-adv-x="874" d="M57 0l674 803h-563l8 80h721l-674 -803h596l-8 -80h-754zM467 1219q0 47 31.5 78.5t76.5 31.5q41 0 67 -26.5t26 -65.5q0 -47 -34 -78t-77 -31q-41 0 -65.5 26t-24.5 65z" />
<glyph unicode="&#x17d;" horiz-adv-x="1105" d="M35 0l1042 1350h-858l10 84h1014l-1044 -1350h931l-8 -84h-1087zM479 1829l56 61l249 -254l308 254l43 -61l-361 -297z" />
<glyph unicode="&#x17e;" horiz-adv-x="874" d="M57 0l674 803h-563l8 80h721l-674 -803h596l-8 -80h-754zM264 1360l58 61l247 -254l308 254l43 -61l-361 -297z" />
<glyph unicode="&#x17f;" horiz-adv-x="659" d="M133 805l8 78h211l27 245q12 106 44 170t74 96.5t89 42t90 9.5t69.5 -6t51.5 -17l-9 -77q-27 10 -50 15t-58 5t-70 -7t-64.5 -30.5t-51 -70t-29.5 -123.5l-119 -1135h-86l84 805h-211z" />
<glyph unicode="&#x192;" horiz-adv-x="811" d="M-193 -516l23 78q23 -10 46.5 -15.5t57.5 -5.5q35 0 72 7.5t71 32t62.5 69.5t50.5 123l291 1032h-213l23 78h211l67 245q29 106 72 170t92 96.5t98.5 42t92.5 9.5t69.5 -6t48.5 -17l-22 -77q-25 10 -48.5 15t-64.5 5q-25 0 -57.5 -5t-67 -27.5t-66.5 -68.5t-57 -130 l-71 -252h303l-23 -78h-301l-288 -1026q-29 -104 -71 -167t-89 -96.5t-97.5 -44t-95.5 -10.5q-43 0 -69.5 6.5t-49.5 16.5z" />
<glyph unicode="&#x1fa;" horiz-adv-x="1093" d="M16 0l631 1405q-37 10 -59.5 44t-22.5 75q0 61 47 106t109 45q55 0 91 -37t36 -90q0 -49 -31 -88t-78 -53l336 -1407h-94l-70 295h-669l-131 -295h-95zM279 379h612l-207 919zM444 1671l539 281l25 -56l-539 -280zM621 1528q0 -31 20.5 -54.5t54.5 -23.5q41 0 70 28.5 t29 65.5q0 33 -22.5 56.5t-57.5 23.5q-41 0 -67.5 -28.5t-26.5 -67.5z" />
<glyph unicode="&#x1fb;" horiz-adv-x="1200" d="M137 397q0 100 38 192.5t105.5 162t161 110.5t201.5 41q141 0 233.5 -67.5t124.5 -178.5l25 226h86l-92 -883h-86l22 225q-55 -111 -161.5 -178t-247.5 -67q-96 0 -172 33.5t-128 90t-81 132t-29 161.5zM223 403q0 -70 22.5 -131t66.5 -108t107.5 -75t145.5 -28 q90 0 167 34t132.5 91.5t87 133t31.5 159.5q0 76 -25.5 138.5t-71.5 107.5t-109.5 70.5t-139.5 25.5q-90 0 -166 -33.5t-131 -91t-86 -133.5t-31 -160zM418 1231q0 55 22.5 104t61.5 87t89 59.5t105 21.5q49 0 91 -18.5t73 -49t48.5 -72.5t17.5 -89q0 -55 -23.5 -105.5 t-61.5 -87.5t-88.5 -59.5t-105.5 -22.5q-49 0 -91 18.5t-72.5 50.5t-48 74t-17.5 89zM422 1575l539 280l34 -71l-538 -281zM489 1237q0 -70 47.5 -118t118.5 -48q39 0 75 15.5t63.5 43t44 62.5t16.5 76q0 68 -47 116t-119 48q-39 0 -74.5 -15.5t-63.5 -42t-44.5 -62.5 t-16.5 -75z" />
<glyph unicode="&#x1fc;" horiz-adv-x="1695" d="M6 0l879 1434h790l-10 -84h-668l-61 -596h668l-11 -82h-667l-62 -588h668l-8 -84h-758l31 295h-514l-179 -295h-98zM334 379h471l98 934zM979 1608l539 280l32 -71l-538 -281z" />
<glyph unicode="&#x1fd;" horiz-adv-x="1882" d="M137 397q0 100 38 192.5t105.5 162t161 110.5t201.5 41q141 0 233.5 -67.5t124.5 -178.5l25 226h86l-18 -172q57 86 149 139t211 53q82 0 151.5 -27.5t119 -76.5t77 -117t27.5 -147q0 -33 -4 -55.5t-10 -47.5h-750q-8 -80 8.5 -148.5t54 -118.5t100 -79t146.5 -29 q127 0 207 56.5t115 134.5h88q-18 -53 -55 -102.5t-90.5 -86t-121 -58t-147.5 -21.5q-131 0 -213 55t-119 141l-18 -176h-86l22 225q-55 -111 -161.5 -178t-247.5 -67q-96 0 -172 33.5t-128 90t-81 132t-29 161.5zM223 403q0 -70 22.5 -132t66.5 -108t107.5 -74t145.5 -28 q92 0 168 34t131.5 91.5t86 132t30.5 158.5q0 72 -23.5 134.5t-67.5 109.5t-107.5 73.5t-143.5 26.5q-90 0 -166 -33.5t-131 -91t-87 -133.5t-32 -160zM782 1122l541 281l33 -72l-539 -280zM1075 506h666q6 72 -12.5 130t-57.5 100t-97 65.5t-128 23.5q-139 0 -241.5 -85 t-129.5 -234z" />
<glyph unicode="&#x1fe;" horiz-adv-x="1656" d="M166 645q0 156 58.5 303.5t166 262t258 183t334.5 68.5q133 0 236 -39l79 150l76 -33l-78 -147q86 -41 150.5 -105.5t108.5 -144.5t67 -171t23 -186q0 -156 -59.5 -302t-167 -259.5t-258.5 -183.5t-335 -70q-145 0 -264 47l-78 -151l-77 33l81 153q-80 43 -139 106.5 t-100 141.5t-61.5 165t-20.5 179zM258 655q0 -80 17.5 -156.5t52 -144t85 -124t117.5 -95.5l648 1213q-90 31 -203 30q-162 0 -294 -61.5t-226.5 -161.5t-145.5 -231.5t-51 -268.5zM602 98q100 -43 232 -43q162 0 294 61.5t226 163t145 231.5t51 267q0 84 -19.5 164 t-57 149.5t-93 126t-127.5 93.5zM721 1606l539 280l36 -71l-540 -281z" />
<glyph unicode="&#x1ff;" horiz-adv-x="1112" d="M137 397q0 100 38 192.5t105.5 162t161 110.5t201.5 41q41 0 71.5 -5t59.5 -13l64 119l73 -33l-63 -115q106 -49 163.5 -149.5t57.5 -223.5q0 -100 -38 -191t-106.5 -161t-163.5 -110.5t-208 -40.5q-90 0 -160 28l-71 -133l-72 31l72 135q-88 53 -136.5 148.5 t-48.5 207.5zM223 406q0 -90 37 -167t105 -120l368 690q-43 12 -94 12q-90 0 -167 -33.5t-132 -91t-86 -133t-31 -157.5zM397 1130l539 281l37 -70l-541 -280zM434 84q51 -23 123 -23q94 0 172 34t134.5 91.5t87 132t30.5 156.5q0 98 -44 180t-130 123z" />
<glyph unicode="&#x218;" horiz-adv-x="1175" d="M147 432h89q-8 -82 12 -151.5t69.5 -119.5t124 -78t176.5 -28q92 0 167 23.5t128.5 66.5t83 104.5t29.5 139.5q0 76 -28.5 125t-74.5 81t-105.5 51.5t-121.5 35.5q-84 20 -160.5 45t-136 64.5t-95.5 101t-36 158.5q0 94 36 170.5t100.5 130t152.5 82t195 28.5 q205 0 313.5 -107.5t91.5 -312.5h-90q10 160 -69.5 248t-254.5 88q-86 0 -156.5 -22.5t-120.5 -63.5t-78 -99t-28 -128q0 -80 33 -130t84 -81t112.5 -47t119.5 -31q82 -20 156.5 -47t131 -69t89 -104t32.5 -157q0 -100 -38 -179t-106.5 -134t-161.5 -85t-204 -30 q-121 0 -211 34t-149.5 95.5t-85 145.5t-15.5 186zM504 -403l6 51q66 0 100.5 28.5t34.5 75.5q0 20 -4 29.5t-8 13.5q-16 -16 -47 -16q-29 0 -49.5 20t-20.5 51q0 37 27.5 63t68.5 26q47 0 74 -38t27 -106q0 -102 -58.5 -150t-150.5 -48z" />
<glyph unicode="&#x219;" horiz-adv-x="917" d="M131 299h86q-6 -68 11.5 -114t53 -74.5t87 -42t112.5 -13.5q129 0 199 50.5t70 136.5q0 45 -19.5 71.5t-56.5 44t-89.5 29.5t-115.5 27q-57 12 -107.5 26.5t-87 38t-58 60t-21.5 94.5q0 63 25.5 113.5t71.5 85t110.5 53t140.5 18.5q152 0 240.5 -75.5t74.5 -217.5h-84 q10 111 -55.5 164t-179.5 53q-115 0 -187.5 -50t-72.5 -138q0 -37 15 -61.5t47 -41t82 -29t120 -26.5q68 -14 121 -30.5t91 -41t58.5 -62.5t20.5 -95q0 -125 -94.5 -198.5t-264.5 -73.5q-78 0 -145.5 18t-114.5 56t-70.5 98.5t-13.5 146.5zM365 -373l6 51q66 0 100.5 29 t34.5 82q0 31 -10 37q-10 -8 -22.5 -11t-22.5 -3q-33 0 -52.5 19t-19.5 50q0 37 26.5 63.5t69.5 26.5q47 0 72.5 -38.5t25.5 -104.5q0 -104 -58 -152.5t-150 -48.5z" />
<glyph unicode="&#x21a;" horiz-adv-x="960" d="M174 1350l8 84h895l-8 -84h-403l-142 -1350h-90l141 1350h-401zM367 -383l6 51q66 0 100.5 29t34.5 82q0 16 -3 26.5t-7 8.5q-12 -4 -20.5 -8.5t-24.5 -4.5q-33 0 -52.5 19.5t-19.5 50.5q0 37 26.5 63.5t69.5 26.5q47 0 72.5 -39t25.5 -104q0 -104 -58 -152.5t-150 -48.5 z" />
<glyph unicode="&#x21b;" horiz-adv-x="649" d="M125 805l8 78h195l37 360h86l-37 -360h284l-8 -78h-284l-54 -500q-8 -78 2.5 -125t33 -71.5t55 -31.5t69.5 -7q29 0 67.5 3t67.5 7l-8 -80q-29 -4 -70 -8t-82 -4q-45 0 -89 9t-76.5 41t-49 92t-6.5 163l53 512h-194zM195 -383l6 51q66 0 100.5 29t34.5 82q0 31 -10 37 q-10 -8 -23.5 -11.5t-23.5 -3.5q-31 0 -50.5 19.5t-19.5 50.5q0 37 26.5 63.5t69.5 26.5q47 0 72.5 -39t25.5 -104q0 -104 -58 -152.5t-150 -48.5z" />
<glyph unicode="&#x2bc;" horiz-adv-x="495" d="M256 1094l6 55q66 0 102.5 29.5t49.5 76.5q8 29 7 51.5t-5 32.5q-23 -20 -58 -20q-39 0 -63.5 24.5t-24.5 63.5q0 43 33 76t86 33q59 0 91 -46.5t32 -130.5q0 -127 -71.5 -186t-184.5 -59z" />
<glyph unicode="&#x2c6;" horiz-adv-x="864" d="M213 1427l399 297l338 -297l-59 -63l-289 254l-340 -254z" />
<glyph unicode="&#x2c7;" horiz-adv-x="770" d="M219 1534l55 61l250 -252l305 252l45 -61l-360 -297z" />
<glyph unicode="&#x2d8;" horiz-adv-x="1028" d="M279 1720h83q14 -100 98.5 -153.5t207.5 -53.5q61 0 118.5 14.5t105.5 40t82 64.5t48 88h84q-14 -68 -57 -121t-103.5 -89.5t-134.5 -56t-149 -19.5q-78 0 -145.5 19.5t-119 56t-83 90t-35.5 120.5z" />
<glyph unicode="&#x2d9;" horiz-adv-x="559" d="M322 1333q0 47 32.5 79t77.5 32q41 0 65.5 -26.5t24.5 -65.5q0 -47 -32.5 -78t-77.5 -31q-41 0 -65.5 25.5t-24.5 64.5z" />
<glyph unicode="&#x2da;" horiz-adv-x="802" d="M301 1438q0 55 23.5 104t61.5 87t88.5 59.5t105.5 21.5q49 0 91 -18.5t72.5 -49t47 -72.5t16.5 -89q0 -55 -22.5 -105.5t-61.5 -87.5t-88 -59.5t-105 -22.5q-49 0 -91 18.5t-72.5 50.5t-48 74t-17.5 89zM373 1442q0 -68 46 -116t118 -48q39 0 74.5 15.5t63 43t44 62.5 t16.5 76q0 68 -45 116.5t-117 48.5q-39 0 -75.5 -15t-64 -43t-44 -63.5t-16.5 -76.5z" />
<glyph unicode="&#x2db;" horiz-adv-x="669" d="M129 -252q0 76 50 134.5t143 117.5h59q-78 -53 -122 -111.5t-44 -117.5q0 -53 39 -93t117 -40q39 0 86 9t80 21l-11 -71q-35 -10 -82 -20.5t-98 -10.5q-111 0 -164 52t-53 130z" />
<glyph unicode="&#x2dc;" horiz-adv-x="899" d="M268 1356q47 29 82 44t59.5 23.5t43 9.5t34.5 1q23 0 62 -8.5t81 -19.5t83 -19.5t69 -8.5q10 0 22.5 2t30 8.5t43 16.5t62.5 29l29 -64q-82 -45 -123 -56t-72 -11q-39 0 -75.5 8t-73.5 19t-72 19.5t-72 8.5q-25 0 -63.5 -10.5t-114.5 -53.5z" />
<glyph unicode="&#x2dd;" horiz-adv-x="870" d="M209 1163l291 340l73 -39l-311 -329zM608 1163l291 340l74 -39l-311 -329z" />
<glyph unicode="&#x394;" horiz-adv-x="1093" d="M16 0l646 1434h73l340 -1434h-1059zM150 84h811l-277 1214z" />
<glyph unicode="&#x3a9;" horiz-adv-x="1478" d="M150 0l8 84h444l10 98q-98 25 -178 79t-136 130t-88 171t-32 204q0 139 51.5 265t145.5 221.5t224 151.5t290 56q141 0 250.5 -45t183.5 -123t112 -182t38 -223q0 -129 -43.5 -245t-120 -208t-180 -156.5t-226.5 -95.5l-10 -98h444l-8 -84h-522l24 240q117 18 218.5 75.5 t175 142.5t115.5 193.5t42 231.5q0 102 -31.5 192t-95 156.5t-157.5 105.5t-217 39q-139 0 -252 -48t-193 -131t-123 -192.5t-43 -232.5q0 -100 30 -189t85 -160t134 -119t177 -64l-24 -240h-522z" />
<glyph unicode="&#x3bc;" d="M121 -551l151 1434h84l-51 -492q-8 -72 3 -132t42 -104t82 -70t125 -26q86 0 154.5 35t117 88.5t77 120t34.5 131.5l47 449h86l-94 -883h-86l25 229q-23 -49 -61 -95t-87 -80t-109.5 -54t-130.5 -20q-184 0 -254 139l-69 -670h-86z" />
<glyph unicode="&#x3c0;" d="M248 803l8 80h827l-8 -80h-96l-84 -803h-86l84 803h-461l-84 -803h-86l84 803h-98z" />
<glyph unicode="&#x1e80;" horiz-adv-x="1896" d="M166 1434h94l287 -1289l516 1289h76l245 -1289l558 1289h94l-633 -1434h-74l-246 1286l-514 -1286h-75zM864 1817l49 71l482 -280l-52 -72z" />
<glyph unicode="&#x1e81;" horiz-adv-x="1423" d="M117 883h92l201 -758l350 758h88l188 -758l363 758h92l-432 -883h-70l-196 782l-361 -782h-67zM578 1341l47 70l481 -281l-49 -69z" />
<glyph unicode="&#x1e82;" horiz-adv-x="1896" d="M166 1434h94l287 -1289l516 1289h76l245 -1289l558 1289h94l-633 -1434h-74l-246 1286l-514 -1286h-75zM842 1608l538 280l37 -71l-540 -281z" />
<glyph unicode="&#x1e83;" horiz-adv-x="1423" d="M117 883h92l201 -758l350 758h88l188 -758l363 758h92l-432 -883h-70l-196 782l-361 -782h-67zM555 1130l539 281l34 -70l-540 -280z" />
<glyph unicode="&#x1e84;" horiz-adv-x="1896" d="M166 1434h94l287 -1289l516 1289h76l245 -1289l558 1289h94l-633 -1434h-74l-246 1286l-514 -1286h-75zM791 1677q0 45 31.5 76t76.5 31q39 0 63.5 -25.5t24.5 -64.5q0 -45 -31.5 -76t-76.5 -31q-39 0 -63.5 25.5t-24.5 64.5zM1264 1677q0 45 30.5 76t75.5 31 q41 0 65.5 -25.5t24.5 -64.5q0 -45 -31.5 -76t-76.5 -31q-41 0 -64.5 25.5t-23.5 64.5z" />
<glyph unicode="&#x1e85;" horiz-adv-x="1423" d="M117 883h92l201 -758l350 758h88l188 -758l363 758h92l-432 -883h-70l-196 782l-361 -782h-67zM506 1223q0 45 30.5 75.5t75.5 30.5q39 0 64.5 -25.5t25.5 -64.5q0 -45 -32.5 -75.5t-77.5 -30.5q-39 0 -62.5 25.5t-23.5 64.5zM977 1223q0 45 31.5 75.5t76.5 30.5 q39 0 64 -25.5t25 -64.5q0 -45 -32 -75.5t-77 -30.5q-39 0 -63.5 25.5t-24.5 64.5z" />
<glyph unicode="&#x1ef2;" horiz-adv-x="1118" d="M166 1434h106l412 -779l485 779h99l-893 -1434h-101l353 563zM475 1817l49 71l482 -280l-52 -72z" />
<glyph unicode="&#x1ef3;" horiz-adv-x="1150" d="M150 -147h83q-6 -82 5.5 -146.5t45 -108.5t92 -67t146.5 -23q80 0 142.5 20.5t106.5 67t71.5 119t38.5 179.5l34 335q-23 -47 -56.5 -92t-81.5 -79.5t-111.5 -56t-145.5 -21.5t-145.5 23.5t-104.5 76.5q-39 47 -51 114.5t0 190.5l53 498h84l-49 -477q-8 -76 -1 -139.5 t35 -109.5t78 -72t130 -26q94 0 163.5 35t118 88.5t75 120t32.5 131.5l47 449h86l-104 -989q-27 -252 -139.5 -358.5t-313.5 -106.5q-215 0 -298 107.5t-66 316.5zM440 1341l49 70l482 -281l-51 -69z" />
<glyph unicode="&#x2000;" horiz-adv-x="1027" />
<glyph unicode="&#x2001;" horiz-adv-x="2054" />
<glyph unicode="&#x2002;" horiz-adv-x="1027" />
<glyph unicode="&#x2003;" horiz-adv-x="2054" />
<glyph unicode="&#x2004;" horiz-adv-x="684" />
<glyph unicode="&#x2005;" horiz-adv-x="513" />
<glyph unicode="&#x2006;" horiz-adv-x="342" />
<glyph unicode="&#x2007;" horiz-adv-x="342" />
<glyph unicode="&#x2008;" horiz-adv-x="256" />
<glyph unicode="&#x2009;" horiz-adv-x="410" />
<glyph unicode="&#x200a;" horiz-adv-x="114" />
<glyph unicode="&#x2010;" horiz-adv-x="602" d="M119 543l8 82h479l-8 -82h-479z" />
<glyph unicode="&#x2011;" horiz-adv-x="602" d="M119 543l8 82h479l-8 -82h-479z" />
<glyph unicode="&#x2012;" horiz-adv-x="602" d="M119 543l8 82h479l-8 -82h-479z" />
<glyph unicode="&#x2013;" horiz-adv-x="1030" d="M160 543l8 82h825l-8 -82h-825z" />
<glyph unicode="&#x2014;" horiz-adv-x="2060" d="M160 543l8 82h1855l-8 -82h-1855z" />
<glyph unicode="&#x2018;" horiz-adv-x="495" d="M256 1270q0 127 71.5 186.5t184.5 59.5l-4 -56q-66 0 -103.5 -29.5t-50.5 -76.5q-8 -29 -6 -52.5t6 -31.5q10 10 25.5 15t32.5 5q39 0 62.5 -26.5t23.5 -63.5q0 -43 -32 -74.5t-85 -31.5q-59 0 -92 46t-33 130z" />
<glyph unicode="&#x2019;" horiz-adv-x="495" d="M256 1094l6 55q66 0 102.5 29.5t49.5 76.5q8 29 7 51.5t-5 32.5q-23 -20 -58 -20q-39 0 -63.5 24.5t-24.5 63.5q0 43 33 76t86 33q59 0 91 -46.5t32 -130.5q0 -127 -71.5 -186t-184.5 -59z" />
<glyph unicode="&#x201a;" horiz-adv-x="495" d="M117 -242l6 56q66 0 102.5 29.5t48.5 76.5q8 29 7.5 52.5t-5.5 31.5q-23 -20 -57 -20q-41 0 -64.5 25.5t-23.5 62.5q0 45 33 77.5t86 32.5q59 0 91 -47t32 -131q0 -127 -72 -186.5t-184 -59.5z" />
<glyph unicode="&#x201c;" horiz-adv-x="800" d="M256 1270q0 127 71.5 186.5t184.5 59.5l-4 -56q-66 0 -103.5 -29.5t-50.5 -76.5q-8 -29 -6 -52.5t6 -31.5q10 10 25.5 15t32.5 5q39 0 62.5 -26.5t23.5 -63.5q0 -43 -32 -74.5t-85 -31.5q-59 0 -92 46t-33 130zM563 1268q0 129 73 188.5t183 59.5l-4 -56 q-78 0 -109.5 -32.5t-43.5 -73.5q-10 -33 -8.5 -53.5t8.5 -30.5q10 10 25 15t32 5q37 0 60.5 -25.5t23.5 -62.5q0 -43 -32 -75.5t-85 -32.5q-59 0 -91 46t-32 128z" />
<glyph unicode="&#x201d;" horiz-adv-x="800" d="M256 1094l6 55q66 0 102.5 29.5t49.5 76.5q8 29 7 51.5t-5 32.5q-23 -20 -58 -20q-39 0 -63.5 24.5t-24.5 63.5q0 43 33 76t86 33q59 0 91 -46.5t32 -130.5q0 -127 -71.5 -186t-184.5 -59zM561 1094l6 55q68 0 101.5 27.5t50.5 78.5q16 53 2 84q-10 -10 -25.5 -15 t-31.5 -5q-39 0 -62.5 24.5t-23.5 63.5q0 43 32.5 76t85.5 33q59 0 91 -45.5t32 -129.5q0 -129 -71.5 -188t-186.5 -59z" />
<glyph unicode="&#x201e;" horiz-adv-x="800" d="M117 -242l6 56q66 0 102.5 29.5t48.5 76.5q8 29 7.5 52.5t-5.5 31.5q-23 -20 -57 -20q-41 0 -64.5 25.5t-23.5 62.5q0 45 33 77.5t86 32.5q59 0 91 -47t32 -131q0 -127 -72 -186.5t-184 -59.5zM422 -242l6 56q68 0 101.5 27.5t50.5 78.5q16 53 2 84q-10 -10 -25.5 -15 t-32.5 -5q-39 0 -62.5 25.5t-23.5 62.5q0 43 32 76.5t85 33.5q59 0 91 -46t32 -130q0 -129 -71.5 -188.5t-184.5 -59.5z" />
<glyph unicode="&#x2020;" horiz-adv-x="737" d="M123 815l8 80h287l61 573h88l-61 -573h289l-9 -80h-288l-125 -1188h-88l125 1188h-287z" />
<glyph unicode="&#x2021;" horiz-adv-x="737" d="M43 57l8 78h287l72 680h-287l8 80h287l59 573h88l-59 -573h289l-9 -80h-288l-72 -680h289l-8 -78h-289l-45 -430h-88l45 430h-287z" />
<glyph unicode="&#x2022;" horiz-adv-x="692" d="M174 618q0 53 21.5 100.5t58.5 83.5t84 56.5t100 20.5q94 0 154.5 -63.5t60.5 -156.5q0 -53 -21.5 -100t-57 -82t-84 -55.5t-99.5 -20.5q-96 0 -156.5 62.5t-60.5 154.5z" />
<glyph unicode="&#x2026;" horiz-adv-x="1816" d="M117 82q0 47 32.5 79t77.5 32q41 0 66.5 -26t25.5 -67q0 -47 -33.5 -77.5t-78.5 -30.5q-41 0 -65.5 25.5t-24.5 64.5zM817 82q0 47 33 79t78 32q41 0 66.5 -27t25.5 -66q0 -47 -34 -77.5t-79 -30.5q-41 0 -65.5 25.5t-24.5 64.5zM1518 82q0 47 32.5 79t77.5 32 q41 0 66.5 -27t25.5 -66q0 -47 -33.5 -77.5t-78.5 -30.5q-41 0 -65.5 25.5t-24.5 64.5z" />
<glyph unicode="&#x202f;" horiz-adv-x="410" />
<glyph unicode="&#x2030;" horiz-adv-x="2416" d="M164 891l35 313q6 51 29.5 95t61.5 78t88 53.5t109 19.5q61 0 108.5 -20.5t78.5 -55.5t45 -82t8 -100l-33 -313q-6 -49 -30.5 -94.5t-63.5 -79t-90 -53t-109 -19.5q-61 0 -107 20.5t-77 56t-45 82t-8 99.5zM242 891q-8 -78 37 -134.5t131 -56.5t142 56.5t64 134.5l33 301 q8 78 -38 135t-132 57t-141 -57t-64 -135zM371 -4l1056 1542l68 -41l-1059 -1542zM1167 244l35 313q6 51 29.5 95t61.5 78t88.5 53.5t109.5 19.5q61 0 107.5 -20.5t77 -55.5t45 -82t8.5 -100l-33 -314q-6 -49 -30 -94t-62.5 -78.5t-90 -53t-108.5 -19.5q-61 0 -107.5 20.5 t-77 56t-45 81.5t-8.5 100zM1245 244q-8 -78 36 -134.5t130 -56.5q43 0 80 15.5t64.5 41t44 60.5t20.5 74l31 301q8 78 -37 135t-131 57t-142.5 -57t-64.5 -135zM1843 244l35 313q6 51 29.5 95t61.5 78t88 53.5t110 19.5q61 0 107 -20.5t77 -55.5t45 -82t8 -100l-32 -314 q-6 -49 -30 -94t-62.5 -78.5t-90 -53t-108.5 -19.5q-61 0 -107.5 20.5t-77 56t-45 81.5t-8.5 100zM1921 244q-8 -78 36 -134.5t130 -56.5q43 0 80 15.5t64.5 41t44 60.5t20.5 74l31 301q8 78 -37 135t-131 57t-142.5 -57t-64.5 -135z" />
<glyph unicode="&#x2039;" horiz-adv-x="565" d="M141 565l6 64l439 354l-8 -96l-357 -291l295 -291l-10 -94z" />
<glyph unicode="&#x203a;" horiz-adv-x="565" d="M104 211l11 94l356 291l-295 291l10 96l363 -354l-6 -64z" />
<glyph unicode="&#x2044;" horiz-adv-x="413" d="M-276 -4l1056 1542l68 -41l-1059 -1542z" />
<glyph unicode="&#x205f;" horiz-adv-x="513" />
<glyph unicode="&#x20ac;" horiz-adv-x="1265" d="M127 506l27 72h114l27 268h-125l27 72h106l8 69q10 94 52.5 178t109 147.5t155.5 100.5t193 37t185 -36t134.5 -97.5t79 -142t17.5 -173.5h-90q6 74 -13.5 140.5t-62.5 117t-108.5 79t-149.5 28.5q-86 0 -156.5 -30.5t-125 -82t-88 -121t-42.5 -145.5l-8 -69h551l-26 -72 h-533l-27 -268h543l-27 -72h-524l-6 -66q-6 -76 12.5 -144.5t61.5 -119.5t107.5 -82t150.5 -31t157.5 31t127 82t89 120t42.5 144h88q-10 -92 -52.5 -176t-110 -147.5t-156.5 -100t-195 -36.5t-187.5 36.5t-133.5 100t-75.5 147.5t-15.5 176l6 66h-133z" />
<glyph unicode="&#x2113;" horiz-adv-x="753" d="M45 324l193 147l59 567q10 100 30.5 180t55.5 135.5t88 85t131 29.5q121 0 181.5 -72.5t60.5 -209.5q0 -96 -31 -180t-95.5 -171t-164.5 -183.5t-242 -215.5l-10 -94q-10 -102 7.5 -158.5t47 -84t64.5 -34t59 -6.5q76 0 124 20.5t85 57.5l21 -61q-23 -20 -43.5 -38 t-48 -31t-65.5 -20t-93 -7q-23 0 -66 6t-85 41.5t-69.5 109.5t-15.5 209l2 25l-141 -113zM322 539q125 109 208.5 193.5t136 158.5t75 143.5t22.5 145.5q0 104 -39 159.5t-123 55.5q-111 0 -161 -94.5t-66 -251.5z" />
<glyph unicode="&#x2116;" horiz-adv-x="2129" d="M180 0l152 1434h102l666 -1282l135 1282h88l-152 -1434h-100l-665 1282l-136 -1282h-90zM1362 528l8 82h762l-8 -82h-762zM1417 1036q0 82 31 157t87 131t133 90t169 34q82 0 146.5 -26.5t108.5 -74t67.5 -109.5t23.5 -132q0 -82 -30.5 -155.5t-86 -130t-133.5 -90.5 t-170 -34q-84 0 -147.5 27t-108.5 73t-67.5 108.5t-22.5 131.5zM1503 1042q0 -55 18.5 -104t52.5 -85t83 -57.5t112 -21.5q72 0 132.5 26.5t103.5 70.5t67.5 103.5t24.5 125.5q0 55 -18.5 104t-52 85t-84 57.5t-113.5 21.5q-72 0 -131.5 -26.5t-102.5 -70.5t-67.5 -103.5 t-24.5 -125.5z" />
<glyph unicode="&#x2122;" horiz-adv-x="1636" d="M225 1372l6 62h523l-6 -62h-230l-82 -772h-65l82 772h-228zM856 600l88 834h86l219 -725l371 725h84l-88 -834h-64l76 707l-364 -707h-54l-213 715l-75 -715h-66z" />
<glyph unicode="&#x2126;" horiz-adv-x="1478" d="M150 0l8 84h444l10 98q-98 25 -178 79t-136 130t-88 171t-32 204q0 139 51.5 265t145.5 221.5t224 151.5t290 56q141 0 250.5 -45t183.5 -123t112 -182t38 -223q0 -129 -43.5 -245t-120 -208t-180 -156.5t-226.5 -95.5l-10 -98h444l-8 -84h-522l24 240q117 18 218.5 75.5 t175 142.5t115.5 193.5t42 231.5q0 102 -31.5 192t-95 156.5t-157.5 105.5t-217 39q-139 0 -252 -48t-193 -131t-123 -192.5t-43 -232.5q0 -100 30 -189t85 -160t134 -119t177 -64l-24 -240h-522z" />
<glyph unicode="&#x212e;" horiz-adv-x="1050" d="M145 397q0 106 35 198.5t97.5 161t148.5 107.5t190 39q86 0 157 -26.5t120 -75.5t76.5 -116t27.5 -146q0 -33 -3 -50.5t-7 -35.5h-674l-34 -324q43 -49 108.5 -77.5t153.5 -28.5q137 0 233 64.5t133 152.5h45q-20 -53 -57 -100.5t-90 -82t-121 -56t-147 -21.5 q-100 0 -174 33.5t-122 91t-72 133t-24 159.5zM317 496h514l29 272q-92 92 -237 92q-82 0 -153 -26.5t-124 -73.5z" />
<glyph unicode="&#x2190;" d="M-63 717l542 442l47 -55l-430 -348h1280l-8 -78h-1278l354 -346l-59 -58z" />
<glyph unicode="&#x2191;" d="M236 940l493 494l391 -494l-63 -53l-307 391l-134 -1278h-75l133 1278l-389 -391z" />
<glyph unicode="&#x2192;" d="M-68 678l9 76h1278l-353 348l58 55l448 -442l-543 -443l-45 58l428 348h-1280z" />
<glyph unicode="&#x2193;" d="M188 496l62 51l307 -391l133 1278h76l-133 -1278l389 391l51 -51l-493 -496z" />
<glyph unicode="&#x2196;" d="M154 561l34 662l658 -35l-12 -78l-519 31l809 -903l-59 -56l-809 903l-25 -520z" />
<glyph unicode="&#x2197;" d="M84 238l997 903l-524 -31l4 78l668 35l-107 -662l-78 4l89 522l-1000 -905z" />
<glyph unicode="&#x2198;" d="M184 1196l62 55l805 -903l24 522l78 2l-33 -661l-659 35l12 78l520 -31z" />
<glyph unicode="&#x2199;" d="M82 211l104 661l78 -2l-86 -524l998 905l51 -55l-1002 -903l527 31l-4 -78z" />
<glyph unicode="&#x2202;" d="M158 375q0 104 37.5 197.5t104.5 164t157.5 112.5t199.5 42q53 0 108.5 -12.5t107 -41t94.5 -76.5t73 -122q0 2 3.5 11t7.5 34t7 68t3 112q0 152 -18.5 252.5t-56.5 158.5t-95 81.5t-135 23.5q-100 0 -179 -32.5t-134.5 -89t-88 -133t-41.5 -164.5h-90q12 104 52 195 t109 159.5t163 107.5t213 39q121 0 196.5 -42t118.5 -121.5t59.5 -195.5t16.5 -263q0 -154 -19.5 -308.5t-79 -279.5t-170 -203t-290.5 -78q-115 0 -198 33t-135 88t-76.5 128t-24.5 155zM244 383q0 -141 85 -234.5t259 -93.5q82 0 151.5 24.5t125 79t95 141.5t64.5 212 q-20 82 -59 139.5t-88.5 92t-107 50t-114.5 15.5q-92 0 -167.5 -35t-130 -93t-84 -135t-29.5 -163z" />
<glyph unicode="&#x2206;" horiz-adv-x="1093" d="M16 0l646 1434h73l340 -1434h-1059zM150 84h811l-277 1214z" />
<glyph unicode="&#x220f;" horiz-adv-x="1236" d="M102 -551l222 2095h-97l9 82h1112l-9 -82h-98l-221 -2095h-90l221 2095h-737l-221 -2095h-91z" />
<glyph unicode="&#x2211;" d="M-41 -551l8 84l838 1006l-625 1007l8 80h1063l-8 -82h-950l622 -997l-835 -1010h952l-10 -88h-1063z" />
<glyph unicode="&#x2212;" d="M223 549l8 78h828l-8 -78h-828z" />
<glyph unicode="&#x221a;" horiz-adv-x="1411" d="M49 395l8 80h314l202 -817l904 1968h94l-973 -2105h-74l-223 874h-252z" />
<glyph unicode="&#x221e;" horiz-adv-x="1685" d="M104 551q0 88 31 169t87.5 144.5t136 101.5t178.5 38q121 0 223 -71t158 -233q88 164 203.5 234t238.5 70q84 0 148.5 -30t108.5 -80t66.5 -116.5t22.5 -142.5q0 -90 -30.5 -172t-87 -144.5t-135.5 -100.5t-177 -38q-135 0 -234.5 75t-146.5 226q-84 -152 -197.5 -226.5 t-244.5 -74.5q-86 0 -150.5 31t-108.5 81t-67 117.5t-23 141.5zM188 557q0 -59 17.5 -113.5t52.5 -95.5t86 -64.5t117 -23.5q55 0 112.5 19.5t109.5 59.5t97 102.5t78 150.5q-16 88 -48 151.5t-76 103.5t-97.5 58.5t-108.5 18.5q-78 0 -140 -31t-106 -81t-69 -116.5 t-25 -138.5zM950 592q16 -92 50 -155.5t79 -102.5t97.5 -56.5t105.5 -17.5q76 0 139.5 31t107.5 81t68.5 116.5t24.5 138.5q0 59 -17.5 113.5t-52 95.5t-85.5 64.5t-117 23.5q-115 0 -224.5 -80t-175.5 -252z" />
<glyph unicode="&#x222b;" horiz-adv-x="550" d="M-113 -545l9 82q55 -29 104 -29q76 0 117 48.5t51 138.5l176 1671q14 131 74.5 195.5t163.5 64.5q23 0 59.5 -4t67.5 -20l-9 -82q-55 27 -102 26q-78 0 -118 -48t-50 -136l-176 -1671q-14 -129 -75.5 -195.5t-166.5 -66.5q-31 0 -63.5 6t-61.5 20z" />
<glyph unicode="&#x2248;" d="M172 342l10 88q53 53 109.5 73.5t103.5 20.5q53 0 113.5 -19.5t120.5 -45.5q78 -35 125 -54.5t92 -19.5q66 0 126 35t107 74l-10 -86q-51 -47 -111.5 -76t-119.5 -29q-51 0 -105.5 21.5t-124.5 54.5q-55 27 -110.5 45t-108.5 18q-63 0 -117.5 -28.5t-99.5 -71.5zM188 537 l11 88q53 53 109.5 73.5t103.5 20.5q53 0 113.5 -19.5t119.5 -46.5q78 -35 125 -54t92 -19q66 0 126.5 34.5t107.5 73.5l-11 -86q-51 -45 -111.5 -73.5t-117.5 -28.5q-47 0 -100.5 19.5t-130.5 53.5q-53 25 -109.5 45.5t-109.5 20.5q-57 0 -113.5 -27.5t-104.5 -74.5z" />
<glyph unicode="&#x2260;" d="M205 362l8 82h283l168 275h-422l8 82h461l155 254h95l-158 -254h274l-8 -82h-311l-168 -275h450l-8 -82h-487l-154 -256h-94l154 256h-246z" />
<glyph unicode="&#x2264;" d="M197 150l8 77h796l-8 -77h-796zM270 846l6 69l830 316l-8 -86l-715 -266l659 -267l-8 -82z" />
<glyph unicode="&#x2265;" d="M197 150l8 77h796l-8 -77h-796zM238 530l8 82l712 267l-657 266l8 86l764 -316l-6 -69z" />
<glyph unicode="&#x25ca;" horiz-adv-x="931" d="M96 811l502 815h82l328 -815l-500 -811h-82zM188 811l289 -715l438 715l-286 719z" />
<glyph unicode="&#xe000;" horiz-adv-x="880" d="M0 0v881h881v-881h-881z" />
<glyph unicode="&#xfb01;" horiz-adv-x="1130" d="M133 805l8 78h211l27 245q12 106 44 170t74 96.5t89 42t90 9.5t69.5 -6t51.5 -17l-9 -77q-27 10 -50 15t-58 5t-70 -7t-64.5 -30.5t-51 -70t-29.5 -123.5l-27 -252h301l-8 -78h-301l-84 -805h-86l84 805h-211zM852 0l92 883h86l-92 -883h-86zM926 1233q0 45 31.5 75.5 t76.5 30.5q39 0 64.5 -25.5t25.5 -64.5q0 -45 -32.5 -75.5t-77.5 -30.5q-39 0 -63.5 25.5t-24.5 64.5z" />
<glyph unicode="&#xfb02;" horiz-adv-x="1107" d="M133 805l8 78h211l27 245q12 106 44 170t74 96.5t89 42t90 9.5t69.5 -6t51.5 -17l-9 -77q-27 10 -50 15t-58 5t-70 -7t-64.5 -30.5t-51 -70t-29.5 -123.5l-27 -252h301l-8 -78h-301l-84 -805h-86l84 805h-211zM840 0l149 1434h88l-149 -1434h-88z" />
<glyph horiz-adv-x="1482" d="M147 606q0 27 3.5 70t11.5 82t20.5 67.5t28.5 28.5q8 0 15 -7t13.5 -16.5t12.5 -16.5t10 -7q2 0 9.5 46t27.5 115.5t60 151.5t110 151.5t172.5 116t249.5 46.5q145 0 239.5 -46.5t148.5 -116t77.5 -151.5t30 -151.5t3 -115.5t-0.5 -46q4 0 11 7t14 16.5t16.5 16.5t17.5 7 q16 0 22.5 -35t6.5 -69q0 -29 -4.5 -71t-12.5 -82t-21.5 -68.5t-33.5 -28.5q-16 0 -23.5 12t-9.5 16q-14 -41 -35.5 -95t-54.5 -113.5t-80 -117t-111.5 -102.5t-151.5 -72.5t-198 -27.5q-162 0 -259 55.5t-152.5 137t-77 173t-31.5 164.5q-4 -8 -12 -16q-14 -14 -27 -14 q-10 0 -17 11t-11 26.5t-5.5 34t-1.5 34.5zM383 788q18 -27 43 -47q23 -18 54.5 -32.5t74.5 -14.5q51 0 89 20.5t61 45.5q27 29 45 65q-8 14 -23 29q-12 12 -33.5 25.5t-52.5 23.5q14 -12 23.5 -32.5t9.5 -43.5q0 -47 -35 -78.5t-82 -31.5q-37 0 -64.5 24.5t-27.5 73.5 q0 23 6 41t23 33q-31 -10 -51.5 -26.5t-34.5 -33.5q-16 -20 -25 -41zM489 377q4 -59 37 -105q29 -41 85.5 -72.5t162.5 -31.5q104 0 162.5 30.5t84.5 69.5t27 72t-12 37q-4 2 -17 4t-46 14q12 18 21.5 40t9.5 50q0 12 -2.5 29.5t-8.5 33t-14 27t-21 11.5q-8 0 -18 -6.5 t-10 -24.5q0 -6 4 -10q8 -10 12 -19.5t4 -31.5q0 -18 -4 -39t-18 -41q-33 16 -63 30.5t-77 14.5t-80.5 -14.5t-66.5 -30.5q-8 16 -8 49t7 50t22 32q6 2 6 16q0 25 -23 25q-16 0 -28.5 -15.5t-21.5 -37t-14.5 -44t-5.5 -38.5q0 -10 2.5 -26.5t10.5 -29.5q-23 -8 -46.5 -13 t-52.5 -5zM903 825q10 -37 33 -65q18 -25 50 -45.5t85 -20.5q43 0 78 14.5t61 32.5q29 20 54 47q-8 23 -21 43q-10 16 -27.5 35t-46.5 29q20 -27 21 -64q0 -51 -35 -82.5t-80 -31.5q-43 0 -69.5 26.5t-26.5 65.5q0 16 8 40.5t31 43.5q-31 -10 -52.5 -21.5t-35.5 -21.5 q-16 -12 -27 -25z" />
<glyph horiz-adv-x="413" d="M102 -193l7 54q57 0 83.5 21.5t36.5 56.5q10 39 2 67q-10 -8 -23 -11t-24 -3q-31 0 -50 19t-19 50q0 37 26.5 64t69.5 27q47 0 73.5 -39t26.5 -105q0 -98 -55 -148t-154 -53z" />
<glyph horiz-adv-x="413" d="M258 1423q0 96 54.5 147.5t154.5 53.5l-6 -53q-59 0 -86 -22.5t-37 -55.5q-8 -27 -6 -44t6 -24q8 8 21.5 11.5t25.5 3.5q31 0 50.5 -19.5t19.5 -50.5q0 -37 -28 -63.5t-69 -26.5q-47 0 -73.5 38t-26.5 105z" />
</font>
</defs>
</svg>
